<?xml version="1.0" encoding="UTF-8" standalone="no"?>
<!-- Created with Inkscape (http://www.inkscape.org/) -->

<svg
   xmlns:dc="http://purl.org/dc/elements/1.1/"
   xmlns:cc="http://creativecommons.org/ns#"
   xmlns:rdf="http://www.w3.org/1999/02/22-rdf-syntax-ns#"
   xmlns:svg="http://www.w3.org/2000/svg"
   xmlns="http://www.w3.org/2000/svg"
   xmlns:sodipodi="http://sodipodi.sourceforge.net/DTD/sodipodi-0.dtd"
   xmlns:inkscape="http://www.inkscape.org/namespaces/inkscape"
   width="607.13556"
   height="651.38861"
   id="svg24115"
   version="1.1"
   inkscape:version="0.48.4 r9939"
   sodipodi:docname="New document 64">
  <defs
     id="defs24117" />
  <sodipodi:namedview
     id="base"
     pagecolor="#ffffff"
     bordercolor="#666666"
     borderopacity="1.0"
     inkscape:pageopacity="0.0"
     inkscape:pageshadow="2"
     inkscape:zoom="0.35"
     inkscape:cx="206.7303"
     inkscape:cy="353.87576"
     inkscape:document-units="px"
     inkscape:current-layer="layer1"
     showgrid="false"
     fit-margin-top="0"
     fit-margin-left="0"
     fit-margin-right="0"
     fit-margin-bottom="0"
     inkscape:window-width="463"
     inkscape:window-height="423"
     inkscape:window-x="1541"
     inkscape:window-y="175"
     inkscape:window-maximized="0" />
  <metadata
     id="metadata24120">
    <rdf:RDF>
      <cc:Work
         rdf:about="">
        <dc:format>image/svg+xml</dc:format>
        <dc:type
           rdf:resource="http://purl.org/dc/dcmitype/StillImage" />
        <dc:title></dc:title>
      </cc:Work>
    </rdf:RDF>
  </metadata>
  <g
     inkscape:label="Layer 1"
     inkscape:groupmode="layer"
     id="layer1"
     transform="translate(-168.2697,-234.84934)">
    <g
       id="g81623"
       inkscape:export-filename="C:\Users\mscavers\Desktop\Math 251 (Fall 2011)\Lecture Notes\Lecture 28-30\int-curves.png"
       inkscape:export-xdpi="222"
       inkscape:export-ydpi="222"
       transform="translate(-11760.688,-4094.8893)">
      <path
         inkscape:connector-curvature="0"
         sodipodi:nodetypes="cs"
         id="path3636-79"
         d="m 1848.7466,151.61581 c 44.2947,317.01038 146.776,317.43941 194.0891,0"
         style="color:#000000;fill:none;stroke:#0000ff;stroke-width:3.58511281;stroke-linecap:butt;stroke-linejoin:miter;stroke-miterlimit:4;stroke-opacity:1;stroke-dasharray:none;stroke-dashoffset:0;marker:none;visibility:visible;display:inline;overflow:visible;enable-background:accumulate"
         transform="translate(10292.419,4304.0101)" />
      <path
         inkscape:connector-curvature="0"
         sodipodi:nodetypes="cs"
         id="path3636-79-7"
         d="m 1848.7467,37.536371 c 44.294,317.010299 146.776,317.439399 194.089,0"
         style="color:#000000;fill:none;stroke:#ff0000;stroke-width:3.58511281;stroke-linecap:butt;stroke-linejoin:miter;stroke-miterlimit:4;stroke-opacity:1;stroke-dasharray:none;stroke-dashoffset:0;marker:none;visibility:visible;display:inline;overflow:visible;enable-background:accumulate"
         transform="translate(10292.419,4304.0101)" />
      <path
         inkscape:connector-curvature="0"
         sodipodi:nodetypes="cs"
         id="path3636-79-7-8"
         d="m 1848.7467,272.76638 c 44.294,317.0103 146.776,317.4394 194.089,0"
         style="color:#000000;fill:none;stroke:#ff6600;stroke-width:3.58511281;stroke-linecap:butt;stroke-linejoin:miter;stroke-miterlimit:4;stroke-opacity:1;stroke-dasharray:none;stroke-dashoffset:0;marker:none;visibility:visible;display:inline;overflow:visible;enable-background:accumulate"
         transform="translate(10292.419,4304.0101)" />
      <path
         inkscape:connector-curvature="0"
         sodipodi:nodetypes="cs"
         id="path3636-79-7-2"
         d="m 1848.7467,396.7459 c 44.294,317.0103 146.776,317.4394 194.089,0"
         style="color:#000000;fill:none;stroke:#008000;stroke-width:3.58511281;stroke-linecap:butt;stroke-linejoin:miter;stroke-miterlimit:4;stroke-opacity:1;stroke-dasharray:none;stroke-dashoffset:0;marker:none;visibility:visible;display:inline;overflow:visible;enable-background:accumulate"
         transform="translate(10292.419,4304.0101)" />
      <g
         style="fill:#0000ff"
         transform="matrix(0.03593558,0,0,0.03593558,11559.382,4305.0624)"
         id="g20453">
        <g
           style="font-style:normal;font-variant:normal;font-weight:normal;font-stretch:normal;letter-spacing:normal;word-spacing:normal;text-anchor:start;fill:#0000ff;stroke:#000000;stroke-linecap:butt;stroke-linejoin:miter;stroke-miterlimit:10.43299961;stroke-opacity:1;stroke-dasharray:none;stroke-dashoffset:0"
           word-spacing="normal"
           letter-spacing="normal"
           font-size-adjust="none"
           font-stretch="normal"
           font-weight="normal"
           font-variant="normal"
           font-style="normal"
           stroke-miterlimit="10.433"
           xml:space="preserve"
           transform="matrix(22.279459,0,0,-22.279459,-3898.9052,12663.5)"
           id="g20455"><path
             inkscape:connector-curvature="0"
             style="fill:#0000ff;stroke-width:0"
             id="path20457"
             d="m 1192.2,364.98 0,0.03 0,0.03 0,0.03 0,0.03 0.1,0.06 0,0.05 0,0.06 0,0.04 0,0.05 0,0.04 0,0.04 0,0.04 0.1,0.04 0,0.04 0,0.03 0,0.03 0,0.03 0,0.03 0,0.03 0,0.03 0,0.03 0,0.02 0,0.06 0,0.05 0,0.05 0,0.05 0,0.03 0,0.03 0,0.03 0,0.04 c 0,0.89 -0.7,1.34 -1.4,1.34 -0.5,0 -1.3,-0.3 -1.8,-1.05 -0.1,-0.24 -0.5,-1.79 -0.7,-2.69 -0.3,-1.29 -0.7,-2.64 -1,-3.98 l -2.2,-8.97 c -0.2,-0.74 -2.4,-4.23 -5.6,-4.23 -2.6,0 -3.1,2.19 -3.1,4.03 0,2.3 0.8,5.38 2.5,9.77 0.8,2.04 1,2.59 1,3.58 0,2.25 -1.6,4.09 -4.1,4.09 -4.7,0 -6.6,-7.23 -6.6,-7.67 0,-0.5 0.5,-0.5 0.6,-0.5 0.5,0 0.6,0.1 0.8,0.9 1.4,4.68 3.4,6.17 5.1,6.17 0.4,0 1.2,0 1.2,-1.59 0,-1.25 -0.5,-2.54 -0.8,-3.49 -2,-5.28 -2.9,-8.12 -2.9,-10.46 0,-4.43 3.1,-5.93 6.1,-5.93 1.9,0 3.6,0.85 5,2.25 -0.7,-2.6 -1.3,-5.04 -3.2,-7.68 -1.3,-1.69 -3.2,-3.14 -5.5,-3.14 -0.7,0 -3,0.16 -3.8,2.1 0.8,0 1.4,0 2.1,0.59 0.5,0.45 1,1.1 1,2.05 0,1.54 -1.3,1.74 -1.8,1.74 -1.2,0 -2.8,-0.8 -2.8,-3.24 0,-2.49 2.2,-4.33 5.3,-4.33 5.1,0 10.2,4.53 11.6,10.16 z" /><path
             inkscape:connector-curvature="0"
             style="fill:#0000ff;stroke-width:0"
             id="path20459"
             d="m 1242.2,362.29 0.2,0 0.1,0 0.2,0.01 0,0 0.1,0 0.1,0.01 0,0.01 0.1,0.01 0.1,0.01 0.1,0.02 0,0.01 0.1,0.02 0,0.02 0.1,0.03 0.1,0.03 0,0.03 0.1,0.03 0,0.04 0.1,0.04 0,0.05 0.1,0.05 0,0.03 0,0.02 0,0.03 0,0.03 0,0.03 0,0.04 0.1,0.03 0,0.04 0,0.03 0,0.04 0,0.04 0,0.04 0,0.04 0,0.04 0,0.05 0,0.05 c 0,0.99 -0.9,0.99 -1.6,0.99 h -29.9 c -0.7,0 -1.6,0 -1.6,-0.99 0,-1 0.9,-1 1.7,-1 z" /><path
             inkscape:connector-curvature="0"
             style="fill:#0000ff;stroke-width:0"
             id="path20461"
             d="m 1242.3,352.63 0.1,0 0.1,0 0.2,0 0.1,0.01 0,0 0.1,0.01 0.1,0.01 0,0.01 0.1,0.01 0.1,0.01 0,0.02 0.1,0.02 0.1,0.02 0,0.02 0.1,0.03 0,0.03 0.1,0.04 0,0.04 0.1,0.04 0,0.04 0,0.03 0.1,0.03 0,0.02 0,0.03 0,0.03 0,0.03 0,0.03 0,0.03 0.1,0.04 0,0.03 0,0.04 0,0.04 0,0.04 0,0.04 0,0.04 0,0.04 0,0.05 0,0.04 c 0,1 -0.9,1 -1.7,1 h -29.7 c -0.8,0 -1.7,0 -1.7,-1 0,-0.99 0.9,-0.99 1.6,-0.99 z" /><path
             inkscape:connector-curvature="0"
             style="fill:#0000ff;stroke-width:0"
             id="path20463"
             d="m 1277.6,361.04 0.1,0.13 0,0.15 0,0.17 0.1,0.18 0,0.19 0.1,0.21 0.1,0.21 0,0.23 0.1,0.23 0.1,0.24 0.1,0.25 0.1,0.24 0.1,0.25 0.1,0.25 0.2,0.25 0.1,0.25 0.2,0.24 0.1,0.24 0.2,0.23 0.2,0.22 0.1,0.22 0.2,0.2 0.2,0.19 0.3,0.18 0.2,0.16 0.2,0.14 0.2,0.07 0.1,0.06 0.1,0.05 0.2,0.05 0.1,0.05 0.1,0.04 0.2,0.03 0.1,0.03 0.2,0.02 0.1,0.02 0.2,0.01 0.2,0 c 0.2,0 1.4,0 2.5,-0.65 -1.4,-0.25 -2.4,-1.49 -2.4,-2.68 0,-0.8 0.5,-1.75 1.9,-1.75 1.1,0 2.7,0.9 2.7,2.89 0,2.59 -3,3.29 -4.7,3.29 -2.9,0 -4.6,-2.64 -5.2,-3.79 -1.3,3.29 -4,3.79 -5.4,3.79 -5.2,0 -8,-6.43 -8,-7.67 0,-0.5 0.5,-0.5 0.6,-0.5 0.4,0 0.5,0.1 0.6,0.54 1.7,5.29 5,6.53 6.7,6.53 1,0 2.7,-0.45 2.7,-3.33 0,-1.55 -0.8,-4.89 -2.7,-11.86 -0.8,-3.09 -2.5,-5.18 -4.7,-5.18 -0.3,0 -1.5,0 -2.5,0.65 1.2,0.25 2.3,1.29 2.3,2.69 0,1.34 -1.1,1.74 -1.8,1.74 -1.5,0 -2.8,-1.3 -2.8,-2.89 0,-2.29 2.5,-3.29 4.7,-3.29 3.3,0 5.1,3.49 5.3,3.79 0.6,-1.85 2.4,-3.79 5.3,-3.79 5.2,0 8,6.43 8,7.68 0,0.49 -0.4,0.49 -0.6,0.49 -0.4,0 -0.5,-0.2 -0.6,-0.55 -1.7,-5.33 -5.1,-6.52 -6.7,-6.52 -1.9,0 -2.7,1.59 -2.7,3.29 0,1.09 0.3,2.19 0.8,4.38 z" /><path
             inkscape:connector-curvature="0"
             style="fill:#0000ff;stroke-width:0"
             id="path20465"
             d="m 1307.6,373.35 h -1.2 c -0.1,-0.77 -0.4,-2.83 -0.9,-3.18 -0.3,-0.21 -2.9,-0.21 -3.4,-0.21 h -6.4 c 3.6,3.25 4.8,4.22 6.9,5.86 2.6,2.06 5,4.22 5,7.54 0,4.21 -3.7,6.79 -8.2,6.79 -4.3,0 -7.2,-3.03 -7.2,-6.24 0,-1.78 1.5,-1.95 1.8,-1.95 0.9,0 1.9,0.59 1.9,1.85 0,0.62 -0.2,1.85 -2.1,1.85 1.1,2.47 3.5,3.24 5.1,3.24 3.5,0 5.3,-2.72 5.3,-5.54 0,-3.04 -2.1,-5.45 -3.3,-6.7 l -8.3,-8.3 c -0.4,-0.31 -0.4,-0.38 -0.4,-1.36 h 14.4 z" /></g>      </g>
      <g
         style="fill:#ff0000"
         transform="matrix(0.03593558,0,0,0.03593558,11593.382,4187.0624)"
         id="g37883">
        <g
           style="font-style:normal;font-variant:normal;font-weight:normal;font-stretch:normal;letter-spacing:normal;word-spacing:normal;text-anchor:start;fill:#ff0000;stroke:#000000;stroke-linecap:butt;stroke-linejoin:miter;stroke-miterlimit:10.43299961;stroke-opacity:1;stroke-dasharray:none;stroke-dashoffset:0"
           id="g37885"
           transform="matrix(22.279459,0,0,-22.279459,-3898.9052,12663.5)"
           xml:space="preserve"
           stroke-miterlimit="10.433"
           font-style="normal"
           font-variant="normal"
           font-weight="normal"
           font-stretch="normal"
           font-size-adjust="none"
           letter-spacing="normal"
           word-spacing="normal"><path
             inkscape:connector-curvature="0"
             style="fill:#ff0000;stroke-width:0"
             d="m 1149.2,364.98 0,0.03 0,0.03 0,0.03 0,0.03 0.1,0.06 0,0.05 0,0.06 0,0.04 0,0.05 0,0.04 0,0.04 0,0.04 0.1,0.04 0,0.04 0,0.03 0,0.03 0,0.03 0,0.03 0,0.03 0,0.03 0,0.03 0,0.02 0,0.06 0,0.05 0,0.05 0,0.05 0,0.03 0,0.03 0,0.03 0,0.04 c 0,0.89 -0.7,1.34 -1.4,1.34 -0.5,0 -1.3,-0.3 -1.8,-1.05 -0.1,-0.24 -0.5,-1.79 -0.7,-2.69 -0.3,-1.29 -0.7,-2.64 -1,-3.98 l -2.2,-8.97 c -0.2,-0.74 -2.4,-4.23 -5.6,-4.23 -2.6,0 -3.1,2.19 -3.1,4.03 0,2.3 0.8,5.38 2.5,9.77 0.8,2.04 1,2.59 1,3.58 0,2.25 -1.6,4.09 -4.1,4.09 -4.7,0 -6.6,-7.23 -6.6,-7.67 0,-0.5 0.5,-0.5 0.6,-0.5 0.5,0 0.6,0.1 0.8,0.9 1.4,4.68 3.4,6.17 5.1,6.17 0.4,0 1.2,0 1.2,-1.59 0,-1.25 -0.5,-2.54 -0.8,-3.49 -2,-5.28 -2.9,-8.12 -2.9,-10.46 0,-4.43 3.1,-5.93 6.1,-5.93 1.9,0 3.6,0.85 5,2.25 -0.7,-2.6 -1.3,-5.04 -3.2,-7.68 -1.3,-1.69 -3.2,-3.14 -5.5,-3.14 -0.7,0 -3,0.16 -3.8,2.1 0.8,0 1.4,0 2.1,0.59 0.5,0.45 1,1.1 1,2.05 0,1.54 -1.3,1.74 -1.8,1.74 -1.2,0 -2.8,-0.8 -2.8,-3.24 0,-2.49 2.2,-4.33 5.3,-4.33 5.1,0 10.2,4.53 11.6,10.16 z"
             id="path37887" /><path
             inkscape:connector-curvature="0"
             style="fill:#ff0000;stroke-width:0"
             d="m 1200.2,362.29 0.2,0 0.1,0 0.2,0.01 0,0 0.1,0 0.1,0.01 0,0.01 0.1,0.01 0.1,0.01 0.1,0.02 0,0.01 0.1,0.02 0,0.02 0.1,0.03 0.1,0.03 0,0.03 0.1,0.03 0,0.04 0.1,0.04 0,0.05 0.1,0.05 0,0.03 0,0.02 0,0.03 0,0.03 0,0.03 0,0.04 0.1,0.03 0,0.04 0,0.03 0,0.04 0,0.04 0,0.04 0,0.04 0,0.04 0,0.05 0,0.05 c 0,0.99 -0.9,0.99 -1.6,0.99 h -29.9 c -0.7,0 -1.6,0 -1.6,-0.99 0,-1 0.9,-1 1.7,-1 z"
             id="path37889" /><path
             inkscape:connector-curvature="0"
             style="fill:#ff0000;stroke-width:0"
             d="m 1200.3,352.63 0.1,0 0.1,0 0.2,0 0.1,0.01 0,0 0.1,0.01 0.1,0.01 0,0.01 0.1,0.01 0.1,0.01 0,0.02 0.1,0.02 0.1,0.02 0,0.02 0.1,0.03 0,0.03 0.1,0.04 0,0.04 0.1,0.04 0,0.04 0,0.03 0.1,0.03 0,0.02 0,0.03 0,0.03 0,0.03 0,0.03 0,0.03 0.1,0.04 0,0.03 0,0.04 0,0.04 0,0.04 0,0.04 0,0.04 0,0.04 0,0.05 0,0.04 c 0,1 -0.9,1 -1.7,1 h -29.7 c -0.8,0 -1.7,0 -1.7,-1 0,-0.99 0.9,-0.99 1.6,-0.99 z"
             id="path37891" /><path
             inkscape:connector-curvature="0"
             style="fill:#ff0000;stroke-width:0"
             d="m 1234.6,361.04 0.1,0.13 0,0.15 0,0.17 0.1,0.18 0,0.19 0.1,0.21 0.1,0.21 0,0.23 0.1,0.23 0.1,0.24 0.1,0.25 0.1,0.24 0.1,0.25 0.1,0.25 0.2,0.25 0.1,0.25 0.2,0.24 0.1,0.24 0.2,0.23 0.2,0.22 0.1,0.22 0.2,0.2 0.2,0.19 0.3,0.18 0.2,0.16 0.2,0.14 0.2,0.07 0.1,0.06 0.1,0.05 0.2,0.05 0.1,0.05 0.1,0.04 0.2,0.03 0.1,0.03 0.2,0.02 0.1,0.02 0.2,0.01 0.2,0 c 0.2,0 1.4,0 2.5,-0.65 -1.4,-0.25 -2.4,-1.49 -2.4,-2.68 0,-0.8 0.5,-1.75 1.9,-1.75 1.1,0 2.7,0.9 2.7,2.89 0,2.59 -3,3.29 -4.7,3.29 -2.9,0 -4.6,-2.64 -5.2,-3.79 -1.3,3.29 -4,3.79 -5.4,3.79 -5.2,0 -8,-6.43 -8,-7.67 0,-0.5 0.5,-0.5 0.6,-0.5 0.4,0 0.5,0.1 0.6,0.54 1.7,5.29 5,6.53 6.7,6.53 1,0 2.7,-0.45 2.7,-3.33 0,-1.55 -0.8,-4.89 -2.7,-11.86 -0.8,-3.09 -2.5,-5.18 -4.7,-5.18 -0.3,0 -1.5,0 -2.5,0.65 1.2,0.25 2.3,1.29 2.3,2.69 0,1.34 -1.1,1.74 -1.8,1.74 -1.5,0 -2.8,-1.3 -2.8,-2.89 0,-2.29 2.5,-3.29 4.7,-3.29 3.3,0 5.1,3.49 5.3,3.79 0.6,-1.85 2.4,-3.79 5.3,-3.79 5.2,0 8,6.43 8,7.68 0,0.49 -0.4,0.49 -0.6,0.49 -0.4,0 -0.5,-0.2 -0.6,-0.55 -1.7,-5.33 -5.1,-6.52 -6.7,-6.52 -1.9,0 -2.7,1.59 -2.7,3.29 0,1.09 0.3,2.19 0.8,4.38 z"
             id="path37893" /><path
             inkscape:connector-curvature="0"
             style="fill:#ff0000;stroke-width:0"
             d="m 1264.6,373.35 h -1.2 c -0.1,-0.77 -0.4,-2.83 -0.9,-3.18 -0.3,-0.21 -2.9,-0.21 -3.4,-0.21 h -6.4 c 3.6,3.25 4.8,4.22 6.9,5.86 2.6,2.06 5,4.22 5,7.54 0,4.21 -3.7,6.79 -8.2,6.79 -4.3,0 -7.2,-3.03 -7.2,-6.24 0,-1.78 1.5,-1.95 1.8,-1.95 0.9,0 1.9,0.59 1.9,1.85 0,0.62 -0.2,1.85 -2.1,1.85 1.1,2.47 3.5,3.24 5.1,3.24 3.5,0 5.3,-2.72 5.3,-5.54 0,-3.04 -2.1,-5.45 -3.3,-6.7 l -8.3,-8.3 c -0.4,-0.31 -0.4,-0.38 -0.4,-1.36 h 14.4 z"
             id="path37895" /><path
             inkscape:connector-curvature="0"
             style="fill:#ff0000;stroke-width:0"
             d="m 1300.4,357.46 h 13.9 c 0.7,0 1.6,0 1.6,0.99 0,1 -0.9,1 -1.6,1 h -13.9 v 13.95 c 0,0.69 0,1.64 -1,1.64 -1,0 -1,-0.95 -1,-1.64 v -13.95 h -14 c -0.7,0 -1.6,0 -1.6,-1 0,-0.99 0.9,-0.99 1.6,-0.99 h 14 v -13.95 c 0,-0.7 0,-1.64 1,-1.64 1,0 1,0.94 1,1.64 z"
             id="path37897" /><path
             inkscape:connector-curvature="0"
             style="fill:#ff0000;stroke-width:0"
             d="m 1336.3,349.84 5.3,5.12 c 7.8,6.88 10.8,9.57 10.8,14.55 0,5.68 -4.5,9.67 -10.6,9.67 -5.6,0 -9.3,-4.59 -9.3,-9.02 0,-2.79 2.5,-2.79 2.6,-2.79 0.9,0 2.6,0.6 2.6,2.64 0,1.29 -0.9,2.59 -2.6,2.59 -0.4,0 -0.5,0 -0.7,-0.05 1.2,3.24 3.9,5.08 6.8,5.08 4.5,0 6.6,-4.03 6.6,-8.12 0,-3.98 -2.5,-7.92 -5.2,-11.01 l -9.6,-10.66 c -0.5,-0.54 -0.5,-0.64 -0.5,-1.84 h 18.5 l 1.4,8.67 h -1.3 c -0.2,-1.5 -0.6,-3.69 -1.1,-4.44 -0.3,-0.39 -3.6,-0.39 -4.7,-0.39 z"
             id="path37899" /></g>      </g>
      <g
         style="fill:#ff6600"
         transform="matrix(0.03593558,0,0,0.03593558,11588.382,4425.0624)"
         id="g55335">
        <g
           style="font-style:normal;font-variant:normal;font-weight:normal;font-stretch:normal;letter-spacing:normal;word-spacing:normal;text-anchor:start;fill:#ff6600;stroke:#000000;stroke-linecap:butt;stroke-linejoin:miter;stroke-miterlimit:10.43299961;stroke-opacity:1;stroke-dasharray:none;stroke-dashoffset:0"
           word-spacing="normal"
           letter-spacing="normal"
           font-size-adjust="none"
           font-stretch="normal"
           font-weight="normal"
           font-variant="normal"
           font-style="normal"
           stroke-miterlimit="10.433"
           xml:space="preserve"
           transform="matrix(22.279459,0,0,-22.279459,-3898.9052,12663.5)"
           id="g55337"><path
             inkscape:connector-curvature="0"
             style="fill:#ff6600;stroke-width:0"
             id="path55339"
             d="m 1149.2,364.98 0,0.03 0,0.03 0,0.03 0,0.03 0.1,0.06 0,0.05 0,0.06 0,0.04 0,0.05 0,0.04 0,0.04 0,0.04 0.1,0.04 0,0.04 0,0.03 0,0.03 0,0.03 0,0.03 0,0.03 0,0.03 0,0.03 0,0.02 0,0.06 0,0.05 0,0.05 0,0.05 0,0.03 0,0.03 0,0.03 0,0.04 c 0,0.89 -0.7,1.34 -1.4,1.34 -0.5,0 -1.3,-0.3 -1.8,-1.05 -0.1,-0.24 -0.5,-1.79 -0.7,-2.69 -0.3,-1.29 -0.7,-2.64 -1,-3.98 l -2.2,-8.97 c -0.2,-0.74 -2.4,-4.23 -5.6,-4.23 -2.6,0 -3.1,2.19 -3.1,4.03 0,2.3 0.8,5.38 2.5,9.77 0.8,2.04 1,2.59 1,3.58 0,2.25 -1.6,4.09 -4.1,4.09 -4.7,0 -6.6,-7.23 -6.6,-7.67 0,-0.5 0.5,-0.5 0.6,-0.5 0.5,0 0.6,0.1 0.8,0.9 1.4,4.68 3.4,6.17 5.1,6.17 0.4,0 1.2,0 1.2,-1.59 0,-1.25 -0.5,-2.54 -0.8,-3.49 -2,-5.28 -2.9,-8.12 -2.9,-10.46 0,-4.43 3.1,-5.93 6.1,-5.93 1.9,0 3.6,0.85 5,2.25 -0.7,-2.6 -1.3,-5.04 -3.2,-7.68 -1.3,-1.69 -3.2,-3.14 -5.5,-3.14 -0.7,0 -3,0.16 -3.8,2.1 0.8,0 1.4,0 2.1,0.59 0.5,0.45 1,1.1 1,2.05 0,1.54 -1.3,1.74 -1.8,1.74 -1.2,0 -2.8,-0.8 -2.8,-3.24 0,-2.49 2.2,-4.33 5.3,-4.33 5.1,0 10.2,4.53 11.6,10.16 z" /><path
             inkscape:connector-curvature="0"
             style="fill:#ff6600;stroke-width:0"
             id="path55341"
             d="m 1200.2,362.29 0.2,0 0.1,0 0.2,0.01 0,0 0.1,0 0.1,0.01 0,0.01 0.1,0.01 0.1,0.01 0.1,0.02 0,0.01 0.1,0.02 0,0.02 0.1,0.03 0.1,0.03 0,0.03 0.1,0.03 0,0.04 0.1,0.04 0,0.05 0.1,0.05 0,0.03 0,0.02 0,0.03 0,0.03 0,0.03 0,0.04 0.1,0.03 0,0.04 0,0.03 0,0.04 0,0.04 0,0.04 0,0.04 0,0.04 0,0.05 0,0.05 c 0,0.99 -0.9,0.99 -1.6,0.99 h -29.9 c -0.7,0 -1.6,0 -1.6,-0.99 0,-1 0.9,-1 1.7,-1 z" /><path
             inkscape:connector-curvature="0"
             style="fill:#ff6600;stroke-width:0"
             id="path55343"
             d="m 1200.3,352.63 0.1,0 0.1,0 0.2,0 0.1,0.01 0,0 0.1,0.01 0.1,0.01 0,0.01 0.1,0.01 0.1,0.01 0,0.02 0.1,0.02 0.1,0.02 0,0.02 0.1,0.03 0,0.03 0.1,0.04 0,0.04 0.1,0.04 0,0.04 0,0.03 0.1,0.03 0,0.02 0,0.03 0,0.03 0,0.03 0,0.03 0,0.03 0.1,0.04 0,0.03 0,0.04 0,0.04 0,0.04 0,0.04 0,0.04 0,0.04 0,0.05 0,0.04 c 0,1 -0.9,1 -1.7,1 h -29.7 c -0.8,0 -1.7,0 -1.7,-1 0,-0.99 0.9,-0.99 1.6,-0.99 z" /><path
             inkscape:connector-curvature="0"
             style="fill:#ff6600;stroke-width:0"
             id="path55345"
             d="m 1234.6,361.04 0.1,0.13 0,0.15 0,0.17 0.1,0.18 0,0.19 0.1,0.21 0.1,0.21 0,0.23 0.1,0.23 0.1,0.24 0.1,0.25 0.1,0.24 0.1,0.25 0.1,0.25 0.2,0.25 0.1,0.25 0.2,0.24 0.1,0.24 0.2,0.23 0.2,0.22 0.1,0.22 0.2,0.2 0.2,0.19 0.3,0.18 0.2,0.16 0.2,0.14 0.2,0.07 0.1,0.06 0.1,0.05 0.2,0.05 0.1,0.05 0.1,0.04 0.2,0.03 0.1,0.03 0.2,0.02 0.1,0.02 0.2,0.01 0.2,0 c 0.2,0 1.4,0 2.5,-0.65 -1.4,-0.25 -2.4,-1.49 -2.4,-2.68 0,-0.8 0.5,-1.75 1.9,-1.75 1.1,0 2.7,0.9 2.7,2.89 0,2.59 -3,3.29 -4.7,3.29 -2.9,0 -4.6,-2.64 -5.2,-3.79 -1.3,3.29 -4,3.79 -5.4,3.79 -5.2,0 -8,-6.43 -8,-7.67 0,-0.5 0.5,-0.5 0.6,-0.5 0.4,0 0.5,0.1 0.6,0.54 1.7,5.29 5,6.53 6.7,6.53 1,0 2.7,-0.45 2.7,-3.33 0,-1.55 -0.8,-4.89 -2.7,-11.86 -0.8,-3.09 -2.5,-5.18 -4.7,-5.18 -0.3,0 -1.5,0 -2.5,0.65 1.2,0.25 2.3,1.29 2.3,2.69 0,1.34 -1.1,1.74 -1.8,1.74 -1.5,0 -2.8,-1.3 -2.8,-2.89 0,-2.29 2.5,-3.29 4.7,-3.29 3.3,0 5.1,3.49 5.3,3.79 0.6,-1.85 2.4,-3.79 5.3,-3.79 5.2,0 8,6.43 8,7.68 0,0.49 -0.4,0.49 -0.6,0.49 -0.4,0 -0.5,-0.2 -0.6,-0.55 -1.7,-5.33 -5.1,-6.52 -6.7,-6.52 -1.9,0 -2.7,1.59 -2.7,3.29 0,1.09 0.3,2.19 0.8,4.38 z" /><path
             inkscape:connector-curvature="0"
             style="fill:#ff6600;stroke-width:0"
             id="path55347"
             d="m 1264.6,373.35 h -1.2 c -0.1,-0.77 -0.4,-2.83 -0.9,-3.18 -0.3,-0.21 -2.9,-0.21 -3.4,-0.21 h -6.4 c 3.6,3.25 4.8,4.22 6.9,5.86 2.6,2.06 5,4.22 5,7.54 0,4.21 -3.7,6.79 -8.2,6.79 -4.3,0 -7.2,-3.03 -7.2,-6.24 0,-1.78 1.5,-1.95 1.8,-1.95 0.9,0 1.9,0.59 1.9,1.85 0,0.62 -0.2,1.85 -2.1,1.85 1.1,2.47 3.5,3.24 5.1,3.24 3.5,0 5.3,-2.72 5.3,-5.54 0,-3.04 -2.1,-5.45 -3.3,-6.7 l -8.3,-8.3 c -0.4,-0.31 -0.4,-0.38 -0.4,-1.36 h 14.4 z" /><path
             inkscape:connector-curvature="0"
             style="fill:#ff6600;stroke-width:0"
             id="path55349"
             d="m 1312.8,357.46 0.2,0 0.1,0 0.2,0 0.1,0.01 0.1,0 0,0.01 0.1,0.01 0.1,0.01 0,0.01 0.1,0.01 0.1,0.02 0.1,0.02 0,0.02 0.1,0.03 0,0.02 0.1,0.04 0,0.03 0.1,0.04 0,0.04 0.1,0.05 0,0.05 0,0.02 0.1,0.03 0,0.03 0,0.03 0,0.03 0,0.04 0,0.03 0,0.03 0,0.04 0,0.04 0.1,0.04 0,0.04 0,0.04 0,0.04 0,0.05 0,0.04 c 0,1 -0.9,1 -1.8,1 h -26.9 c -0.9,0 -1.8,0 -1.8,-1 0,-0.99 0.9,-0.99 1.8,-0.99 z" /><path
             inkscape:connector-curvature="0"
             style="fill:#ff6600;stroke-width:0"
             id="path55351"
             d="m 1336.3,349.84 5.3,5.12 c 7.8,6.88 10.8,9.57 10.8,14.55 0,5.68 -4.5,9.67 -10.6,9.67 -5.6,0 -9.3,-4.59 -9.3,-9.02 0,-2.79 2.5,-2.79 2.6,-2.79 0.9,0 2.6,0.6 2.6,2.64 0,1.29 -0.9,2.59 -2.6,2.59 -0.4,0 -0.5,0 -0.7,-0.05 1.2,3.24 3.9,5.08 6.8,5.08 4.5,0 6.6,-4.03 6.6,-8.12 0,-3.98 -2.5,-7.92 -5.2,-11.01 l -9.6,-10.66 c -0.5,-0.54 -0.5,-0.64 -0.5,-1.84 h 18.5 l 1.4,8.67 h -1.3 c -0.2,-1.5 -0.6,-3.69 -1.1,-4.44 -0.3,-0.39 -3.6,-0.39 -4.7,-0.39 z" /></g>      </g>
      <g
         style="fill:#008000"
         transform="matrix(0.03593558,0,0,0.03593558,11582.382,4606.0624)"
         id="g72805">
        <g
           style="font-style:normal;font-variant:normal;font-weight:normal;font-stretch:normal;letter-spacing:normal;word-spacing:normal;text-anchor:start;fill:#008000;stroke:#000000;stroke-linecap:butt;stroke-linejoin:miter;stroke-miterlimit:10.43299961;stroke-opacity:1;stroke-dasharray:none;stroke-dashoffset:0"
           id="g72807"
           transform="matrix(22.279459,0,0,-22.279459,-3898.9052,12663.5)"
           xml:space="preserve"
           stroke-miterlimit="10.433"
           font-style="normal"
           font-variant="normal"
           font-weight="normal"
           font-stretch="normal"
           font-size-adjust="none"
           letter-spacing="normal"
           word-spacing="normal"><path
             inkscape:connector-curvature="0"
             style="fill:#008000;stroke-width:0"
             d="m 1149.2,364.98 0,0.03 0,0.03 0,0.03 0,0.03 0.1,0.06 0,0.05 0,0.06 0,0.04 0,0.05 0,0.04 0,0.04 0,0.04 0.1,0.04 0,0.04 0,0.03 0,0.03 0,0.03 0,0.03 0,0.03 0,0.03 0,0.03 0,0.02 0,0.06 0,0.05 0,0.05 0,0.05 0,0.03 0,0.03 0,0.03 0,0.04 c 0,0.89 -0.7,1.34 -1.4,1.34 -0.5,0 -1.3,-0.3 -1.8,-1.05 -0.1,-0.24 -0.5,-1.79 -0.7,-2.69 -0.3,-1.29 -0.7,-2.64 -1,-3.98 l -2.2,-8.97 c -0.2,-0.74 -2.4,-4.23 -5.6,-4.23 -2.6,0 -3.1,2.19 -3.1,4.03 0,2.3 0.8,5.38 2.5,9.77 0.8,2.04 1,2.59 1,3.58 0,2.25 -1.6,4.09 -4.1,4.09 -4.7,0 -6.6,-7.23 -6.6,-7.67 0,-0.5 0.5,-0.5 0.6,-0.5 0.5,0 0.6,0.1 0.8,0.9 1.4,4.68 3.4,6.17 5.1,6.17 0.4,0 1.2,0 1.2,-1.59 0,-1.25 -0.5,-2.54 -0.8,-3.49 -2,-5.28 -2.9,-8.12 -2.9,-10.46 0,-4.43 3.1,-5.93 6.1,-5.93 1.9,0 3.6,0.85 5,2.25 -0.7,-2.6 -1.3,-5.04 -3.2,-7.68 -1.3,-1.69 -3.2,-3.14 -5.5,-3.14 -0.7,0 -3,0.16 -3.8,2.1 0.8,0 1.4,0 2.1,0.59 0.5,0.45 1,1.1 1,2.05 0,1.54 -1.3,1.74 -1.8,1.74 -1.2,0 -2.8,-0.8 -2.8,-3.24 0,-2.49 2.2,-4.33 5.3,-4.33 5.1,0 10.2,4.53 11.6,10.16 z"
             id="path72809" /><path
             inkscape:connector-curvature="0"
             style="fill:#008000;stroke-width:0"
             d="m 1200.2,362.29 0.2,0 0.1,0 0.2,0.01 0,0 0.1,0 0.1,0.01 0,0.01 0.1,0.01 0.1,0.01 0.1,0.02 0,0.01 0.1,0.02 0,0.02 0.1,0.03 0.1,0.03 0,0.03 0.1,0.03 0,0.04 0.1,0.04 0,0.05 0.1,0.05 0,0.03 0,0.02 0,0.03 0,0.03 0,0.03 0,0.04 0.1,0.03 0,0.04 0,0.03 0,0.04 0,0.04 0,0.04 0,0.04 0,0.04 0,0.05 0,0.05 c 0,0.99 -0.9,0.99 -1.6,0.99 h -29.9 c -0.7,0 -1.6,0 -1.6,-0.99 0,-1 0.9,-1 1.7,-1 z"
             id="path72811" /><path
             inkscape:connector-curvature="0"
             style="fill:#008000;stroke-width:0"
             d="m 1200.3,352.63 0.1,0 0.1,0 0.2,0 0.1,0.01 0,0 0.1,0.01 0.1,0.01 0,0.01 0.1,0.01 0.1,0.01 0,0.02 0.1,0.02 0.1,0.02 0,0.02 0.1,0.03 0,0.03 0.1,0.04 0,0.04 0.1,0.04 0,0.04 0,0.03 0.1,0.03 0,0.02 0,0.03 0,0.03 0,0.03 0,0.03 0,0.03 0.1,0.04 0,0.03 0,0.04 0,0.04 0,0.04 0,0.04 0,0.04 0,0.04 0,0.05 0,0.04 c 0,1 -0.9,1 -1.7,1 h -29.7 c -0.8,0 -1.7,0 -1.7,-1 0,-0.99 0.9,-0.99 1.6,-0.99 z"
             id="path72813" /><path
             inkscape:connector-curvature="0"
             style="fill:#008000;stroke-width:0"
             d="m 1234.6,361.04 0.1,0.13 0,0.15 0,0.17 0.1,0.18 0,0.19 0.1,0.21 0.1,0.21 0,0.23 0.1,0.23 0.1,0.24 0.1,0.25 0.1,0.24 0.1,0.25 0.1,0.25 0.2,0.25 0.1,0.25 0.2,0.24 0.1,0.24 0.2,0.23 0.2,0.22 0.1,0.22 0.2,0.2 0.2,0.19 0.3,0.18 0.2,0.16 0.2,0.14 0.2,0.07 0.1,0.06 0.1,0.05 0.2,0.05 0.1,0.05 0.1,0.04 0.2,0.03 0.1,0.03 0.2,0.02 0.1,0.02 0.2,0.01 0.2,0 c 0.2,0 1.4,0 2.5,-0.65 -1.4,-0.25 -2.4,-1.49 -2.4,-2.68 0,-0.8 0.5,-1.75 1.9,-1.75 1.1,0 2.7,0.9 2.7,2.89 0,2.59 -3,3.29 -4.7,3.29 -2.9,0 -4.6,-2.64 -5.2,-3.79 -1.3,3.29 -4,3.79 -5.4,3.79 -5.2,0 -8,-6.43 -8,-7.67 0,-0.5 0.5,-0.5 0.6,-0.5 0.4,0 0.5,0.1 0.6,0.54 1.7,5.29 5,6.53 6.7,6.53 1,0 2.7,-0.45 2.7,-3.33 0,-1.55 -0.8,-4.89 -2.7,-11.86 -0.8,-3.09 -2.5,-5.18 -4.7,-5.18 -0.3,0 -1.5,0 -2.5,0.65 1.2,0.25 2.3,1.29 2.3,2.69 0,1.34 -1.1,1.74 -1.8,1.74 -1.5,0 -2.8,-1.3 -2.8,-2.89 0,-2.29 2.5,-3.29 4.7,-3.29 3.3,0 5.1,3.49 5.3,3.79 0.6,-1.85 2.4,-3.79 5.3,-3.79 5.2,0 8,6.43 8,7.68 0,0.49 -0.4,0.49 -0.6,0.49 -0.4,0 -0.5,-0.2 -0.6,-0.55 -1.7,-5.33 -5.1,-6.52 -6.7,-6.52 -1.9,0 -2.7,1.59 -2.7,3.29 0,1.09 0.3,2.19 0.8,4.38 z"
             id="path72815" /><path
             inkscape:connector-curvature="0"
             style="fill:#008000;stroke-width:0"
             d="m 1264.6,373.35 h -1.2 c -0.1,-0.77 -0.4,-2.83 -0.9,-3.18 -0.3,-0.21 -2.9,-0.21 -3.4,-0.21 h -6.4 c 3.6,3.25 4.8,4.22 6.9,5.86 2.6,2.06 5,4.22 5,7.54 0,4.21 -3.7,6.79 -8.2,6.79 -4.3,0 -7.2,-3.03 -7.2,-6.24 0,-1.78 1.5,-1.95 1.8,-1.95 0.9,0 1.9,0.59 1.9,1.85 0,0.62 -0.2,1.85 -2.1,1.85 1.1,2.47 3.5,3.24 5.1,3.24 3.5,0 5.3,-2.72 5.3,-5.54 0,-3.04 -2.1,-5.45 -3.3,-6.7 l -8.3,-8.3 c -0.4,-0.31 -0.4,-0.38 -0.4,-1.36 h 14.4 z"
             id="path72817" /><path
             inkscape:connector-curvature="0"
             style="fill:#008000;stroke-width:0"
             d="m 1312.8,357.46 0.2,0 0.1,0 0.2,0 0.1,0.01 0.1,0 0,0.01 0.1,0.01 0.1,0.01 0,0.01 0.1,0.01 0.1,0.02 0.1,0.02 0,0.02 0.1,0.03 0,0.02 0.1,0.04 0,0.03 0.1,0.04 0,0.04 0.1,0.05 0,0.05 0,0.02 0.1,0.03 0,0.03 0,0.03 0,0.03 0,0.04 0,0.03 0,0.03 0,0.04 0,0.04 0.1,0.04 0,0.04 0,0.04 0,0.04 0,0.05 0,0.04 c 0,1 -0.9,1 -1.8,1 h -26.9 c -0.9,0 -1.8,0 -1.8,-1 0,-0.99 0.9,-0.99 1.8,-0.99 z"
             id="path72819" /><path
             inkscape:connector-curvature="0"
             style="fill:#008000;stroke-width:0"
             d="m 1344.6,354.22 v -4.33 c 0,-1.8 0,-2.35 -3.7,-2.35 h -1.1 V 346 h 13.5 v 1.54 h -1 c -3.7,0 -3.8,0.55 -3.8,2.35 v 4.33 h 5 v 1.54 h -5 v 22.67 c 0,1 0,1.29 -0.8,1.29 -0.5,0 -0.6,0 -1,-0.59 l -15.3,-23.37 h 1.4 l 12.1,18.58 v -18.58 h -12.1 -1.4 v -1.54 z"
             id="path72821" /></g>      </g>
      <g
         id="g67625-0-4-5-7-7"
         transform="translate(4712.0374,5383.2683)">
        <text
           sodipodi:linespacing="120%"
           id="text3006-2-0-5-4-9-2-5-9"
           y="-658.60559"
           x="7804.3745"
           style="font-size:29.76207542px;font-style:normal;font-variant:normal;font-weight:normal;font-stretch:normal;text-align:center;line-height:120.00000477%;writing-mode:lr-tb;text-anchor:middle;fill:#000000;fill-opacity:1;stroke:none;font-family:Cambria Math;-inkscape-font-specification:Cambria Math"
           xml:space="preserve"><tspan
             y="-658.60559"
             x="7804.3745"
             id="tspan3008-6-7-7-2-6-0-0-31"
             sodipodi:role="line">x</tspan></text>
        <text
           sodipodi:linespacing="120%"
           id="text3010-0-4-9-1-5-0-0-98"
           y="-956.16962"
           x="7502.9678"
           style="font-size:29.76207542px;font-style:normal;font-variant:normal;font-weight:normal;font-stretch:normal;text-align:center;line-height:120.00000477%;writing-mode:lr-tb;text-anchor:middle;fill:#000000;fill-opacity:1;stroke:none;font-family:Cambria Math;-inkscape-font-specification:Cambria Math"
           xml:space="preserve"><tspan
             y="-956.16962"
             x="7502.9678"
             id="tspan3012-6-7-0-9-1-3-4-6"
             sodipodi:role="line">y</tspan></text>
        <path
           inkscape:connector-curvature="0"
           id="path3004-1-3-8-7-09-9-5-5"
           d="m 7524.8305,-687.32781 286.5655,0"
           style="color:#000000;fill:none;stroke:#000000;stroke-width:1.5;stroke-linecap:butt;stroke-linejoin:miter;stroke-miterlimit:4;stroke-opacity:1;stroke-dasharray:none;stroke-dashoffset:0;marker:none;visibility:visible;display:inline;overflow:visible;enable-background:accumulate"
           sodipodi:nodetypes="cc" />
        <path
           inkscape:connector-curvature="0"
           id="path3014-1-3-1-4-9-83-1-4-0"
           d="m 7582.4164,-694.85129 0,18"
           style="color:#000000;fill:none;stroke:#000000;stroke-width:1.5;stroke-linecap:butt;stroke-linejoin:miter;stroke-miterlimit:4;stroke-opacity:1;stroke-dasharray:none;stroke-dashoffset:0;marker:none;visibility:visible;display:inline;overflow:visible;enable-background:accumulate" />
        <path
           inkscape:connector-curvature="0"
           id="path3014-9-0-0-2-3-8-8-9-2"
           d="m 7644.4573,-694.85129 0,18"
           style="color:#000000;fill:none;stroke:#000000;stroke-width:1.5;stroke-linecap:butt;stroke-linejoin:miter;stroke-miterlimit:4;stroke-opacity:1;stroke-dasharray:none;stroke-dashoffset:0;marker:none;visibility:visible;display:inline;overflow:visible;enable-background:accumulate" />
        <path
           inkscape:connector-curvature="0"
           id="path3014-2-8-3-5-1-99-1-5-8"
           d="m 7706.4982,-694.85129 0,18"
           style="color:#000000;fill:none;stroke:#000000;stroke-width:1.5;stroke-linecap:butt;stroke-linejoin:miter;stroke-miterlimit:4;stroke-opacity:1;stroke-dasharray:none;stroke-dashoffset:0;marker:none;visibility:visible;display:inline;overflow:visible;enable-background:accumulate" />
        <path
           inkscape:connector-curvature="0"
           id="path3014-7-0-5-1-5-5-9-6-6"
           d="m 7768.5391,-694.85129 0,18"
           style="color:#000000;fill:none;stroke:#000000;stroke-width:1.5;stroke-linecap:butt;stroke-linejoin:miter;stroke-miterlimit:4;stroke-opacity:1;stroke-dasharray:none;stroke-dashoffset:0;marker:none;visibility:visible;display:inline;overflow:visible;enable-background:accumulate" />
        <g
           id="g3101-7-2-1-6-9-33-5-4-02"
           transform="matrix(0,-1,1,0,7235.9835,-525.03804)">
          <path
             inkscape:connector-curvature="0"
             style="color:#000000;fill:none;stroke:#000000;stroke-width:1.5;stroke-linecap:butt;stroke-linejoin:miter;stroke-miterlimit:4;stroke-opacity:1;stroke-dasharray:none;stroke-dashoffset:0;marker:none;visibility:visible;display:inline;overflow:visible;enable-background:accumulate"
             d="m 162.53064,289.36218 283.46936,0"
             id="path3004-6-9-4-4-5-7-3-8-486"
             sodipodi:nodetypes="cc" />
          <path
             inkscape:connector-curvature="0"
             style="color:#000000;fill:none;stroke:#000000;stroke-width:1.5;stroke-linecap:butt;stroke-linejoin:miter;stroke-miterlimit:4;stroke-opacity:1;stroke-dasharray:none;stroke-dashoffset:0;marker:none;visibility:visible;display:inline;overflow:visible;enable-background:accumulate"
             d="m 217.02044,280.36218 0,18"
             id="path3014-1-2-8-6-2-8-8-2-2-50" />
          <path
             inkscape:connector-curvature="0"
             style="color:#000000;fill:none;stroke:#000000;stroke-width:1.5;stroke-linecap:butt;stroke-linejoin:miter;stroke-miterlimit:4;stroke-opacity:1;stroke-dasharray:none;stroke-dashoffset:0;marker:none;visibility:visible;display:inline;overflow:visible;enable-background:accumulate"
             d="m 279.06134,280.36218 0,18"
             id="path3014-9-2-5-0-1-3-8-5-1-90" />
          <path
             inkscape:connector-curvature="0"
             style="color:#000000;fill:none;stroke:#000000;stroke-width:1.5;stroke-linecap:butt;stroke-linejoin:miter;stroke-miterlimit:4;stroke-opacity:1;stroke-dasharray:none;stroke-dashoffset:0;marker:none;visibility:visible;display:inline;overflow:visible;enable-background:accumulate"
             d="m 341.10223,280.36218 0,18"
             id="path3014-2-1-7-5-4-1-81-2-6-0" />
          <path
             inkscape:connector-curvature="0"
             style="color:#000000;fill:none;stroke:#000000;stroke-width:1.5;stroke-linecap:butt;stroke-linejoin:miter;stroke-miterlimit:4;stroke-opacity:1;stroke-dasharray:none;stroke-dashoffset:0;marker:none;visibility:visible;display:inline;overflow:visible;enable-background:accumulate"
             d="m 403.14313,280.36218 0,18"
             id="path3014-7-8-8-6-9-6-8-5-8-6" />
        </g>
        <g
           transform="matrix(-1,0,0,-1,7685.2953,-397.96563)"
           id="g3101-1-8-4-8-8-7-8-3-1">
          <path
             inkscape:connector-curvature="0"
             style="color:#000000;fill:none;stroke:#000000;stroke-width:1.5;stroke-linecap:butt;stroke-linejoin:miter;stroke-miterlimit:4;stroke-opacity:1;stroke-dasharray:none;stroke-dashoffset:0;marker:none;visibility:visible;display:inline;overflow:visible;enable-background:accumulate"
             d="m 160.38719,289.36218 308,0"
             id="path3004-1-3-8-9-8-22-6-1-38"
             sodipodi:nodetypes="cc" />
          <path
             inkscape:connector-curvature="0"
             style="color:#000000;fill:none;stroke:#000000;stroke-width:1.5;stroke-linecap:butt;stroke-linejoin:miter;stroke-miterlimit:4;stroke-opacity:1;stroke-dasharray:none;stroke-dashoffset:0;marker:none;visibility:visible;display:inline;overflow:visible;enable-background:accumulate"
             d="m 217.02044,280.36218 0,18"
             id="path3014-1-3-1-4-7-9-890-7-4-9" />
          <path
             inkscape:connector-curvature="0"
             style="color:#000000;fill:none;stroke:#000000;stroke-width:1.5;stroke-linecap:butt;stroke-linejoin:miter;stroke-miterlimit:4;stroke-opacity:1;stroke-dasharray:none;stroke-dashoffset:0;marker:none;visibility:visible;display:inline;overflow:visible;enable-background:accumulate"
             d="m 279.06134,280.36218 0,18"
             id="path3014-9-0-0-2-6-1-81-7-8-3" />
          <path
             inkscape:connector-curvature="0"
             style="color:#000000;fill:none;stroke:#000000;stroke-width:1.5;stroke-linecap:butt;stroke-linejoin:miter;stroke-miterlimit:4;stroke-opacity:1;stroke-dasharray:none;stroke-dashoffset:0;marker:none;visibility:visible;display:inline;overflow:visible;enable-background:accumulate"
             d="m 341.10223,280.36218 0,18"
             id="path3014-2-8-3-5-0-3-8-2-4-4" />
          <path
             inkscape:connector-curvature="0"
             style="color:#000000;fill:none;stroke:#000000;stroke-width:1.5;stroke-linecap:butt;stroke-linejoin:miter;stroke-miterlimit:4;stroke-opacity:1;stroke-dasharray:none;stroke-dashoffset:0;marker:none;visibility:visible;display:inline;overflow:visible;enable-background:accumulate"
             d="m 403.14313,280.36218 0,18"
             id="path3014-7-0-5-1-3-3-1-2-9-4" />
        </g>
        <g
           id="g3101-7-2-1-6-6-2-4-9-2-60"
           transform="matrix(0,1,-1,0,7814.7078,-848.14106)">
          <path
             inkscape:connector-curvature="0"
             style="color:#000000;fill:none;stroke:#000000;stroke-width:1.5;stroke-linecap:butt;stroke-linejoin:miter;stroke-miterlimit:4;stroke-opacity:1;stroke-dasharray:none;stroke-dashoffset:0;marker:none;visibility:visible;display:inline;overflow:visible;enable-background:accumulate"
             d="m 161.10167,289.36218 284.89833,0"
             id="path3004-6-9-4-4-0-7-25-4-0-6"
             sodipodi:nodetypes="cc" />
          <path
             inkscape:connector-curvature="0"
             style="color:#000000;fill:none;stroke:#000000;stroke-width:1.5;stroke-linecap:butt;stroke-linejoin:miter;stroke-miterlimit:4;stroke-opacity:1;stroke-dasharray:none;stroke-dashoffset:0;marker:none;visibility:visible;display:inline;overflow:visible;enable-background:accumulate"
             d="m 217.02044,280.36218 0,18"
             id="path3014-1-2-8-6-2-7-1-6-1-7-61" />
          <path
             inkscape:connector-curvature="0"
             style="color:#000000;fill:none;stroke:#000000;stroke-width:1.5;stroke-linecap:butt;stroke-linejoin:miter;stroke-miterlimit:4;stroke-opacity:1;stroke-dasharray:none;stroke-dashoffset:0;marker:none;visibility:visible;display:inline;overflow:visible;enable-background:accumulate"
             d="m 279.06134,280.36218 0,18"
             id="path3014-9-2-5-0-1-4-6-5-9-0-84" />
          <path
             inkscape:connector-curvature="0"
             style="color:#000000;fill:none;stroke:#000000;stroke-width:1.5;stroke-linecap:butt;stroke-linejoin:miter;stroke-miterlimit:4;stroke-opacity:1;stroke-dasharray:none;stroke-dashoffset:0;marker:none;visibility:visible;display:inline;overflow:visible;enable-background:accumulate"
             d="m 341.10223,280.36218 0,18"
             id="path3014-2-1-7-5-4-0-7-92-6-6-96" />
          <path
             inkscape:connector-curvature="0"
             style="color:#000000;fill:none;stroke:#000000;stroke-width:1.5;stroke-linecap:butt;stroke-linejoin:miter;stroke-miterlimit:4;stroke-opacity:1;stroke-dasharray:none;stroke-dashoffset:0;marker:none;visibility:visible;display:inline;overflow:visible;enable-background:accumulate"
             d="m 403.14313,280.36218 0,18"
             id="path3014-7-8-8-6-9-1-0-6-9-0-3" />
        </g>
      </g>
    </g>
  </g>
</svg>
