<?xml version="1.0" encoding="UTF-8" standalone="no"?>
<!-- Created with Inkscape (http://www.inkscape.org/) -->

<svg
   xmlns:dc="http://purl.org/dc/elements/1.1/"
   xmlns:cc="http://creativecommons.org/ns#"
   xmlns:rdf="http://www.w3.org/1999/02/22-rdf-syntax-ns#"
   xmlns:svg="http://www.w3.org/2000/svg"
   xmlns="http://www.w3.org/2000/svg"
   xmlns:sodipodi="http://sodipodi.sourceforge.net/DTD/sodipodi-0.dtd"
   xmlns:inkscape="http://www.inkscape.org/namespaces/inkscape"
   width="471.70901"
   height="456.71149"
   id="svg29449"
   version="1.1"
   inkscape:version="0.48.4 r9939"
   sodipodi:docname="New document 66">
  <defs
     id="defs29451" />
  <sodipodi:namedview
     id="base"
     pagecolor="#ffffff"
     bordercolor="#666666"
     borderopacity="1.0"
     inkscape:pageopacity="0.0"
     inkscape:pageshadow="2"
     inkscape:zoom="0.35"
     inkscape:cx="245.10751"
     inkscape:cy="102.65061"
     inkscape:document-units="px"
     inkscape:current-layer="layer1"
     showgrid="false"
     fit-margin-top="0"
     fit-margin-left="0"
     fit-margin-right="0"
     fit-margin-bottom="0"
     inkscape:window-width="463"
     inkscape:window-height="423"
     inkscape:window-x="2060"
     inkscape:window-y="204"
     inkscape:window-maximized="0" />
  <metadata
     id="metadata29454">
    <rdf:RDF>
      <cc:Work
         rdf:about="">
        <dc:format>image/svg+xml</dc:format>
        <dc:type
           rdf:resource="http://purl.org/dc/dcmitype/StillImage" />
        <dc:title></dc:title>
      </cc:Work>
    </rdf:RDF>
  </metadata>
  <g
     inkscape:label="Layer 1"
     inkscape:groupmode="layer"
     id="layer1"
     transform="translate(-129.89249,-178.3013)">
    <g
       inkscape:export-ydpi="200"
       inkscape:export-xdpi="200"
       inkscape:export-filename="C:\Users\mscavers\Desktop\Math-253-Summer-2013\Mikes-Slides\lec2-right-triangle-technique-ex1b.png"
       transform="translate(-4913.586,-7618.6304)"
       id="g35986">
      <g
         inkscape:export-ydpi="300"
         inkscape:export-xdpi="300"
         inkscape:export-filename="C:\Users\mscavers\Desktop\Math 251 (Fall 2011)\Lecture Notes\Lecture 30b\pic6.png"
         transform="matrix(1.5141835,0,0,1.5141835,-557.52391,-4814.1821)"
         id="g33445-1-5">
        <path
           inkscape:connector-curvature="0"
           style="color:#000000;fill:#e5ffd5;stroke:#000000;stroke-width:1.98126578;stroke-linecap:round;stroke-linejoin:round;stroke-miterlimit:4;stroke-opacity:1;stroke-dasharray:none;stroke-dashoffset:0;marker:none;visibility:visible;display:inline;overflow:visible;enable-background:accumulate"
           d="m 3700.0149,8581.833 278.8822,0 0.3772,-252.1742 -279.2594,252.1742 z"
           id="path33336-7-7"
           sodipodi:nodetypes="cccc" />
        <path
           inkscape:connector-curvature="0"
           style="color:#000000;fill:none;stroke:#000000;stroke-width:0.99063289;stroke-linecap:butt;stroke-linejoin:miter;stroke-miterlimit:4;stroke-opacity:1;stroke-dasharray:none;stroke-dashoffset:0;marker:none;visibility:visible;display:inline;overflow:visible;enable-background:accumulate"
           d="m 3978.0064,8567.6979 -15.1897,0 0,14.5293"
           id="path33340-4-6" />
      </g>
      <text
         sodipodi:linespacing="120%"
         id="text15303-1"
         y="8167.5967"
         x="5125.542"
         style="font-size:47.70744324px;font-style:normal;font-variant:normal;font-weight:normal;font-stretch:normal;text-align:center;line-height:120.00000477%;writing-mode:lr-tb;text-anchor:middle;fill:#000000;fill-opacity:1;stroke:none;font-family:Cambria Math;-inkscape-font-specification:Cambria Math"
         xml:space="preserve"><tspan
           y="8167.5967"
           x="5125.542"
           id="tspan15305-8"
           sodipodi:role="line">θ</tspan></text>
      <g
         transform="matrix(0.03842616,0,0,0.03842616,4356.2292,8055.9185)"
         id="g25577">
        <g
           style="font-style:normal;font-variant:normal;font-weight:normal;font-stretch:normal;letter-spacing:normal;word-spacing:normal;text-anchor:start;fill:none;stroke:#000000;stroke-linecap:butt;stroke-linejoin:miter;stroke-miterlimit:10.43299961;stroke-opacity:1;stroke-dasharray:none;stroke-dashoffset:0"
           word-spacing="normal"
           letter-spacing="normal"
           font-size-adjust="none"
           font-stretch="normal"
           font-weight="normal"
           font-variant="normal"
           font-style="normal"
           stroke-miterlimit="10.433"
           xml:space="preserve"
           transform="matrix(22.279459,0,0,-22.279459,-3898.9052,12663.5)"
           id="g25579"><path
             inkscape:connector-curvature="0"
             style="fill:#000000;stroke-width:0"
             id="path25581"
             d="m 1168.1,337.48 0.1,0 0,0 0.1,0 0.1,0 0,0.01 0.1,0 0,0 0.1,0 0.1,0 0,0 0.1,0 0,0 0.1,0.01 0.1,0.01 0.1,0 0.1,0.01 0,0.02 0.1,0.01 0.1,0.01 0,0.02 0.1,0.02 0,0.03 0.1,0.02 0,0.03 0.1,0.03 0,0.04 0,0.04 0.1,0.04 0,0.05 0.1,0.05 0,0.05 0,0.06 0.1,0.06 0,0.07 0,0.07 0.1,0.08 0,0.08 0.1,0.08 27.2,56.9 c 0.4,0.65 0.4,0.75 0.4,0.9 0,0.55 -0.4,1 -1,1 -0.7,0 -0.9,-0.45 -1.1,-1 l -25.7,-53.61 -10.6,24.71 -7,-5.33 0.8,-0.8 3.5,2.69 z" /><polyline
             style="fill:#000000;fill-rule:nonzero;stroke-width:0"
             id="polyline25583"
             points="1197,395 1333.7,395 1333.7,397.04 1197,397.04 " /><path
             inkscape:connector-curvature="0"
             style="fill:#000000;stroke-width:0"
             id="path25585"
             d="m 1211.4,378.33 0,0.06 0,0.05 0,0.05 0,0.05 0,0.05 0,0.05 0,0.04 0,0.05 0,0.04 0,0.04 0,0.04 0,0.04 0,0.04 0,0.04 0,0.03 0,0.04 0,0.06 0,0.06 0,0.05 -0.1,0.05 0,0.05 0,0.04 0,0.04 0,0.04 -0.1,0.03 0,0.03 0,0.02 -0.1,0.02 0,0.02 0,0.01 -0.1,0.01 0,0 0,0.01 -0.1,0.01 0,0 0,0.01 0,0 -0.1,0.01 0,0 0,0 -0.1,0.01 0,0 -0.1,0 0,0 0,0.01 -0.1,0 0,0 -0.1,0 0,0 -0.1,0 0,0 c -3.1,-3.19 -7.5,-3.19 -9.1,-3.19 v -1.55 c 1,0 3.9,0 6.5,1.3 v -25.81 c 0,-1.8 -0.1,-2.39 -4.6,-2.39 h -1.6 v -1.55 c 1.7,0.16 6.1,0.16 8.1,0.16 2,0 6.3,0 8,-0.16 v 1.55 h -1.6 c -4.4,0 -4.6,0.55 -4.6,2.39 z" /><path
             inkscape:connector-curvature="0"
             style="fill:#000000;stroke-width:0"
             id="path25587"
             d="m 1265.5,357.89 0.1,0.01 0.2,0 0.1,0 0.1,0.01 0.1,0 0.1,0.01 0,0.01 0.1,0.01 0.1,0.01 0.1,0.01 0,0.02 0.1,0.02 0,0.02 0.1,0.02 0.1,0.03 0,0.03 0.1,0.04 0,0.04 0.1,0.04 0,0.05 0.1,0.05 0,0.02 0,0.03 0,0.03 0,0.03 0,0.03 0,0.04 0.1,0.03 0,0.03 0,0.04 0,0.04 0,0.04 0,0.04 0,0.04 0,0.04 0,0.05 0,0.04 c 0,1 -0.9,1 -1.7,1 h -27 c -0.8,0 -1.7,0 -1.7,-1 0,-1 0.9,-1 1.7,-1 z" /><path
             inkscape:connector-curvature="0"
             style="fill:#000000;stroke-width:0"
             id="path25589"
             d="m 1299.2,361.49 0,0.13 0.1,0.15 0,0.16 0,0.18 0.1,0.2 0.1,0.2 0,0.22 0.1,0.22 0.1,0.24 0.1,0.24 0.1,0.24 0.1,0.25 0.1,0.25 0.1,0.25 0.1,0.25 0.2,0.24 0.1,0.24 0.2,0.24 0.1,0.23 0.2,0.23 0.2,0.21 0.2,0.2 0.2,0.19 0.2,0.18 0.3,0.16 0.2,0.14 0.1,0.07 0.2,0.06 0.1,0.05 0.1,0.05 0.2,0.05 0.1,0.04 0.2,0.03 0.1,0.03 0.2,0.02 0.1,0.02 0.2,0.01 0.1,0 c 0.3,0 1.5,0 2.5,-0.64 -1.4,-0.25 -2.4,-1.5 -2.4,-2.68 0,-0.8 0.6,-1.75 1.9,-1.75 1.1,0 2.7,0.89 2.7,2.89 0,2.59 -2.9,3.28 -4.6,3.28 -2.9,0 -4.7,-2.64 -5.3,-3.78 -1.2,3.28 -3.9,3.78 -5.3,3.78 -5.2,0 -8.1,-6.42 -8.1,-7.67 0,-0.5 0.5,-0.5 0.6,-0.5 0.4,0 0.6,0.1 0.7,0.54 1.7,5.28 5,6.53 6.7,6.53 0.9,0 2.6,-0.43 2.6,-3.32 0,-1.55 -0.8,-4.9 -2.6,-11.86 -0.8,-3.1 -2.6,-5.19 -4.8,-5.19 -0.3,0 -1.4,0 -2.5,0.65 1.3,0.24 2.4,1.29 2.4,2.69 0,1.35 -1.1,1.74 -1.9,1.74 -1.5,0 -2.7,-1.3 -2.7,-2.89 0,-2.29 2.5,-3.29 4.7,-3.29 3.3,0 5.1,3.49 5.2,3.79 0.6,-1.85 2.4,-3.79 5.4,-3.79 5.1,0 8,6.43 8,7.68 0,0.5 -0.5,0.5 -0.6,0.5 -0.5,0 -0.6,-0.21 -0.7,-0.55 -1.6,-5.33 -5,-6.53 -6.6,-6.53 -2,0 -2.8,1.59 -2.8,3.3 0,1.09 0.3,2.18 0.9,4.37 z" /><path
             inkscape:connector-curvature="0"
             style="fill:#000000;stroke-width:0"
             id="path25591"
             d="m 1328.6,367.18 h -1.2 c -0.1,-0.76 -0.5,-2.82 -0.9,-3.17 -0.3,-0.2 -2.9,-0.2 -3.4,-0.2 h -6.5 c 3.7,3.23 4.9,4.2 7,5.84 2.6,2.06 5,4.22 5,7.53 0,4.22 -3.7,6.8 -8.2,6.8 -4.3,0 -7.2,-3.03 -7.2,-6.23 0,-1.79 1.5,-1.96 1.9,-1.96 0.8,0 1.8,0.6 1.8,1.85 0,0.62 -0.3,1.84 -2.1,1.84 1.1,2.47 3.5,3.23 5.1,3.23 3.5,0 5.3,-2.7 5.3,-5.53 0,-3.03 -2.1,-5.43 -3.3,-6.68 l -8.3,-8.3 c -0.4,-0.31 -0.4,-0.39 -0.4,-1.36 h 14.4 z" /></g>      </g>
      <path
         inkscape:connector-curvature="0"
         style="font-style:normal;font-variant:normal;font-weight:normal;font-stretch:normal;letter-spacing:normal;word-spacing:normal;text-anchor:start;fill:#000000;stroke:#000000;stroke-width:0;stroke-linecap:butt;stroke-linejoin:miter;stroke-miterlimit:10.43299961;stroke-opacity:1;stroke-dasharray:none;stroke-dashoffset:0"
         id="path25589-3"
         d="m 5506.8964,7995.5844 0,-0.1113 0.086,-0.1284 0,-0.137 0,-0.1541 0.086,-0.1712 0.086,-0.1712 0,-0.1884 0.086,-0.1883 0.086,-0.2055 0.086,-0.2054 0.086,-0.2055 0.086,-0.214 0.086,-0.2141 0.086,-0.214 0.086,-0.214 0.1713,-0.2055 0.086,-0.2055 0.1712,-0.2054 0.086,-0.1969 0.1712,-0.1969 0.1713,-0.1798 0.1712,-0.1712 0.1712,-0.1627 0.1712,-0.1541 0.2569,-0.137 0.1712,-0.1198 0.086,-0.06 0.1712,-0.051 0.086,-0.043 0.086,-0.043 0.1713,-0.043 0.086,-0.034 0.1712,-0.026 0.086,-0.026 0.1712,-0.017 0.086,-0.017 0.1713,-0.01 0.086,0 c 0.2568,0 1.2841,0 2.1403,0.5479 -1.1986,0.2141 -2.0547,1.2842 -2.0547,2.2944 0,0.6849 0.5136,1.4982 1.6266,1.4982 0.9417,0 2.3115,-0.7619 2.3115,-2.4741 0,-2.2174 -2.4827,-2.8081 -3.9381,-2.8081 -2.4827,0 -4.0237,2.2601 -4.5374,3.2361 -1.0273,-2.808 -3.3388,-3.2361 -4.5374,-3.2361 -4.4518,0 -6.9345,5.4963 -6.9345,6.5664 0,0.4281 0.428,0.4281 0.5136,0.4281 0.3425,0 0.5137,-0.086 0.5993,-0.4623 1.4554,-4.5203 4.2806,-5.5905 5.736,-5.5905 0.7705,0 2.2259,0.3682 2.2259,2.8423 0,1.327 -0.6849,4.195 -2.2259,10.1535 -0.6849,2.654 -2.2259,4.4433 -4.1094,4.4433 -0.2568,0 -1.1985,0 -2.1402,-0.5565 1.1129,-0.2055 2.0546,-1.1044 2.0546,-2.303 0,-1.1557 -0.9417,-1.4896 -1.6266,-1.4896 -1.2842,0 -2.3115,1.113 -2.3115,2.4742 0,1.9605 2.1403,2.8166 4.0237,2.8166 2.8252,0 4.3662,-2.9878 4.4518,-3.2447 0.5137,1.5838 2.0547,3.2447 4.623,3.2447 4.3662,0 6.849,-5.5048 6.849,-6.575 0,-0.428 -0.4281,-0.428 -0.5137,-0.428 -0.4281,0 -0.5137,0.1798 -0.5993,0.4708 -1.3698,4.5631 -4.2806,5.5905 -5.6503,5.5905 -1.7123,0 -2.3972,-1.3613 -2.3972,-2.8252 0,-0.9332 0.2569,-1.8663 0.7705,-3.7412 z" />
      <path
         inkscape:connector-curvature="0"
         style="font-style:normal;font-variant:normal;font-weight:normal;font-stretch:normal;letter-spacing:normal;word-spacing:normal;text-anchor:start;fill:#000000;stroke:#000000;stroke-width:0;stroke-linecap:butt;stroke-linejoin:miter;stroke-miterlimit:10.43299961;stroke-opacity:1;stroke-dasharray:none;stroke-dashoffset:0"
         id="path25585-1"
         d="m 5228.2237,7941.1926 0,-0.051 0,-0.043 0,-0.043 0,-0.043 0,-0.043 0,-0.043 0,-0.034 0,-0.043 0,-0.034 0,-0.034 0,-0.034 0,-0.034 0,-0.034 0,-0.034 0,-0.026 0,-0.034 0,-0.051 0,-0.051 0,-0.043 -0.086,-0.043 0,-0.043 0,-0.034 0,-0.034 0,-0.034 -0.086,-0.026 0,-0.026 0,-0.017 -0.086,-0.017 0,-0.017 0,-0.01 -0.086,-0.01 0,0 0,-0.01 -0.086,-0.01 0,0 0,-0.01 0,0 -0.086,-0.01 0,0 0,0 -0.086,-0.01 0,0 -0.086,0 0,0 0,-0.01 -0.086,0 0,0 -0.086,0 0,0 -0.086,0 0,0 c -2.6539,2.731 -6.4208,2.731 -7.7906,2.731 l 0,1.327 c 0.8561,0 3.3388,0 5.5647,-1.113 l 0,22.0963 c 0,1.541 -0.086,2.0461 -3.9381,2.0461 l -1.3698,0 0,1.327 c 1.4554,-0.137 5.2223,-0.137 6.9346,-0.137 1.7122,0 5.3935,0 6.8489,0.137 l 0,-1.327 -1.3698,0 c -3.7669,0 -3.9381,-0.4708 -3.9381,-2.0461 z" />
    </g>
  </g>
</svg>
