<?xml version="1.0" encoding="UTF-8" standalone="no"?>
<!-- Created with Inkscape (http://www.inkscape.org/) -->

<svg
   xmlns:dc="http://purl.org/dc/elements/1.1/"
   xmlns:cc="http://creativecommons.org/ns#"
   xmlns:rdf="http://www.w3.org/1999/02/22-rdf-syntax-ns#"
   xmlns:svg="http://www.w3.org/2000/svg"
   xmlns="http://www.w3.org/2000/svg"
   xmlns:sodipodi="http://sodipodi.sourceforge.net/DTD/sodipodi-0.dtd"
   xmlns:inkscape="http://www.inkscape.org/namespaces/inkscape"
   width="825.34155"
   height="300.11182"
   id="svg19651"
   version="1.1"
   inkscape:version="0.48.4 r9939"
   sodipodi:docname="New document 17">
  <defs
     id="defs19653" />
  <sodipodi:namedview
     id="base"
     pagecolor="#ffffff"
     bordercolor="#666666"
     borderopacity="1.0"
     inkscape:pageopacity="0.0"
     inkscape:pageshadow="2"
     inkscape:zoom="1.4"
     inkscape:cx="512.58533"
     inkscape:cy="116.12474"
     inkscape:document-units="px"
     inkscape:current-layer="layer1"
     showgrid="false"
     fit-margin-top="0"
     fit-margin-left="0"
     fit-margin-right="0"
     fit-margin-bottom="0"
     inkscape:window-width="1920"
     inkscape:window-height="1058"
     inkscape:window-x="1358"
     inkscape:window-y="-8"
     inkscape:window-maximized="1" />
  <metadata
     id="metadata19656">
    <rdf:RDF>
      <cc:Work
         rdf:about="">
        <dc:format>image/svg+xml</dc:format>
        <dc:type
           rdf:resource="http://purl.org/dc/dcmitype/StillImage" />
        <dc:title></dc:title>
      </cc:Work>
    </rdf:RDF>
  </metadata>
  <g
     inkscape:label="Layer 1"
     inkscape:groupmode="layer"
     id="layer1"
     transform="translate(-98.757837,-245.16346)">
    <g
       transform="translate(-2078.7346,-4504.463)"
       id="g18283"
       inkscape:export-filename="C:\Users\mscavers\Desktop\Math-249-Spring-2013\evt-false.png"
       inkscape:export-xdpi="300"
       inkscape:export-ydpi="300">
      <path
         inkscape:connector-curvature="0"
         style="color:#000000;fill:none;stroke:#d40000;stroke-width:3;stroke-linecap:butt;stroke-linejoin:miter;stroke-miterlimit:4;stroke-opacity:1;stroke-dasharray:none;stroke-dashoffset:0;marker:none;visibility:visible;display:inline;overflow:visible;enable-background:accumulate"
         d="m 2410.9303,4849.4138 -32,0"
         id="path17698-7" />
      <path
         inkscape:connector-curvature="0"
         style="color:#000000;fill:none;stroke:#d40000;stroke-width:3;stroke-linecap:butt;stroke-linejoin:miter;stroke-miterlimit:4;stroke-opacity:1;stroke-dasharray:none;stroke-dashoffset:0;marker:none;visibility:visible;display:inline;overflow:visible;enable-background:accumulate"
         d="m 2289.6162,4927.5377 -32,0"
         id="path17698" />
      <path
         inkscape:connector-curvature="0"
         style="color:#000000;fill:none;stroke:#d40000;stroke-width:2.35843062;stroke-linecap:butt;stroke-linejoin:miter;stroke-miterlimit:4;stroke-opacity:1;stroke-dasharray:none;stroke-dashoffset:0;marker:none;visibility:visible;display:inline;overflow:visible;enable-background:accumulate"
         d="m 2286.9641,4803.1269 c 51.4782,126.7652 74.8453,109.0174 94.1772,150.8914"
         id="path7662-1-4-20-4-4"
         sodipodi:nodetypes="cc" />
      <text
         sodipodi:linespacing="100%"
         id="text5373-1-9-9-4-6-2-3-8-3"
         y="5493.9297"
         x="1675.0355"
         style="font-size:29.27288818px;font-style:normal;font-variant:normal;font-weight:normal;font-stretch:normal;text-align:center;line-height:100%;writing-mode:lr-tb;text-anchor:middle;fill:#000000;fill-opacity:1;stroke:none;display:inline;font-family:Arial;-inkscape-font-specification:Arial"
         xml:space="preserve"
         transform="matrix(-0.72117523,0.88502704,0.63988302,0.60136039,0,0)"><tspan
           y="5493.9297"
           x="1675.0355"
           id="tspan5375-7-4-8-9-3-9-83-4-4"
           sodipodi:role="line"
           style="fill:#000000;stroke:none">→</tspan></text>
      <text
         sodipodi:linespacing="120%"
         id="text11560-6-1-7-92-1"
         y="4763.6011"
         x="2345.2585"
         style="font-size:20px;font-style:normal;font-variant:normal;font-weight:normal;font-stretch:normal;text-align:center;line-height:120.00000477%;writing-mode:lr-tb;text-anchor:middle;fill:#000000;fill-opacity:1;stroke:none;font-family:Cambria Math;-inkscape-font-specification:Cambria Math"
         xml:space="preserve"><tspan
           y="4763.6011"
           x="2345.2585"
           id="tspan11562-1-3-10-65-0"
           sodipodi:role="line">no absolute max</tspan></text>
      <text
         xml:space="preserve"
         style="font-size:29.76207542px;font-style:normal;font-variant:normal;font-weight:normal;font-stretch:normal;text-align:center;line-height:120.00000477%;writing-mode:lr-tb;text-anchor:middle;fill:#000000;fill-opacity:1;stroke:none;font-family:Cambria Math;-inkscape-font-specification:Cambria Math"
         x="2479.4387"
         y="5004.9346"
         id="text3006-2-2-3-9-5-8"
         sodipodi:linespacing="120%"><tspan
           sodipodi:role="line"
           id="tspan3008-6-6-1-7-7-5"
           x="2479.4387"
           y="5004.9346">x</tspan></text>
      <text
         xml:space="preserve"
         style="font-size:29.76207542px;font-style:normal;font-variant:normal;font-weight:normal;font-stretch:normal;text-align:center;line-height:120.00000477%;writing-mode:lr-tb;text-anchor:middle;fill:#000000;fill-opacity:1;stroke:none;font-family:Cambria Math;-inkscape-font-specification:Cambria Math"
         x="2184.7004"
         y="4777.8667"
         id="text3010-0-0-2-3-9-9"
         sodipodi:linespacing="120%"><tspan
           sodipodi:role="line"
           id="tspan3012-6-5-3-7-8-2"
           x="2184.7004"
           y="4777.8667">y</tspan></text>
      <g
         id="g3101-1-4-3-2-3-5"
         transform="translate(2040.4605,4688.327)">
        <path
           inkscape:connector-curvature="0"
           id="path3004-1-6-4-60-0-4"
           d="m 138,289.36218 308,0"
           style="color:#000000;fill:none;stroke:#000000;stroke-width:1.5;stroke-linecap:butt;stroke-linejoin:miter;stroke-miterlimit:4;stroke-opacity:1;stroke-dasharray:none;stroke-dashoffset:0;marker:none;visibility:visible;display:inline;overflow:visible;enable-background:accumulate" />
        <path
           inkscape:connector-curvature="0"
           id="path3014-17-79-1-16-2-1"
           d="m 186,280.36218 0,18"
           style="color:#000000;fill:none;stroke:#000000;stroke-width:1.5;stroke-linecap:butt;stroke-linejoin:miter;stroke-miterlimit:4;stroke-opacity:1;stroke-dasharray:none;stroke-dashoffset:0;marker:none;visibility:visible;display:inline;overflow:visible;enable-background:accumulate" />
        <path
           inkscape:connector-curvature="0"
           id="path3014-1-3-3-1-5-2-3"
           d="m 217.02044,280.36218 0,18"
           style="color:#000000;fill:none;stroke:#000000;stroke-width:1.5;stroke-linecap:butt;stroke-linejoin:miter;stroke-miterlimit:4;stroke-opacity:1;stroke-dasharray:none;stroke-dashoffset:0;marker:none;visibility:visible;display:inline;overflow:visible;enable-background:accumulate" />
        <path
           inkscape:connector-curvature="0"
           id="path3014-4-0-4-3-75-36-9"
           d="m 248.04089,280.36218 0,18"
           style="color:#000000;fill:none;stroke:#000000;stroke-width:1.5;stroke-linecap:butt;stroke-linejoin:miter;stroke-miterlimit:4;stroke-opacity:1;stroke-dasharray:none;stroke-dashoffset:0;marker:none;visibility:visible;display:inline;overflow:visible;enable-background:accumulate" />
        <path
           inkscape:connector-curvature="0"
           id="path3014-9-0-7-8-4-71-5"
           d="m 279.06134,280.36218 0,18"
           style="color:#000000;fill:none;stroke:#000000;stroke-width:1.5;stroke-linecap:butt;stroke-linejoin:miter;stroke-miterlimit:4;stroke-opacity:1;stroke-dasharray:none;stroke-dashoffset:0;marker:none;visibility:visible;display:inline;overflow:visible;enable-background:accumulate" />
        <path
           inkscape:connector-curvature="0"
           id="path3014-8-4-88-7-1-5-8"
           d="m 310.08179,280.36218 0,18"
           style="color:#000000;fill:none;stroke:#000000;stroke-width:1.5;stroke-linecap:butt;stroke-linejoin:miter;stroke-miterlimit:4;stroke-opacity:1;stroke-dasharray:none;stroke-dashoffset:0;marker:none;visibility:visible;display:inline;overflow:visible;enable-background:accumulate" />
        <path
           inkscape:connector-curvature="0"
           id="path3014-2-8-1-4-2-5-2"
           d="m 341.10223,280.36218 0,18"
           style="color:#000000;fill:none;stroke:#000000;stroke-width:1.5;stroke-linecap:butt;stroke-linejoin:miter;stroke-miterlimit:4;stroke-opacity:1;stroke-dasharray:none;stroke-dashoffset:0;marker:none;visibility:visible;display:inline;overflow:visible;enable-background:accumulate" />
        <path
           inkscape:connector-curvature="0"
           id="path3014-5-3-6-2-0-40-7"
           d="m 372.12268,280.36218 0,18"
           style="color:#000000;fill:none;stroke:#000000;stroke-width:1.5;stroke-linecap:butt;stroke-linejoin:miter;stroke-miterlimit:4;stroke-opacity:1;stroke-dasharray:none;stroke-dashoffset:0;marker:none;visibility:visible;display:inline;overflow:visible;enable-background:accumulate" />
        <path
           inkscape:connector-curvature="0"
           id="path3014-7-0-3-7-0-2-9"
           d="m 403.14313,280.36218 0,18"
           style="color:#000000;fill:none;stroke:#000000;stroke-width:1.5;stroke-linecap:butt;stroke-linejoin:miter;stroke-miterlimit:4;stroke-opacity:1;stroke-dasharray:none;stroke-dashoffset:0;marker:none;visibility:visible;display:inline;overflow:visible;enable-background:accumulate" />
        <path
           inkscape:connector-curvature="0"
           id="path3014-52-1-8-7-1-60-6"
           d="m 434.16357,280.36218 0,18"
           style="color:#000000;fill:none;stroke:#000000;stroke-width:1.5;stroke-linecap:butt;stroke-linejoin:miter;stroke-miterlimit:4;stroke-opacity:1;stroke-dasharray:none;stroke-dashoffset:0;marker:none;visibility:visible;display:inline;overflow:visible;enable-background:accumulate" />
      </g>
      <g
         transform="matrix(0,-1,1,0,1910.7355,5138.5024)"
         id="g3101-7-2-7-9-4-6-1">
        <path
           inkscape:connector-curvature="0"
           id="path3004-6-9-6-3-6-1-7"
           d="m 138,289.36218 220.35655,0"
           style="color:#000000;fill:none;stroke:#000000;stroke-width:1.5;stroke-linecap:butt;stroke-linejoin:miter;stroke-miterlimit:4;stroke-opacity:1;stroke-dasharray:none;stroke-dashoffset:0;marker:none;visibility:visible;display:inline;overflow:visible;enable-background:accumulate"
           sodipodi:nodetypes="cc" />
        <path
           inkscape:connector-curvature="0"
           id="path3014-14-03-1-1-07-1-7"
           d="m 186,280.36218 0,18"
           style="color:#000000;fill:none;stroke:#000000;stroke-width:1.5;stroke-linecap:butt;stroke-linejoin:miter;stroke-miterlimit:4;stroke-opacity:1;stroke-dasharray:none;stroke-dashoffset:0;marker:none;visibility:visible;display:inline;overflow:visible;enable-background:accumulate" />
        <path
           inkscape:connector-curvature="0"
           id="path3014-1-2-8-7-9-1-17-1"
           d="m 217.02044,280.36218 0,18"
           style="color:#000000;fill:none;stroke:#000000;stroke-width:1.5;stroke-linecap:butt;stroke-linejoin:miter;stroke-miterlimit:4;stroke-opacity:1;stroke-dasharray:none;stroke-dashoffset:0;marker:none;visibility:visible;display:inline;overflow:visible;enable-background:accumulate" />
        <path
           inkscape:connector-curvature="0"
           id="path3014-4-3-8-23-8-77-3-9"
           d="m 248.04089,280.36218 0,18"
           style="color:#000000;fill:none;stroke:#000000;stroke-width:1.5;stroke-linecap:butt;stroke-linejoin:miter;stroke-miterlimit:4;stroke-opacity:1;stroke-dasharray:none;stroke-dashoffset:0;marker:none;visibility:visible;display:inline;overflow:visible;enable-background:accumulate" />
        <path
           inkscape:connector-curvature="0"
           id="path3014-9-2-5-7-6-77-0-0"
           d="m 279.06134,280.36218 0,18"
           style="color:#000000;fill:none;stroke:#000000;stroke-width:1.5;stroke-linecap:butt;stroke-linejoin:miter;stroke-miterlimit:4;stroke-opacity:1;stroke-dasharray:none;stroke-dashoffset:0;marker:none;visibility:visible;display:inline;overflow:visible;enable-background:accumulate" />
        <path
           inkscape:connector-curvature="0"
           id="path3014-8-2-7-8-5-3-0-3"
           d="m 310.08179,280.36218 0,18"
           style="color:#000000;fill:none;stroke:#000000;stroke-width:1.5;stroke-linecap:butt;stroke-linejoin:miter;stroke-miterlimit:4;stroke-opacity:1;stroke-dasharray:none;stroke-dashoffset:0;marker:none;visibility:visible;display:inline;overflow:visible;enable-background:accumulate" />
        <path
           inkscape:connector-curvature="0"
           id="path3014-2-1-7-58-0-3-48-4"
           d="m 341.10223,280.36218 0,18"
           style="color:#000000;fill:none;stroke:#000000;stroke-width:1.5;stroke-linecap:butt;stroke-linejoin:miter;stroke-miterlimit:4;stroke-opacity:1;stroke-dasharray:none;stroke-dashoffset:0;marker:none;visibility:visible;display:inline;overflow:visible;enable-background:accumulate" />
      </g>
      <path
         sodipodi:type="arc"
         style="color:#000000;fill:#ffffff;fill-opacity:1;fill-rule:evenodd;stroke:#000000;stroke-width:1.5;stroke-linecap:butt;stroke-linejoin:miter;stroke-miterlimit:4;stroke-opacity:1;stroke-dasharray:none;stroke-dashoffset:0;marker:none;visibility:visible;display:inline;overflow:visible;enable-background:accumulate"
         id="path7508-5-2-5-3-1"
         sodipodi:cx="10938.761"
         sodipodi:cy="574.77148"
         sodipodi:rx="3.3342619"
         sodipodi:ry="3.3342619"
         d="m 10942.095,574.77148 c 0,1.84147 -1.493,3.33427 -3.334,3.33427 -1.842,0 -3.335,-1.4928 -3.335,-3.33427 0,-1.84146 1.493,-3.33426 3.335,-3.33426 1.841,0 3.334,1.4928 3.334,3.33426 z"
         transform="translate(-8651.6773,4228.3242)" />
      <path
         transform="translate(-8557.5531,4381.6199)"
         sodipodi:type="arc"
         style="color:#000000;fill:#ffffff;fill-opacity:1;fill-rule:evenodd;stroke:#000000;stroke-width:1.5;stroke-linecap:butt;stroke-linejoin:miter;stroke-miterlimit:4;stroke-opacity:1;stroke-dasharray:none;stroke-dashoffset:0;marker:none;visibility:visible;display:inline;overflow:visible;enable-background:accumulate"
         id="path7508-7-8-8-9-0-7"
         sodipodi:cx="10938.761"
         sodipodi:cy="574.77148"
         sodipodi:rx="3.3342619"
         sodipodi:ry="3.3342619"
         d="m 10942.095,574.77148 c 0,1.84147 -1.493,3.33427 -3.334,3.33427 -1.842,0 -3.335,-1.4928 -3.335,-3.33427 0,-1.84146 1.493,-3.33426 3.335,-3.33426 1.841,0 3.334,1.4928 3.334,3.33426 z" />
      <path
         inkscape:connector-curvature="0"
         id="path37082-2-5-0-8-7-5"
         d="m 2464.7002,4822.9397 2.449,0 c 0.5652,0 0.8506,0 0.8506,-0.5653 0,-0.3139 -0.2854,-0.3139 -0.7649,-0.3139 l -2.3634,0 0.5994,-3.2425 c 0.1084,-0.5994 0.508,-2.6147 0.6793,-2.9572 0.2569,-0.5366 0.7422,-0.9647 1.3359,-0.9647 0.1141,0 0.8563,0 1.3929,0.508 -1.2503,0.1142 -1.5356,1.1132 -1.5356,1.5357 0,0.6565 0.5137,0.999 1.056,0.999 0.7365,0 1.5642,-0.628 1.5642,-1.7069 0,-1.3074 -1.3073,-1.9638 -2.4775,-1.9638 -0.9649,0 -2.7574,0.5138 -3.608,3.3282 -0.1712,0.5993 -0.2568,0.8791 -0.9419,4.4642 l -1.9581,0 c -0.5423,0 -0.8563,0 -0.8563,0.5423 0,0.3369 0.2569,0.3369 0.7992,0.3369 l 1.8782,0 -2.1351,11.2347 c -0.5137,2.7572 -0.9933,5.349 -2.4718,5.349 -0.1142,0 -0.8278,0 -1.3701,-0.5138 1.3073,-0.085 1.5641,-1.1075 1.5641,-1.5357 0,-0.6564 -0.508,-0.9932 -1.0504,-0.9932 -0.7364,0 -1.5641,0.6222 -1.5641,1.7012 0,1.2845 1.2502,1.9637 2.4205,1.9637 1.5585,0 2.6945,-1.6783 3.2083,-2.7572 0.9133,-1.7925 1.5641,-5.2349 1.5927,-5.429 z"
         style="font-style:normal;font-variant:normal;font-weight:normal;font-stretch:normal;letter-spacing:normal;word-spacing:normal;text-anchor:start;fill:#d40000;stroke:#000000;stroke-width:0;stroke-linecap:butt;stroke-linejoin:miter;stroke-miterlimit:10.43299961;stroke-opacity:1;stroke-dasharray:none;stroke-dashoffset:0" />
      <path
         inkscape:connector-curvature="0"
         id="path37084-0-7-1-1-1-3"
         d="m 2480.8044,4841.1446 0,-0.017 0,-0.017 -0.01,-0.01 0,-0.011 0,-0.01 -0.01,-0.012 0,-0.011 -0.01,-0.01 -0.01,-0.011 -0.01,-0.012 -0.01,-0.017 -0.01,-0.011 -0.011,-0.011 -0.012,-0.017 -0.012,-0.018 -0.011,-0.017 -0.017,-0.017 -0.017,-0.023 -0.01,-0.012 -0.012,-0.011 -0.011,-0.012 -0.012,-0.011 -0.012,-0.012 -0.011,-0.017 -0.012,-0.012 -0.011,-0.011 -0.012,-0.017 -0.017,-0.012 -0.011,-0.017 -0.017,-0.017 -0.012,-0.017 -0.017,-0.017 -0.018,-0.018 -0.017,-0.017 -0.017,-0.017 -0.017,-0.017 -0.023,-0.023 -0.017,-0.017 -0.023,-0.023 -0.017,-0.017 -0.023,-0.023 -0.023,-0.023 c -3.5563,-3.5851 -4.464,-8.957 -4.464,-13.307 0,-4.9494 1.0846,-9.8989 4.5784,-13.4555 0.371,-0.3367 0.371,-0.3938 0.371,-0.4794 0,-0.1998 -0.1141,-0.2855 -0.2854,-0.2855 -0.2854,0 -2.8429,1.9352 -4.5213,5.5489 -1.45,3.1227 -1.7925,6.2795 -1.7925,8.6715 0,2.215 0.314,5.6573 1.8782,8.8713 1.7068,3.4937 4.1502,5.3434 4.4356,5.3434 0.1713,0 0.2854,-0.086 0.2854,-0.2798 z"
         style="font-style:normal;font-variant:normal;font-weight:normal;font-stretch:normal;letter-spacing:normal;word-spacing:normal;text-anchor:start;fill:#d40000;stroke:#000000;stroke-width:0;stroke-linecap:butt;stroke-linejoin:miter;stroke-miterlimit:10.43299961;stroke-opacity:1;stroke-dasharray:none;stroke-dashoffset:0" />
      <path
         inkscape:connector-curvature="0"
         id="path37086-0-7-6-8-9-3"
         d="m 2491.7138,4825.7312 0.057,-0.074 0,-0.086 0,-0.097 0.057,-0.1027 0,-0.1085 0.057,-0.1199 0.057,-0.1199 0,-0.1313 0.057,-0.1312 0.057,-0.1371 0.057,-0.1427 0.057,-0.137 0.057,-0.1427 0.057,-0.1427 0.1142,-0.1428 0.057,-0.1427 0.1142,-0.1369 0.057,-0.1371 0.1141,-0.1313 0.1142,-0.1256 0.057,-0.1256 0.1142,-0.1141 0.1142,-0.1085 0.1712,-0.1028 0.1143,-0.091 0.1141,-0.08 0.1142,-0.04 0.057,-0.034 0.057,-0.028 0.1142,-0.028 0.057,-0.028 0.057,-0.023 0.1141,-0.017 0.057,-0.017 0.1142,-0.011 0.057,-0.012 0.1143,-0.01 0.1141,0 c 0.1141,0 0.7992,0 1.4272,0.3711 -0.7992,0.1427 -1.3701,0.8506 -1.3701,1.5299 0,0.4567 0.2854,0.999 1.0846,0.999 0.628,0 1.5414,-0.5138 1.5414,-1.6498 0,-1.4786 -1.7126,-1.8782 -2.6831,-1.8782 -1.6555,0 -2.626,1.5072 -2.9685,2.1636 -0.7421,-1.8781 -2.2264,-2.1636 -3.0828,-2.1636 -2.9685,0 -4.5726,3.6707 -4.5726,4.3786 0,0.2854 0.2854,0.2854 0.3425,0.2854 0.2227,0 0.2912,-0.057 0.3483,-0.3082 0.9704,-3.0199 2.8543,-3.7278 3.8248,-3.7278 0.5709,0 1.5413,0.2569 1.5413,1.901 0,0.8848 -0.4567,2.7916 -1.5413,6.7706 -0.4567,1.7639 -1.4272,2.957 -2.6831,2.957 -0.1713,0 -0.8563,0 -1.4329,-0.371 0.6908,-0.1427 1.3188,-0.7364 1.3188,-1.5356 0,-0.7651 -0.628,-0.9934 -1.0276,-0.9934 -0.8621,0 -1.5699,0.7422 -1.5699,1.6498 0,1.3073 1.4157,1.8782 2.6545,1.8782 1.8839,0 2.9115,-1.9923 3.0256,-2.1636 0.3425,1.0561 1.3701,2.1636 3.0256,2.1636 2.9686,0 4.567,-3.6707 4.567,-4.3843 0,-0.2797 -0.2284,-0.2797 -0.3425,-0.2797 -0.2284,0 -0.2855,0.1141 -0.3425,0.3139 -0.9706,3.0428 -2.9115,3.7221 -3.8249,3.7221 -1.0846,0 -1.5414,-0.9076 -1.5414,-1.8782 0,-0.6222 0.1714,-1.2502 0.5139,-2.5003 z"
         style="font-style:normal;font-variant:normal;font-weight:normal;font-stretch:normal;letter-spacing:normal;word-spacing:normal;text-anchor:start;fill:#d40000;stroke:#000000;stroke-width:0;stroke-linecap:butt;stroke-linejoin:miter;stroke-miterlimit:10.43299961;stroke-opacity:1;stroke-dasharray:none;stroke-dashoffset:0" />
      <path
         inkscape:connector-curvature="0"
         id="path37088-1-0-5-2-1-2"
         d="m 2507.0131,4827.2097 0,-0.2112 0,-0.2226 0,-0.2227 0,-0.234 -0.057,-0.4796 0,-0.5024 -0.057,-0.5251 -0.057,-0.5366 -0.1142,-0.5595 -0.057,-0.5709 -0.1143,-0.5822 -0.1141,-0.5938 -0.1712,-0.5994 -0.1714,-0.6051 -0.2283,-0.6051 -0.2283,-0.6109 -0.1142,-0.3026 -0.1142,-0.3082 -0.1142,-0.3025 -0.1712,-0.3026 c -1.7126,-3.4937 -4.1674,-5.3434 -4.4528,-5.3434 -0.1712,0 -0.2855,0.1142 -0.2855,0.2855 0,0.085 0,0.1427 0.5709,0.6564 2.7973,2.8088 4.3957,7.3357 4.3957,13.2785 0,4.8639 -1.0276,9.8646 -4.5669,13.4498 -0.3997,0.3425 -0.3997,0.3938 -0.3997,0.4851 0,0.1657 0.1143,0.2798 0.2855,0.2798 0.2854,0 2.8543,-1.9295 4.567,-5.5432 1.4272,-3.1283 1.7697,-6.2852 1.7697,-8.6715 z"
         style="font-style:normal;font-variant:normal;font-weight:normal;font-stretch:normal;letter-spacing:normal;word-spacing:normal;text-anchor:start;fill:#d40000;stroke:#000000;stroke-width:0;stroke-linecap:butt;stroke-linejoin:miter;stroke-miterlimit:10.43299961;stroke-opacity:1;stroke-dasharray:none;stroke-dashoffset:0" />
      <text
         sodipodi:linespacing="120%"
         id="text9174-6-6-4"
         y="5008.4243"
         x="2258.5474"
         style="font-size:22.20314407px;font-style:normal;font-variant:normal;font-weight:normal;font-stretch:normal;text-align:center;line-height:120.00000477%;writing-mode:lr-tb;text-anchor:middle;fill:#000000;fill-opacity:1;stroke:none;font-family:Cambria Math;-inkscape-font-specification:Cambria Math"
         xml:space="preserve"><tspan
           y="5008.4243"
           x="2258.5474"
           id="tspan9176-60-2-1"
           sodipodi:role="line">a</tspan></text>
      <text
         sodipodi:linespacing="120%"
         id="text9178-3-72-2"
         y="5008.4243"
         x="2411.9761"
         style="font-size:22.20314407px;font-style:normal;font-variant:normal;font-weight:normal;font-stretch:normal;text-align:center;line-height:120.00000477%;writing-mode:lr-tb;text-anchor:middle;fill:#000000;fill-opacity:1;stroke:none;font-family:Cambria Math;-inkscape-font-specification:Cambria Math"
         xml:space="preserve"><tspan
           y="5008.4243"
           x="2411.9761"
           id="tspan9180-8-7-9"
           sodipodi:role="line">b</tspan></text>
      <text
         sodipodi:linespacing="100%"
         id="text5373-1-9-9-4-6-2-3-4-65-0"
         y="5925.6333"
         x="1262.868"
         style="font-size:29.27288818px;font-style:normal;font-variant:normal;font-weight:normal;font-stretch:normal;text-align:center;line-height:100%;writing-mode:lr-tb;text-anchor:middle;fill:#000000;fill-opacity:1;stroke:none;display:inline;font-family:Arial;-inkscape-font-specification:Arial"
         xml:space="preserve"
         transform="matrix(-0.80478878,0.80974165,0.5775819,0.66142558,0,0)"><tspan
           y="5925.6333"
           x="1262.868"
           id="tspan5375-7-4-8-9-3-9-83-9-1-8"
           sodipodi:role="line"
           style="fill:#000000;stroke:none">→</tspan></text>
      <text
         sodipodi:linespacing="120%"
         id="text11560-6-1-7-9-8-2-7"
         y="4917.2573"
         x="2485.5461"
         style="font-size:20px;font-style:normal;font-variant:normal;font-weight:normal;font-stretch:normal;text-align:center;line-height:120.00000477%;writing-mode:lr-tb;text-anchor:middle;fill:#000000;fill-opacity:1;stroke:none;font-family:Cambria Math;-inkscape-font-specification:Cambria Math"
         xml:space="preserve"><tspan
           id="tspan14760-4-5"
           y="4917.2573"
           x="2485.5461"
           sodipodi:role="line">no absolute min</tspan></text>
      <path
         sodipodi:type="arc"
         style="color:#000000;fill:#d40000;fill-opacity:1;fill-rule:evenodd;stroke:#000000;stroke-width:1.5;stroke-linecap:butt;stroke-linejoin:miter;stroke-miterlimit:4;stroke-opacity:1;stroke-dasharray:none;stroke-dashoffset:0;marker:none;visibility:visible;display:inline;overflow:visible;enable-background:accumulate"
         id="path7508-5-2-5-3-1-6"
         sodipodi:cx="10938.761"
         sodipodi:cy="574.77148"
         sodipodi:rx="3.3342619"
         sodipodi:ry="3.3342619"
         d="m 10942.095,574.77148 c 0,1.84147 -1.493,3.33427 -3.334,3.33427 -1.842,0 -3.335,-1.4928 -3.335,-3.33427 0,-1.84146 1.493,-3.33426 3.335,-3.33426 1.841,0 3.334,1.4928 3.334,3.33426 z"
         transform="translate(-8681.7606,4352.2662)" />
      <path
         sodipodi:type="arc"
         style="color:#000000;fill:#d40000;fill-opacity:1;fill-rule:evenodd;stroke:#000000;stroke-width:1.5;stroke-linecap:butt;stroke-linejoin:miter;stroke-miterlimit:4;stroke-opacity:1;stroke-dasharray:none;stroke-dashoffset:0;marker:none;visibility:visible;display:inline;overflow:visible;enable-background:accumulate"
         id="path7508-5-2-5-3-1-6-8"
         sodipodi:cx="10938.761"
         sodipodi:cy="574.77148"
         sodipodi:rx="3.3342619"
         sodipodi:ry="3.3342619"
         d="m 10942.095,574.77148 c 0,1.84147 -1.493,3.33427 -3.334,3.33427 -1.842,0 -3.335,-1.4928 -3.335,-3.33427 0,-1.84146 1.493,-3.33426 3.335,-3.33426 1.841,0 3.334,1.4928 3.334,3.33426 z"
         transform="translate(-8526.7606,4274.5053)" />
      <path
         sodipodi:type="arc"
         style="color:#000000;fill:#d40000;fill-opacity:1;fill-rule:evenodd;stroke:#000000;stroke-width:1.5;stroke-linecap:butt;stroke-linejoin:miter;stroke-miterlimit:4;stroke-opacity:1;stroke-dasharray:none;stroke-dashoffset:0;marker:none;visibility:visible;display:inline;overflow:visible;enable-background:accumulate"
         id="path7508-5-2-5-3-1-6-4"
         sodipodi:cx="10938.761"
         sodipodi:cy="574.77148"
         sodipodi:rx="3.3342619"
         sodipodi:ry="3.3342619"
         d="m 10942.095,574.77148 c 0,1.84147 -1.493,3.33427 -3.334,3.33427 -1.842,0 -3.335,-1.4928 -3.335,-3.33427 0,-1.84146 1.493,-3.33426 3.335,-3.33426 1.841,0 3.334,1.4928 3.334,3.33426 z"
         transform="translate(-8651.4874,4352.4241)" />
      <path
         sodipodi:type="arc"
         style="color:#000000;fill:#d40000;fill-opacity:1;fill-rule:evenodd;stroke:#000000;stroke-width:1.5;stroke-linecap:butt;stroke-linejoin:miter;stroke-miterlimit:4;stroke-opacity:1;stroke-dasharray:none;stroke-dashoffset:0;marker:none;visibility:visible;display:inline;overflow:visible;enable-background:accumulate"
         id="path7508-5-2-5-3-1-6-3"
         sodipodi:cx="10938.761"
         sodipodi:cy="574.77148"
         sodipodi:rx="3.3342619"
         sodipodi:ry="3.3342619"
         d="m 10942.095,574.77148 c 0,1.84147 -1.493,3.33427 -3.334,3.33427 -1.842,0 -3.335,-1.4928 -3.335,-3.33427 0,-1.84146 1.493,-3.33426 3.335,-3.33426 1.841,0 3.334,1.4928 3.334,3.33426 z"
         transform="translate(-8557.5527,4274.5634)" />
      <text
         sodipodi:linespacing="120%"
         id="text11560-6-1-7-92-1-3"
         y="5045.2656"
         x="2350.4531"
         style="font-size:20px;font-style:normal;font-variant:normal;font-weight:normal;font-stretch:normal;text-align:center;line-height:120.00000477%;writing-mode:lr-tb;text-anchor:middle;fill:#000000;fill-opacity:1;stroke:none;font-family:Cambria Math;-inkscape-font-specification:Cambria Math"
         xml:space="preserve"><tspan
           y="5045.2656"
           x="2350.4531"
           id="tspan11562-1-3-10-65-0-0"
           sodipodi:role="line"><tspan
   id="tspan18281"
   style="fill:#008000">not continuous</tspan> on [a, b]</tspan></text>
      <path
         inkscape:connector-curvature="0"
         style="color:#000000;fill:none;stroke:#d40000;stroke-width:2.35843062;stroke-linecap:butt;stroke-linejoin:miter;stroke-miterlimit:4;stroke-opacity:1;stroke-dasharray:none;stroke-dashoffset:0;marker:none;visibility:visible;display:inline;overflow:visible;enable-background:accumulate"
         d="m 2701.5081,4783.5853 c -8.3547,251.266 122.8707,76.1497 149.1772,171.3914"
         id="path7662-1-4-20-4-4-0"
         sodipodi:nodetypes="cc" />
      <text
         sodipodi:linespacing="100%"
         id="text5373-1-9-9-4-6-2-3-8-3-4"
         y="5757.502"
         x="-2261.6331"
         style="font-size:29.27288818px;font-style:normal;font-variant:normal;font-weight:normal;font-stretch:normal;text-align:center;line-height:100%;writing-mode:lr-tb;text-anchor:middle;fill:#000000;fill-opacity:1;stroke:none;display:inline;font-family:Arial;-inkscape-font-specification:Arial"
         xml:space="preserve"
         transform="matrix(-1.1357565,0.11586073,0.02723961,0.87769165,0,0)"><tspan
           y="5757.502"
           x="-2261.6331"
           id="tspan5375-7-4-8-9-3-9-83-4-4-2"
           sodipodi:role="line"
           style="fill:#000000;stroke:none">→</tspan></text>
      <text
         sodipodi:linespacing="120%"
         id="text11560-6-1-7-92-1-9"
         y="4781.0596"
         x="2821.8022"
         style="font-size:20px;font-style:normal;font-variant:normal;font-weight:normal;font-stretch:normal;text-align:center;line-height:120.00000477%;writing-mode:lr-tb;text-anchor:middle;fill:#000000;fill-opacity:1;stroke:none;font-family:Cambria Math;-inkscape-font-specification:Cambria Math"
         xml:space="preserve"><tspan
           y="4781.0596"
           x="2821.8022"
           id="tspan11562-1-3-10-65-0-3"
           sodipodi:role="line">no absolute max</tspan></text>
      <text
         xml:space="preserve"
         style="font-size:29.76207542px;font-style:normal;font-variant:normal;font-weight:normal;font-stretch:normal;text-align:center;line-height:120.00000477%;writing-mode:lr-tb;text-anchor:middle;fill:#000000;fill-opacity:1;stroke:none;font-family:Cambria Math;-inkscape-font-specification:Cambria Math"
         x="2918.4824"
         y="5005.8931"
         id="text3006-2-2-3-9-5-8-1"
         sodipodi:linespacing="120%"><tspan
           sodipodi:role="line"
           id="tspan3008-6-6-1-7-7-5-4"
           x="2918.4824"
           y="5005.8931">x</tspan></text>
      <text
         xml:space="preserve"
         style="font-size:29.76207542px;font-style:normal;font-variant:normal;font-weight:normal;font-stretch:normal;text-align:center;line-height:120.00000477%;writing-mode:lr-tb;text-anchor:middle;fill:#000000;fill-opacity:1;stroke:none;font-family:Cambria Math;-inkscape-font-specification:Cambria Math"
         x="2623.7441"
         y="4778.8252"
         id="text3010-0-0-2-3-9-9-8"
         sodipodi:linespacing="120%"><tspan
           sodipodi:role="line"
           id="tspan3012-6-5-3-7-8-2-2"
           x="2623.7441"
           y="4778.8252">y</tspan></text>
      <g
         id="g3101-1-4-3-2-3-5-0"
         transform="translate(2479.5045,4689.2854)">
        <path
           inkscape:connector-curvature="0"
           id="path3004-1-6-4-60-0-4-5"
           d="m 138,289.36218 308,0"
           style="color:#000000;fill:none;stroke:#000000;stroke-width:1.5;stroke-linecap:butt;stroke-linejoin:miter;stroke-miterlimit:4;stroke-opacity:1;stroke-dasharray:none;stroke-dashoffset:0;marker:none;visibility:visible;display:inline;overflow:visible;enable-background:accumulate" />
        <path
           inkscape:connector-curvature="0"
           id="path3014-17-79-1-16-2-1-5"
           d="m 186,280.36218 0,18"
           style="color:#000000;fill:none;stroke:#000000;stroke-width:1.5;stroke-linecap:butt;stroke-linejoin:miter;stroke-miterlimit:4;stroke-opacity:1;stroke-dasharray:none;stroke-dashoffset:0;marker:none;visibility:visible;display:inline;overflow:visible;enable-background:accumulate" />
        <path
           inkscape:connector-curvature="0"
           id="path3014-1-3-3-1-5-2-3-9"
           d="m 217.02044,280.36218 0,18"
           style="color:#000000;fill:none;stroke:#000000;stroke-width:1.5;stroke-linecap:butt;stroke-linejoin:miter;stroke-miterlimit:4;stroke-opacity:1;stroke-dasharray:none;stroke-dashoffset:0;marker:none;visibility:visible;display:inline;overflow:visible;enable-background:accumulate" />
        <path
           inkscape:connector-curvature="0"
           id="path3014-4-0-4-3-75-36-9-3"
           d="m 248.04089,280.36218 0,18"
           style="color:#000000;fill:none;stroke:#000000;stroke-width:1.5;stroke-linecap:butt;stroke-linejoin:miter;stroke-miterlimit:4;stroke-opacity:1;stroke-dasharray:none;stroke-dashoffset:0;marker:none;visibility:visible;display:inline;overflow:visible;enable-background:accumulate" />
        <path
           inkscape:connector-curvature="0"
           id="path3014-9-0-7-8-4-71-5-2"
           d="m 279.06134,280.36218 0,18"
           style="color:#000000;fill:none;stroke:#000000;stroke-width:1.5;stroke-linecap:butt;stroke-linejoin:miter;stroke-miterlimit:4;stroke-opacity:1;stroke-dasharray:none;stroke-dashoffset:0;marker:none;visibility:visible;display:inline;overflow:visible;enable-background:accumulate" />
        <path
           inkscape:connector-curvature="0"
           id="path3014-8-4-88-7-1-5-8-8"
           d="m 310.08179,280.36218 0,18"
           style="color:#000000;fill:none;stroke:#000000;stroke-width:1.5;stroke-linecap:butt;stroke-linejoin:miter;stroke-miterlimit:4;stroke-opacity:1;stroke-dasharray:none;stroke-dashoffset:0;marker:none;visibility:visible;display:inline;overflow:visible;enable-background:accumulate" />
        <path
           inkscape:connector-curvature="0"
           id="path3014-2-8-1-4-2-5-2-7"
           d="m 341.10223,280.36218 0,18"
           style="color:#000000;fill:none;stroke:#000000;stroke-width:1.5;stroke-linecap:butt;stroke-linejoin:miter;stroke-miterlimit:4;stroke-opacity:1;stroke-dasharray:none;stroke-dashoffset:0;marker:none;visibility:visible;display:inline;overflow:visible;enable-background:accumulate" />
        <path
           inkscape:connector-curvature="0"
           id="path3014-5-3-6-2-0-40-7-4"
           d="m 372.12268,280.36218 0,18"
           style="color:#000000;fill:none;stroke:#000000;stroke-width:1.5;stroke-linecap:butt;stroke-linejoin:miter;stroke-miterlimit:4;stroke-opacity:1;stroke-dasharray:none;stroke-dashoffset:0;marker:none;visibility:visible;display:inline;overflow:visible;enable-background:accumulate" />
        <path
           inkscape:connector-curvature="0"
           id="path3014-7-0-3-7-0-2-9-8"
           d="m 403.14313,280.36218 0,18"
           style="color:#000000;fill:none;stroke:#000000;stroke-width:1.5;stroke-linecap:butt;stroke-linejoin:miter;stroke-miterlimit:4;stroke-opacity:1;stroke-dasharray:none;stroke-dashoffset:0;marker:none;visibility:visible;display:inline;overflow:visible;enable-background:accumulate" />
        <path
           inkscape:connector-curvature="0"
           id="path3014-52-1-8-7-1-60-6-1"
           d="m 434.16357,280.36218 0,18"
           style="color:#000000;fill:none;stroke:#000000;stroke-width:1.5;stroke-linecap:butt;stroke-linejoin:miter;stroke-miterlimit:4;stroke-opacity:1;stroke-dasharray:none;stroke-dashoffset:0;marker:none;visibility:visible;display:inline;overflow:visible;enable-background:accumulate" />
      </g>
      <g
         transform="matrix(0,-1,1,0,2349.7795,5139.4608)"
         id="g3101-7-2-7-9-4-6-1-4">
        <path
           inkscape:connector-curvature="0"
           id="path3004-6-9-6-3-6-1-7-3"
           d="m 138,289.36218 220.35655,0"
           style="color:#000000;fill:none;stroke:#000000;stroke-width:1.5;stroke-linecap:butt;stroke-linejoin:miter;stroke-miterlimit:4;stroke-opacity:1;stroke-dasharray:none;stroke-dashoffset:0;marker:none;visibility:visible;display:inline;overflow:visible;enable-background:accumulate"
           sodipodi:nodetypes="cc" />
        <path
           inkscape:connector-curvature="0"
           id="path3014-14-03-1-1-07-1-7-5"
           d="m 186,280.36218 0,18"
           style="color:#000000;fill:none;stroke:#000000;stroke-width:1.5;stroke-linecap:butt;stroke-linejoin:miter;stroke-miterlimit:4;stroke-opacity:1;stroke-dasharray:none;stroke-dashoffset:0;marker:none;visibility:visible;display:inline;overflow:visible;enable-background:accumulate" />
        <path
           inkscape:connector-curvature="0"
           id="path3014-1-2-8-7-9-1-17-1-5"
           d="m 217.02044,280.36218 0,18"
           style="color:#000000;fill:none;stroke:#000000;stroke-width:1.5;stroke-linecap:butt;stroke-linejoin:miter;stroke-miterlimit:4;stroke-opacity:1;stroke-dasharray:none;stroke-dashoffset:0;marker:none;visibility:visible;display:inline;overflow:visible;enable-background:accumulate" />
        <path
           inkscape:connector-curvature="0"
           id="path3014-4-3-8-23-8-77-3-9-2"
           d="m 248.04089,280.36218 0,18"
           style="color:#000000;fill:none;stroke:#000000;stroke-width:1.5;stroke-linecap:butt;stroke-linejoin:miter;stroke-miterlimit:4;stroke-opacity:1;stroke-dasharray:none;stroke-dashoffset:0;marker:none;visibility:visible;display:inline;overflow:visible;enable-background:accumulate" />
        <path
           inkscape:connector-curvature="0"
           id="path3014-9-2-5-7-6-77-0-0-6"
           d="m 279.06134,280.36218 0,18"
           style="color:#000000;fill:none;stroke:#000000;stroke-width:1.5;stroke-linecap:butt;stroke-linejoin:miter;stroke-miterlimit:4;stroke-opacity:1;stroke-dasharray:none;stroke-dashoffset:0;marker:none;visibility:visible;display:inline;overflow:visible;enable-background:accumulate" />
        <path
           inkscape:connector-curvature="0"
           id="path3014-8-2-7-8-5-3-0-3-8"
           d="m 310.08179,280.36218 0,18"
           style="color:#000000;fill:none;stroke:#000000;stroke-width:1.5;stroke-linecap:butt;stroke-linejoin:miter;stroke-miterlimit:4;stroke-opacity:1;stroke-dasharray:none;stroke-dashoffset:0;marker:none;visibility:visible;display:inline;overflow:visible;enable-background:accumulate" />
        <path
           inkscape:connector-curvature="0"
           id="path3014-2-1-7-58-0-3-48-4-9"
           d="m 341.10223,280.36218 0,18"
           style="color:#000000;fill:none;stroke:#000000;stroke-width:1.5;stroke-linecap:butt;stroke-linejoin:miter;stroke-miterlimit:4;stroke-opacity:1;stroke-dasharray:none;stroke-dashoffset:0;marker:none;visibility:visible;display:inline;overflow:visible;enable-background:accumulate" />
      </g>
      <path
         transform="translate(-8088.0098,4382.5783)"
         sodipodi:type="arc"
         style="color:#000000;fill:#ffffff;fill-opacity:1;fill-rule:evenodd;stroke:#000000;stroke-width:1.5;stroke-linecap:butt;stroke-linejoin:miter;stroke-miterlimit:4;stroke-opacity:1;stroke-dasharray:none;stroke-dashoffset:0;marker:none;visibility:visible;display:inline;overflow:visible;enable-background:accumulate"
         id="path7508-7-8-8-9-0-7-9"
         sodipodi:cx="10938.761"
         sodipodi:cy="574.77148"
         sodipodi:rx="3.3342619"
         sodipodi:ry="3.3342619"
         d="m 10942.095,574.77148 c 0,1.84147 -1.493,3.33427 -3.334,3.33427 -1.842,0 -3.335,-1.4928 -3.335,-3.33427 0,-1.84146 1.493,-3.33426 3.335,-3.33426 1.841,0 3.334,1.4928 3.334,3.33426 z" />
      <path
         inkscape:connector-curvature="0"
         id="path37082-2-5-0-8-7-5-5"
         d="m 2776.7442,4850.3981 2.449,0 c 0.5652,0 0.8506,0 0.8506,-0.5653 0,-0.3139 -0.2854,-0.3139 -0.7649,-0.3139 l -2.3634,0 0.5994,-3.2425 c 0.1084,-0.5994 0.508,-2.6147 0.6793,-2.9572 0.2569,-0.5366 0.7422,-0.9647 1.3359,-0.9647 0.1141,0 0.8563,0 1.3929,0.508 -1.2503,0.1142 -1.5356,1.1132 -1.5356,1.5357 0,0.6565 0.5137,0.999 1.056,0.999 0.7365,0 1.5642,-0.628 1.5642,-1.7069 0,-1.3074 -1.3073,-1.9638 -2.4775,-1.9638 -0.9649,0 -2.7574,0.5138 -3.608,3.3282 -0.1712,0.5993 -0.2568,0.8791 -0.9419,4.4642 l -1.9581,0 c -0.5423,0 -0.8563,0 -0.8563,0.5423 0,0.3369 0.2569,0.3369 0.7992,0.3369 l 1.8782,0 -2.1351,11.2347 c -0.5137,2.7572 -0.9933,5.349 -2.4718,5.349 -0.1142,0 -0.8278,0 -1.3701,-0.5138 1.3073,-0.085 1.5641,-1.1075 1.5641,-1.5357 0,-0.6564 -0.508,-0.9932 -1.0504,-0.9932 -0.7364,0 -1.5641,0.6222 -1.5641,1.7012 0,1.2845 1.2502,1.9637 2.4205,1.9637 1.5585,0 2.6945,-1.6783 3.2083,-2.7572 0.9133,-1.7925 1.5641,-5.2349 1.5927,-5.429 z"
         style="font-style:normal;font-variant:normal;font-weight:normal;font-stretch:normal;letter-spacing:normal;word-spacing:normal;text-anchor:start;fill:#d40000;stroke:#000000;stroke-width:0;stroke-linecap:butt;stroke-linejoin:miter;stroke-miterlimit:10.43299961;stroke-opacity:1;stroke-dasharray:none;stroke-dashoffset:0" />
      <path
         inkscape:connector-curvature="0"
         id="path37084-0-7-1-1-1-3-9"
         d="m 2792.8484,4868.603 0,-0.017 0,-0.017 -0.01,-0.01 0,-0.011 0,-0.01 -0.01,-0.012 0,-0.011 -0.01,-0.01 -0.01,-0.011 -0.01,-0.012 -0.01,-0.017 -0.01,-0.011 -0.011,-0.011 -0.012,-0.017 -0.012,-0.018 -0.011,-0.017 -0.017,-0.017 -0.017,-0.023 -0.01,-0.012 -0.012,-0.011 -0.011,-0.012 -0.012,-0.011 -0.012,-0.012 -0.011,-0.017 -0.012,-0.012 -0.011,-0.011 -0.012,-0.017 -0.017,-0.012 -0.011,-0.017 -0.017,-0.017 -0.012,-0.017 -0.017,-0.017 -0.018,-0.018 -0.017,-0.017 -0.017,-0.017 -0.017,-0.017 -0.023,-0.023 -0.017,-0.017 -0.023,-0.023 -0.017,-0.017 -0.023,-0.023 -0.023,-0.023 c -3.5563,-3.5851 -4.464,-8.957 -4.464,-13.307 0,-4.9494 1.0846,-9.8989 4.5784,-13.4555 0.371,-0.3367 0.371,-0.3938 0.371,-0.4794 0,-0.1998 -0.1141,-0.2855 -0.2854,-0.2855 -0.2854,0 -2.8429,1.9352 -4.5213,5.5489 -1.45,3.1227 -1.7925,6.2795 -1.7925,8.6715 0,2.215 0.314,5.6573 1.8782,8.8713 1.7068,3.4937 4.1502,5.3434 4.4356,5.3434 0.1713,0 0.2854,-0.086 0.2854,-0.2798 z"
         style="font-style:normal;font-variant:normal;font-weight:normal;font-stretch:normal;letter-spacing:normal;word-spacing:normal;text-anchor:start;fill:#d40000;stroke:#000000;stroke-width:0;stroke-linecap:butt;stroke-linejoin:miter;stroke-miterlimit:10.43299961;stroke-opacity:1;stroke-dasharray:none;stroke-dashoffset:0" />
      <path
         inkscape:connector-curvature="0"
         id="path37086-0-7-6-8-9-3-4"
         d="m 2803.7578,4853.1896 0.057,-0.074 0,-0.086 0,-0.097 0.057,-0.1027 0,-0.1085 0.057,-0.1199 0.057,-0.1199 0,-0.1313 0.057,-0.1312 0.057,-0.1371 0.057,-0.1427 0.057,-0.137 0.057,-0.1427 0.057,-0.1427 0.1142,-0.1428 0.057,-0.1427 0.1142,-0.1369 0.057,-0.1371 0.1141,-0.1313 0.1142,-0.1256 0.057,-0.1256 0.1142,-0.1141 0.1142,-0.1085 0.1712,-0.1028 0.1143,-0.091 0.1141,-0.08 0.1142,-0.04 0.057,-0.034 0.057,-0.028 0.1142,-0.028 0.057,-0.028 0.057,-0.023 0.1141,-0.017 0.057,-0.017 0.1142,-0.011 0.057,-0.012 0.1143,-0.01 0.1141,0 c 0.1141,0 0.7992,0 1.4272,0.3711 -0.7992,0.1427 -1.3701,0.8506 -1.3701,1.5299 0,0.4567 0.2854,0.999 1.0846,0.999 0.628,0 1.5414,-0.5138 1.5414,-1.6498 0,-1.4786 -1.7126,-1.8782 -2.6831,-1.8782 -1.6555,0 -2.626,1.5072 -2.9685,2.1636 -0.7421,-1.8781 -2.2264,-2.1636 -3.0828,-2.1636 -2.9685,0 -4.5726,3.6707 -4.5726,4.3786 0,0.2854 0.2854,0.2854 0.3425,0.2854 0.2227,0 0.2912,-0.057 0.3483,-0.3082 0.9704,-3.0199 2.8543,-3.7278 3.8248,-3.7278 0.5709,0 1.5413,0.2569 1.5413,1.901 0,0.8848 -0.4567,2.7916 -1.5413,6.7706 -0.4567,1.7639 -1.4272,2.957 -2.6831,2.957 -0.1713,0 -0.8563,0 -1.4329,-0.371 0.6908,-0.1427 1.3188,-0.7364 1.3188,-1.5356 0,-0.7651 -0.628,-0.9934 -1.0276,-0.9934 -0.8621,0 -1.5699,0.7422 -1.5699,1.6498 0,1.3073 1.4157,1.8782 2.6545,1.8782 1.8839,0 2.9115,-1.9923 3.0256,-2.1636 0.3425,1.0561 1.3701,2.1636 3.0256,2.1636 2.9686,0 4.567,-3.6707 4.567,-4.3843 0,-0.2797 -0.2284,-0.2797 -0.3425,-0.2797 -0.2284,0 -0.2855,0.1141 -0.3425,0.3139 -0.9706,3.0428 -2.9115,3.7221 -3.8249,3.7221 -1.0846,0 -1.5414,-0.9076 -1.5414,-1.8782 0,-0.6222 0.1714,-1.2502 0.5139,-2.5003 z"
         style="font-style:normal;font-variant:normal;font-weight:normal;font-stretch:normal;letter-spacing:normal;word-spacing:normal;text-anchor:start;fill:#d40000;stroke:#000000;stroke-width:0;stroke-linecap:butt;stroke-linejoin:miter;stroke-miterlimit:10.43299961;stroke-opacity:1;stroke-dasharray:none;stroke-dashoffset:0" />
      <path
         inkscape:connector-curvature="0"
         id="path37088-1-0-5-2-1-2-5"
         d="m 2819.0571,4854.6681 0,-0.2112 0,-0.2226 0,-0.2227 0,-0.234 -0.057,-0.4796 0,-0.5024 -0.057,-0.5251 -0.057,-0.5366 -0.1142,-0.5595 -0.057,-0.5709 -0.1143,-0.5822 -0.1141,-0.5938 -0.1712,-0.5994 -0.1714,-0.6051 -0.2283,-0.6051 -0.2283,-0.6109 -0.1142,-0.3026 -0.1142,-0.3082 -0.1142,-0.3025 -0.1712,-0.3026 c -1.7126,-3.4937 -4.1674,-5.3434 -4.4528,-5.3434 -0.1712,0 -0.2855,0.1142 -0.2855,0.2855 0,0.085 0,0.1427 0.5709,0.6564 2.7973,2.8088 4.3957,7.3357 4.3957,13.2785 0,4.8639 -1.0276,9.8646 -4.5669,13.4498 -0.3997,0.3425 -0.3997,0.3938 -0.3997,0.4851 0,0.1657 0.1143,0.2798 0.2855,0.2798 0.2854,0 2.8543,-1.9295 4.567,-5.5432 1.4272,-3.1283 1.7697,-6.2852 1.7697,-8.6715 z"
         style="font-style:normal;font-variant:normal;font-weight:normal;font-stretch:normal;letter-spacing:normal;word-spacing:normal;text-anchor:start;fill:#d40000;stroke:#000000;stroke-width:0;stroke-linecap:butt;stroke-linejoin:miter;stroke-miterlimit:10.43299961;stroke-opacity:1;stroke-dasharray:none;stroke-dashoffset:0" />
      <text
         sodipodi:linespacing="120%"
         id="text9174-6-6-4-0"
         y="5009.3828"
         x="2697.5911"
         style="font-size:22.20314407px;font-style:normal;font-variant:normal;font-weight:normal;font-stretch:normal;text-align:center;line-height:120.00000477%;writing-mode:lr-tb;text-anchor:middle;fill:#000000;fill-opacity:1;stroke:none;font-family:Cambria Math;-inkscape-font-specification:Cambria Math"
         xml:space="preserve"><tspan
           y="5009.3828"
           x="2697.5911"
           id="tspan9176-60-2-1-5"
           sodipodi:role="line">a</tspan></text>
      <text
         sodipodi:linespacing="120%"
         id="text9178-3-72-2-8"
         y="5009.3828"
         x="2851.0198"
         style="font-size:22.20314407px;font-style:normal;font-variant:normal;font-weight:normal;font-stretch:normal;text-align:center;line-height:120.00000477%;writing-mode:lr-tb;text-anchor:middle;fill:#000000;fill-opacity:1;stroke:none;font-family:Cambria Math;-inkscape-font-specification:Cambria Math"
         xml:space="preserve"><tspan
           y="5009.3828"
           x="2851.0198"
           id="tspan9180-8-7-9-8"
           sodipodi:role="line">b</tspan></text>
      <text
         sodipodi:linespacing="100%"
         id="text5373-1-9-9-4-6-2-3-4-65-0-0"
         y="6304.5898"
         x="954.50677"
         style="font-size:29.27288818px;font-style:normal;font-variant:normal;font-weight:normal;font-stretch:normal;text-align:center;line-height:100%;writing-mode:lr-tb;text-anchor:middle;fill:#000000;fill-opacity:1;stroke:none;display:inline;font-family:Arial;-inkscape-font-specification:Arial"
         xml:space="preserve"
         transform="matrix(-0.80478878,0.80974165,0.5775819,0.66142558,0,0)"><tspan
           y="6304.5898"
           x="954.50677"
           id="tspan5375-7-4-8-9-3-9-83-9-1-8-1"
           sodipodi:role="line"
           style="fill:#000000;stroke:none">→</tspan></text>
      <text
         sodipodi:linespacing="120%"
         id="text11560-6-1-7-9-8-2-7-3"
         y="4915.7158"
         x="2935.0898"
         style="font-size:20px;font-style:normal;font-variant:normal;font-weight:normal;font-stretch:normal;text-align:center;line-height:120.00000477%;writing-mode:lr-tb;text-anchor:middle;fill:#000000;fill-opacity:1;stroke:none;font-family:Cambria Math;-inkscape-font-specification:Cambria Math"
         xml:space="preserve"><tspan
           id="tspan14760-4-5-2"
           y="4915.7158"
           x="2935.0898"
           sodipodi:role="line">no absolute min</tspan></text>
      <text
         sodipodi:linespacing="120%"
         id="text11560-6-1-7-92-1-3-3"
         y="5045.2754"
         x="2786.6685"
         style="font-size:20px;font-style:normal;font-variant:normal;font-weight:normal;font-stretch:normal;text-align:center;line-height:120.00000477%;writing-mode:lr-tb;text-anchor:middle;fill:#000000;fill-opacity:1;stroke:none;font-family:Cambria Math;-inkscape-font-specification:Cambria Math"
         xml:space="preserve"><tspan
           y="5045.2754"
           x="2786.6685"
           id="tspan11562-1-3-10-65-0-0-1"
           sodipodi:role="line">continuous on <tspan
   id="tspan18279"
   style="fill:#008000">open interval</tspan> (a, b)</tspan></text>
      <path
         inkscape:connector-curvature="0"
         sodipodi:nodetypes="cc"
         id="path10153-2-3"
         d="m 2696.5072,4987.452 0,-222.957"
         style="color:#000000;fill:none;stroke:#000000;stroke-width:1.86809099;stroke-linecap:butt;stroke-linejoin:miter;stroke-miterlimit:4;stroke-opacity:1;stroke-dasharray:7.47236381, 14.94472762;stroke-dashoffset:0;marker:none;visibility:visible;display:inline;overflow:visible;enable-background:accumulate" />
      <path
         inkscape:connector-curvature="0"
         id="path11503-3"
         d="m 2694.9969,4791.6283 6.6078,-7.5747 6.4795,8.1599"
         style="color:#000000;fill:none;stroke:#d40000;stroke-width:3;stroke-linecap:butt;stroke-linejoin:miter;stroke-miterlimit:4;stroke-opacity:1;stroke-dasharray:none;stroke-dashoffset:0;marker:none;visibility:visible;display:inline;overflow:visible;enable-background:accumulate" />
    </g>
  </g>
</svg>
