<?xml version="1.0" encoding="UTF-8" standalone="no"?>
<!-- Created with Inkscape (http://www.inkscape.org/) -->

<svg
   xmlns:dc="http://purl.org/dc/elements/1.1/"
   xmlns:cc="http://creativecommons.org/ns#"
   xmlns:rdf="http://www.w3.org/1999/02/22-rdf-syntax-ns#"
   xmlns:svg="http://www.w3.org/2000/svg"
   xmlns="http://www.w3.org/2000/svg"
   xmlns:sodipodi="http://sodipodi.sourceforge.net/DTD/sodipodi-0.dtd"
   xmlns:inkscape="http://www.inkscape.org/namespaces/inkscape"
   width="585.82825"
   height="578.91205"
   id="svg18671"
   version="1.1"
   inkscape:version="0.48.4 r9939"
   sodipodi:docname="New document 11">
  <defs
     id="defs18673" />
  <sodipodi:namedview
     id="base"
     pagecolor="#ffffff"
     bordercolor="#666666"
     borderopacity="1.0"
     inkscape:pageopacity="0.0"
     inkscape:pageshadow="2"
     inkscape:zoom="0.98994949"
     inkscape:cx="574.90746"
     inkscape:cy="272.88615"
     inkscape:document-units="px"
     inkscape:current-layer="layer1"
     showgrid="false"
     fit-margin-top="0"
     fit-margin-left="0"
     fit-margin-right="0"
     fit-margin-bottom="0"
     inkscape:window-width="1920"
     inkscape:window-height="1058"
     inkscape:window-x="1358"
     inkscape:window-y="-8"
     inkscape:window-maximized="1" />
  <metadata
     id="metadata18676">
    <rdf:RDF>
      <cc:Work
         rdf:about="">
        <dc:format>image/svg+xml</dc:format>
        <dc:type
           rdf:resource="http://purl.org/dc/dcmitype/StillImage" />
        <dc:title></dc:title>
      </cc:Work>
    </rdf:RDF>
  </metadata>
  <g
     inkscape:label="Layer 1"
     inkscape:groupmode="layer"
     id="layer1"
     transform="translate(12.6223,-164.61423)">
    <g
       id="g56445"
       transform="translate(1213.6277,-4432.2686)"
       inkscape:export-filename="C:\Users\mscavers\Desktop\Math 251 (Fall 2011)\Lecture Notes\Lectures 24-25\diff3.png"
       inkscape:export-xdpi="222"
       inkscape:export-ydpi="222">
      <path
         inkscape:connector-curvature="0"
         id="path54696-5"
         d="m -1052.8638,4691.2414 0,461.4076"
         style="color:#000000;fill:none;stroke:#666666;stroke-width:3;stroke-linecap:butt;stroke-linejoin:miter;stroke-miterlimit:4;stroke-opacity:1;stroke-dasharray:9, 9;stroke-dashoffset:0;marker:none;visibility:visible;display:inline;overflow:visible;enable-background:accumulate" />
      <path
         inkscape:connector-curvature="0"
         id="path54696-5-9"
         d="m -906.36381,4684.7414 0,461.4076"
         style="color:#000000;fill:none;stroke:#666666;stroke-width:3;stroke-linecap:butt;stroke-linejoin:miter;stroke-miterlimit:4;stroke-opacity:1;stroke-dasharray:9, 9;stroke-dashoffset:0;marker:none;visibility:visible;display:inline;overflow:visible;enable-background:accumulate" />
      <g
         id="g11011-1-7-5"
         transform="translate(-4759.2445,3328.6612)">
        <g
           id="g11187-3-4-8">
          <path
             inkscape:connector-curvature="0"
             transform="matrix(1.6092642,0,0,1.6092642,1056.125,-318.2319)"
             style="color:#000000;fill:none;stroke:#d40000;stroke-width:3.97006464;stroke-linecap:butt;stroke-linejoin:miter;stroke-miterlimit:4;stroke-opacity:1;stroke-dasharray:none;stroke-dashoffset:0;marker:none;visibility:visible;display:inline;overflow:visible;enable-background:accumulate"
             d="m 1840.9453,1061.2746 c -202.9023,60.2309 -228.6479,122.3139 -275.2439,283.7309"
             id="path3636-7-8-6-0-6"
             sodipodi:nodetypes="cs" />
          <g
             id="g7510-3-0-38-7-9-1"
             transform="matrix(1.5172703,0,0,1.5172703,3338.9339,1298.8244)">
            <text
               xml:space="preserve"
               style="font-size:29.76207542px;font-style:normal;font-variant:normal;font-weight:normal;font-stretch:normal;text-align:center;line-height:120.00000477%;writing-mode:lr-tb;text-anchor:middle;fill:#000000;fill-opacity:1;stroke:none;font-family:Cambria Math;-inkscape-font-specification:Cambria Math"
               x="473.63474"
               y="342.74945"
               id="text3006-2-0-2-26-8-4-2"
               sodipodi:linespacing="120%"><tspan
                 sodipodi:role="line"
                 id="tspan3008-6-7-5-2-9-8-4"
                 x="473.63474"
                 y="342.74945">x</tspan></text>
            <text
               xml:space="preserve"
               style="font-size:29.76207542px;font-style:normal;font-variant:normal;font-weight:normal;font-stretch:normal;text-align:center;line-height:120.00000477%;writing-mode:lr-tb;text-anchor:middle;fill:#000000;fill-opacity:1;stroke:none;font-family:Cambria Math;-inkscape-font-specification:Cambria Math"
               x="151.1377"
               y="38.59462"
               id="text3010-0-4-6-7-5-8-2"
               sodipodi:linespacing="120%"><tspan
                 sodipodi:role="line"
                 id="tspan3012-6-7-07-5-5-2-5"
                 x="151.1377"
                 y="38.59462">y</tspan></text>
            <g
               id="g3101-1-8-2-7-5-4-8"
               transform="translate(5.6568543,45.254834)">
              <path
                 inkscape:connector-curvature="0"
                 id="path3004-1-3-0-82-6-5-6"
                 d="m 138,289.36218 308,0"
                 style="color:#000000;fill:none;stroke:#000000;stroke-width:1.5;stroke-linecap:butt;stroke-linejoin:miter;stroke-miterlimit:4;stroke-opacity:1;stroke-dasharray:none;stroke-dashoffset:0;marker:none;visibility:visible;display:inline;overflow:visible;enable-background:accumulate" />
              <path
                 inkscape:connector-curvature="0"
                 id="path3014-17-7-9-7-6-5-2"
                 d="m 186,280.36218 0,18"
                 style="color:#000000;fill:none;stroke:#000000;stroke-width:1.5;stroke-linecap:butt;stroke-linejoin:miter;stroke-miterlimit:4;stroke-opacity:1;stroke-dasharray:none;stroke-dashoffset:0;marker:none;visibility:visible;display:inline;overflow:visible;enable-background:accumulate" />
              <path
                 inkscape:connector-curvature="0"
                 id="path3014-1-3-1-5-8-3-1-6"
                 d="m 217.02044,280.36218 0,18"
                 style="color:#000000;fill:none;stroke:#000000;stroke-width:1.5;stroke-linecap:butt;stroke-linejoin:miter;stroke-miterlimit:4;stroke-opacity:1;stroke-dasharray:none;stroke-dashoffset:0;marker:none;visibility:visible;display:inline;overflow:visible;enable-background:accumulate" />
              <path
                 inkscape:connector-curvature="0"
                 id="path3014-4-0-0-4-02-0-7-5"
                 d="m 248.04089,280.36218 0,18"
                 style="color:#000000;fill:none;stroke:#000000;stroke-width:1.5;stroke-linecap:butt;stroke-linejoin:miter;stroke-miterlimit:4;stroke-opacity:1;stroke-dasharray:none;stroke-dashoffset:0;marker:none;visibility:visible;display:inline;overflow:visible;enable-background:accumulate" />
              <path
                 inkscape:connector-curvature="0"
                 id="path3014-9-0-0-3-0-0-1-3"
                 d="m 279.06134,280.36218 0,18"
                 style="color:#000000;fill:none;stroke:#000000;stroke-width:1.5;stroke-linecap:butt;stroke-linejoin:miter;stroke-miterlimit:4;stroke-opacity:1;stroke-dasharray:none;stroke-dashoffset:0;marker:none;visibility:visible;display:inline;overflow:visible;enable-background:accumulate" />
              <path
                 inkscape:connector-curvature="0"
                 id="path3014-8-4-8-2-8-88-1-9"
                 d="m 310.08179,280.36218 0,18"
                 style="color:#000000;fill:none;stroke:#000000;stroke-width:1.5;stroke-linecap:butt;stroke-linejoin:miter;stroke-miterlimit:4;stroke-opacity:1;stroke-dasharray:none;stroke-dashoffset:0;marker:none;visibility:visible;display:inline;overflow:visible;enable-background:accumulate" />
              <path
                 inkscape:connector-curvature="0"
                 id="path3014-2-8-3-56-9-2-5-2"
                 d="m 341.10223,280.36218 0,18"
                 style="color:#000000;fill:none;stroke:#000000;stroke-width:1.5;stroke-linecap:butt;stroke-linejoin:miter;stroke-miterlimit:4;stroke-opacity:1;stroke-dasharray:none;stroke-dashoffset:0;marker:none;visibility:visible;display:inline;overflow:visible;enable-background:accumulate" />
              <path
                 inkscape:connector-curvature="0"
                 id="path3014-5-3-4-0-28-3-2-4"
                 d="m 372.12268,280.36218 0,18"
                 style="color:#000000;fill:none;stroke:#000000;stroke-width:1.5;stroke-linecap:butt;stroke-linejoin:miter;stroke-miterlimit:4;stroke-opacity:1;stroke-dasharray:none;stroke-dashoffset:0;marker:none;visibility:visible;display:inline;overflow:visible;enable-background:accumulate" />
              <path
                 inkscape:connector-curvature="0"
                 id="path3014-7-0-5-8-2-0-7-6"
                 d="m 403.14313,280.36218 0,18"
                 style="color:#000000;fill:none;stroke:#000000;stroke-width:1.5;stroke-linecap:butt;stroke-linejoin:miter;stroke-miterlimit:4;stroke-opacity:1;stroke-dasharray:none;stroke-dashoffset:0;marker:none;visibility:visible;display:inline;overflow:visible;enable-background:accumulate" />
              <path
                 inkscape:connector-curvature="0"
                 id="path3014-52-1-0-8-05-6-6-1"
                 d="m 434.16357,280.36218 0,18"
                 style="color:#000000;fill:none;stroke:#000000;stroke-width:1.5;stroke-linecap:butt;stroke-linejoin:miter;stroke-miterlimit:4;stroke-opacity:1;stroke-dasharray:none;stroke-dashoffset:0;marker:none;visibility:visible;display:inline;overflow:visible;enable-background:accumulate" />
            </g>
            <g
               transform="matrix(0,-1,1,0,-124.06858,495.43026)"
               id="g3101-7-2-1-1-5-5-1-8">
              <path
                 inkscape:connector-curvature="0"
                 id="path3004-6-9-4-5-2-0-4-2"
                 d="m 138,289.36218 308,0"
                 style="color:#000000;fill:none;stroke:#000000;stroke-width:1.5;stroke-linecap:butt;stroke-linejoin:miter;stroke-miterlimit:4;stroke-opacity:1;stroke-dasharray:none;stroke-dashoffset:0;marker:none;visibility:visible;display:inline;overflow:visible;enable-background:accumulate" />
              <path
                 inkscape:connector-curvature="0"
                 id="path3014-14-03-5-7-7-9-2-1"
                 d="m 186,280.36218 0,18"
                 style="color:#000000;fill:none;stroke:#000000;stroke-width:1.5;stroke-linecap:butt;stroke-linejoin:miter;stroke-miterlimit:4;stroke-opacity:1;stroke-dasharray:none;stroke-dashoffset:0;marker:none;visibility:visible;display:inline;overflow:visible;enable-background:accumulate" />
              <path
                 inkscape:connector-curvature="0"
                 id="path3014-1-2-8-6-5-67-7-3-1"
                 d="m 217.02044,280.36218 0,18"
                 style="color:#000000;fill:none;stroke:#000000;stroke-width:1.5;stroke-linecap:butt;stroke-linejoin:miter;stroke-miterlimit:4;stroke-opacity:1;stroke-dasharray:none;stroke-dashoffset:0;marker:none;visibility:visible;display:inline;overflow:visible;enable-background:accumulate" />
              <path
                 inkscape:connector-curvature="0"
                 id="path3014-4-3-8-2-7-8-2-2-9"
                 d="m 248.04089,280.36218 0,18"
                 style="color:#000000;fill:none;stroke:#000000;stroke-width:1.5;stroke-linecap:butt;stroke-linejoin:miter;stroke-miterlimit:4;stroke-opacity:1;stroke-dasharray:none;stroke-dashoffset:0;marker:none;visibility:visible;display:inline;overflow:visible;enable-background:accumulate" />
              <path
                 inkscape:connector-curvature="0"
                 id="path3014-9-2-5-0-9-7-2-2-7"
                 d="m 279.06134,280.36218 0,18"
                 style="color:#000000;fill:none;stroke:#000000;stroke-width:1.5;stroke-linecap:butt;stroke-linejoin:miter;stroke-miterlimit:4;stroke-opacity:1;stroke-dasharray:none;stroke-dashoffset:0;marker:none;visibility:visible;display:inline;overflow:visible;enable-background:accumulate" />
              <path
                 inkscape:connector-curvature="0"
                 id="path3014-8-2-7-3-23-8-8-1-6"
                 d="m 310.08179,280.36218 0,18"
                 style="color:#000000;fill:none;stroke:#000000;stroke-width:1.5;stroke-linecap:butt;stroke-linejoin:miter;stroke-miterlimit:4;stroke-opacity:1;stroke-dasharray:none;stroke-dashoffset:0;marker:none;visibility:visible;display:inline;overflow:visible;enable-background:accumulate" />
              <path
                 inkscape:connector-curvature="0"
                 id="path3014-2-1-7-5-7-1-2-6-2"
                 d="m 341.10223,280.36218 0,18"
                 style="color:#000000;fill:none;stroke:#000000;stroke-width:1.5;stroke-linecap:butt;stroke-linejoin:miter;stroke-miterlimit:4;stroke-opacity:1;stroke-dasharray:none;stroke-dashoffset:0;marker:none;visibility:visible;display:inline;overflow:visible;enable-background:accumulate" />
              <path
                 inkscape:connector-curvature="0"
                 id="path3014-5-6-0-6-2-6-9-8-9"
                 d="m 372.12268,280.36218 0,18"
                 style="color:#000000;fill:none;stroke:#000000;stroke-width:1.5;stroke-linecap:butt;stroke-linejoin:miter;stroke-miterlimit:4;stroke-opacity:1;stroke-dasharray:none;stroke-dashoffset:0;marker:none;visibility:visible;display:inline;overflow:visible;enable-background:accumulate" />
              <path
                 inkscape:connector-curvature="0"
                 id="path3014-7-8-8-6-7-0-44-5-5"
                 d="m 403.14313,280.36218 0,18"
                 style="color:#000000;fill:none;stroke:#000000;stroke-width:1.5;stroke-linecap:butt;stroke-linejoin:miter;stroke-miterlimit:4;stroke-opacity:1;stroke-dasharray:none;stroke-dashoffset:0;marker:none;visibility:visible;display:inline;overflow:visible;enable-background:accumulate" />
              <path
                 inkscape:connector-curvature="0"
                 id="path3014-52-5-9-6-9-9-8-7-2"
                 d="m 434.16357,280.36218 0,18"
                 style="color:#000000;fill:none;stroke:#000000;stroke-width:1.5;stroke-linecap:butt;stroke-linejoin:miter;stroke-miterlimit:4;stroke-opacity:1;stroke-dasharray:none;stroke-dashoffset:0;marker:none;visibility:visible;display:inline;overflow:visible;enable-background:accumulate" />
            </g>
          </g>
        </g>
      </g>
      <path
         inkscape:connector-curvature="0"
         style="color:#000000;fill:none;stroke:#0044aa;stroke-width:5;stroke-linecap:butt;stroke-linejoin:miter;stroke-miterlimit:4;stroke-opacity:1;stroke-dasharray:none;stroke-dashoffset:0;marker:none;visibility:visible;display:inline;overflow:visible;enable-background:accumulate"
         d="m -1224.3337,5081.9443 390.99999,-465"
         id="path12773-9-3"
         sodipodi:nodetypes="cc" />
      <text
         transform="matrix(0.65711596,-0.7537895,0.7537895,0.65711596,0,0)"
         sodipodi:linespacing="120%"
         id="text3006-2-0-2-26-0-0-4-1-8-5-2-9"
         y="2390.1323"
         x="-4143.0122"
         style="font-size:40.40597916px;font-style:normal;font-variant:normal;font-weight:normal;font-stretch:normal;text-align:center;line-height:120.00000477%;writing-mode:lr-tb;text-anchor:middle;fill:#0044aa;fill-opacity:1;stroke:none;font-family:Cambria Math;-inkscape-font-specification:Cambria Math"
         xml:space="preserve"><tspan
           y="2390.1323"
           x="-4143.0122"
           id="tspan3008-6-7-5-2-0-3-0-2-8-8-7-1"
           sodipodi:role="line">Tangent Line</tspan></text>
      <path
         sodipodi:type="arc"
         style="color:#000000;fill:#ffd42a;fill-opacity:1;fill-rule:evenodd;stroke:#000000;stroke-width:1.5;stroke-linecap:butt;stroke-linejoin:miter;stroke-miterlimit:4;stroke-opacity:1;stroke-dasharray:none;stroke-dashoffset:0;marker:none;visibility:visible;display:inline;overflow:visible;enable-background:accumulate"
         id="path11254-4-2-8-8"
         sodipodi:cx="8076.5"
         sodipodi:cy="4489.1211"
         sodipodi:rx="7.5"
         sodipodi:ry="7.5"
         d="m 8084,4489.1211 c 0,4.1421 -3.3579,7.5 -7.5,7.5 -4.1421,0 -7.5,-3.3579 -7.5,-7.5 0,-4.1421 3.3579,-7.5 7.5,-7.5 4.1421,0 7.5,3.3579 7.5,7.5 z"
         transform="translate(-9129.5327,391.43925)" />
      <path
         sodipodi:type="arc"
         style="color:#000000;fill:#d40000;fill-opacity:1;fill-rule:evenodd;stroke:#000000;stroke-width:1.5;stroke-linecap:butt;stroke-linejoin:miter;stroke-miterlimit:4;stroke-opacity:1;stroke-dasharray:none;stroke-dashoffset:0;marker:none;visibility:visible;display:inline;overflow:visible;enable-background:accumulate"
         id="path11254-4-2-8-8-5"
         sodipodi:cx="8076.5"
         sodipodi:cy="4489.1211"
         sodipodi:rx="7.5"
         sodipodi:ry="7.5"
         d="m 8084,4489.1211 c 0,4.1421 -3.3579,7.5 -7.5,7.5 -4.1421,0 -7.5,-3.3579 -7.5,-7.5 0,-4.1421 3.3579,-7.5 7.5,-7.5 4.1421,0 7.5,3.3579 7.5,7.5 z"
         transform="translate(-8982.5207,289.58195)" />
      <path
         sodipodi:type="arc"
         style="color:#000000;fill:#0066ff;fill-opacity:1;fill-rule:evenodd;stroke:#000000;stroke-width:1.5;stroke-linecap:butt;stroke-linejoin:miter;stroke-miterlimit:4;stroke-opacity:1;stroke-dasharray:none;stroke-dashoffset:0;marker:none;visibility:visible;display:inline;overflow:visible;enable-background:accumulate"
         id="path11254-4-2-8-8-2"
         sodipodi:cx="8076.5"
         sodipodi:cy="4489.1211"
         sodipodi:rx="7.5"
         sodipodi:ry="7.5"
         d="m 8084,4489.1211 c 0,4.1421 -3.3579,7.5 -7.5,7.5 -4.1421,0 -7.5,-3.3579 -7.5,-7.5 0,-4.1421 3.3579,-7.5 7.5,-7.5 4.1421,0 7.5,3.3579 7.5,7.5 z"
         transform="translate(-8982.5207,213.92165)" />
      <text
         sodipodi:linespacing="120%"
         id="text10184-1"
         y="4717.9409"
         x="-675.6427"
         style="font-size:48.8702774px;font-style:normal;font-variant:normal;font-weight:normal;font-stretch:normal;text-align:center;line-height:120.00000477%;writing-mode:lr-tb;text-anchor:middle;fill:#d40000;fill-opacity:1;stroke:none;font-family:Cambria Math;-inkscape-font-specification:Cambria Math"
         xml:space="preserve"><tspan
           y="4717.9409"
           x="-675.6427"
           id="tspan10186-9"
           sodipodi:role="line">f(x)</tspan></text>
      <g
         style="font-style:normal;font-variant:normal;font-weight:normal;font-stretch:normal;letter-spacing:normal;word-spacing:normal;text-anchor:start;fill:none;stroke:#000000;stroke-linecap:butt;stroke-linejoin:miter;stroke-miterlimit:10.43299961;stroke-opacity:1;stroke-dasharray:none;stroke-dashoffset:0"
         word-spacing="normal"
         letter-spacing="normal"
         font-size-adjust="none"
         font-stretch="normal"
         font-weight="normal"
         font-variant="normal"
         font-style="normal"
         stroke-miterlimit="10.433"
         xml:space="preserve"
         transform="matrix(0.69608494,0,0,-0.69608494,-1842.4662,5177.0267)"
         id="g17689"><path
           inkscape:connector-curvature="0"
           style="fill:#000000;stroke-width:0"
           id="path17691"
           d="m 1170.7,380.02 0,0.01 0,0 0,0.01 0,0.01 0,0.01 0,0.01 0,0.02 0,0.02 0,0.02 0,0.02 0,0.02 0,0.02 0,0.03 0,0.02 -0.1,0.03 0,0.02 0,0.02 0,0.03 0,0.02 0,0.03 -0.1,0.02 0,0.01 0,0.01 0,0.01 0,0.01 0,0.01 0,0.01 -0.1,0.01 0,0.01 0,0.01 0,0.01 0,0.01 0,0 -0.1,0.01 0,0.01 0,0 0,0.01 -0.1,0 0,0.01 0,0 0,0 -0.1,0.01 0,0 0,0 0,0 c -0.8,0 -5.5,-0.45 -6.4,-0.55 -0.4,-0.05 -0.7,-0.3 -0.7,-0.95 0,-0.59 0.5,-0.59 1.2,-0.59 2.4,0 2.5,-0.35 2.5,-0.85 l -0.1,-0.99 -3,-11.81 c -0.9,1.84 -2.4,3.19 -4.6,3.19 l 0.1,-1.1 c 3.2,0 3.9,-4.08 3.9,-4.38 0,-0.3 -0.1,-0.6 -0.2,-0.85 l -2.5,-9.76 c -0.2,-0.9 -0.2,-1 -1,-1.84 -2.1,-2.75 -4.2,-3.54 -5.6,-3.54 -2.5,0 -3.2,2.74 -3.2,4.68 0,2.49 1.6,8.62 2.8,10.91 1.5,2.94 3.8,4.78 5.8,4.78 l -0.1,1.1 c -5.8,0 -12,-7.32 -12,-14.6 0,-4.68 2.7,-7.97 6.6,-7.97 1,0 3.5,0.2 6.5,3.74 0.4,-2.09 2.1,-3.74 4.5,-3.74 1.8,0 2.9,1.15 3.7,2.74 0.9,1.79 1.5,4.83 1.5,4.94 0,0.49 -0.4,0.49 -0.6,0.49 -0.5,0 -0.5,-0.2 -0.7,-0.89 -0.8,-3.24 -1.7,-6.18 -3.8,-6.18 -1.3,0 -1.5,1.29 -1.5,2.29 0,1.2 0.1,1.54 0.3,2.39 z" /><path
           inkscape:connector-curvature="0"
           style="fill:#000000;stroke-width:0"
           id="path17693"
           d="m 1187.6,361.04 0.1,0.13 0,0.15 0,0.17 0.1,0.18 0,0.19 0.1,0.21 0.1,0.21 0,0.23 0.1,0.23 0.1,0.24 0.1,0.25 0.1,0.24 0.1,0.25 0.1,0.25 0.2,0.25 0.1,0.25 0.2,0.24 0.1,0.24 0.2,0.23 0.2,0.22 0.1,0.22 0.2,0.2 0.2,0.19 0.3,0.18 0.2,0.16 0.2,0.14 0.2,0.07 0.1,0.06 0.1,0.05 0.2,0.05 0.1,0.05 0.1,0.04 0.2,0.03 0.1,0.03 0.2,0.02 0.1,0.02 0.2,0.01 0.2,0 c 0.2,0 1.4,0 2.5,-0.65 -1.4,-0.25 -2.4,-1.49 -2.4,-2.68 0,-0.8 0.5,-1.75 1.9,-1.75 1.1,0 2.7,0.9 2.7,2.89 0,2.59 -3,3.29 -4.7,3.29 -2.9,0 -4.6,-2.64 -5.2,-3.79 -1.3,3.29 -4,3.79 -5.4,3.79 -5.2,0 -8,-6.43 -8,-7.67 0,-0.5 0.5,-0.5 0.6,-0.5 0.4,0 0.5,0.1 0.6,0.54 1.7,5.29 5,6.53 6.7,6.53 1,0 2.7,-0.45 2.7,-3.33 0,-1.55 -0.8,-4.89 -2.7,-11.86 -0.8,-3.09 -2.5,-5.18 -4.7,-5.18 -0.3,0 -1.5,0 -2.5,0.65 1.2,0.25 2.3,1.29 2.3,2.69 0,1.34 -1.1,1.74 -1.8,1.74 -1.5,0 -2.8,-1.3 -2.8,-2.89 0,-2.29 2.5,-3.29 4.7,-3.29 3.3,0 5.1,3.49 5.3,3.79 0.6,-1.85 2.4,-3.79 5.3,-3.79 5.2,0 8,6.43 8,7.68 0,0.49 -0.4,0.49 -0.6,0.49 -0.4,0 -0.5,-0.2 -0.6,-0.55 -1.7,-5.33 -5.1,-6.52 -6.7,-6.52 -1.9,0 -2.7,1.59 -2.7,3.29 0,1.09 0.3,2.19 0.8,4.38 z" /><path
           inkscape:connector-curvature="0"
           style="fill:#000000;stroke-width:0"
           id="path17695"
           d="m 1247.2,362.29 0.2,0 0.1,0 0.2,0.01 0,0 0.1,0 0.1,0.01 0,0.01 0.1,0.01 0.1,0.01 0.1,0.02 0,0.01 0.1,0.02 0,0.02 0.1,0.03 0.1,0.03 0,0.03 0.1,0.03 0,0.04 0.1,0.04 0,0.05 0.1,0.05 0,0.03 0,0.02 0,0.03 0,0.03 0,0.03 0,0.04 0.1,0.03 0,0.04 0,0.03 0,0.04 0,0.04 0,0.04 0,0.04 0,0.04 0,0.05 0,0.05 c 0,0.99 -0.9,0.99 -1.6,0.99 h -29.9 c -0.7,0 -1.6,0 -1.6,-0.99 0,-1 0.9,-1 1.7,-1 z" /><path
           inkscape:connector-curvature="0"
           style="fill:#000000;stroke-width:0"
           id="path17697"
           d="m 1247.3,352.63 0.1,0 0.1,0 0.2,0 0.1,0.01 0,0 0.1,0.01 0.1,0.01 0,0.01 0.1,0.01 0.1,0.01 0,0.02 0.1,0.02 0.1,0.02 0,0.02 0.1,0.03 0,0.03 0.1,0.04 0,0.04 0.1,0.04 0,0.04 0,0.03 0.1,0.03 0,0.02 0,0.03 0,0.03 0,0.03 0,0.03 0,0.03 0.1,0.04 0,0.03 0,0.04 0,0.04 0,0.04 0,0.04 0,0.04 0,0.04 0,0.05 0,0.04 c 0,1 -0.9,1 -1.7,1 h -29.7 c -0.8,0 -1.7,0 -1.7,-1 0,-0.99 0.9,-0.99 1.6,-0.99 z" /><path
           inkscape:connector-curvature="0"
           style="fill:#000000;stroke-width:0"
           id="path17699"
           d="m 1288,380.77 0,0.06 0,0.06 -0.1,0.05 0,0.05 0,0.06 -0.1,0.04 0,0.05 0,0.04 0,0.05 -0.1,0.04 0,0.03 0,0.04 0,0.03 -0.1,0.03 0,0.03 0,0.03 -0.1,0.03 0,0.02 0,0.02 -0.1,0.02 0,0.02 -0.1,0.02 0,0.02 -0.1,0.01 0,0.01 -0.1,0.01 0,0.01 -0.1,0.01 -0.1,0 0,0.01 -0.1,0 -0.1,0 c -0.8,0 -0.9,-0.25 -1.3,-0.9 l -0.3,-4.09 13.4,-26.89 h -26.8 l 13.4,26.89 0.3,4.09 -16.8,-33.77 c -0.3,-0.45 -0.3,-0.55 -0.3,-0.6 0,-0.4 0.3,-0.4 1.1,-0.4 h 34.6 c 0.8,0 1.1,0 1.1,0.4 0,0.05 0,0.15 -0.2,0.6 z" /><path
           inkscape:connector-curvature="0"
           style="fill:#000000;stroke-width:0"
           id="path17701"
           d="m 1323.6,361.04 0.1,0.13 0,0.15 0,0.17 0.1,0.18 0,0.19 0.1,0.21 0.1,0.21 0,0.23 0.1,0.23 0.1,0.24 0.1,0.25 0.1,0.24 0.1,0.25 0.1,0.25 0.2,0.25 0.1,0.25 0.2,0.24 0.1,0.24 0.2,0.23 0.2,0.22 0.1,0.22 0.2,0.2 0.2,0.19 0.3,0.18 0.2,0.16 0.2,0.14 0.2,0.07 0.1,0.06 0.1,0.05 0.2,0.05 0.1,0.05 0.1,0.04 0.2,0.03 0.1,0.03 0.2,0.02 0.1,0.02 0.2,0.01 0.2,0 c 0.2,0 1.4,0 2.5,-0.65 -1.4,-0.25 -2.4,-1.49 -2.4,-2.68 0,-0.8 0.5,-1.75 1.9,-1.75 1.1,0 2.7,0.9 2.7,2.89 0,2.59 -3,3.29 -4.7,3.29 -2.9,0 -4.6,-2.64 -5.2,-3.79 -1.3,3.29 -4,3.79 -5.4,3.79 -5.2,0 -8,-6.43 -8,-7.67 0,-0.5 0.5,-0.5 0.6,-0.5 0.4,0 0.5,0.1 0.6,0.54 1.7,5.29 5,6.53 6.7,6.53 1,0 2.7,-0.45 2.7,-3.33 0,-1.55 -0.8,-4.89 -2.7,-11.86 -0.8,-3.09 -2.5,-5.18 -4.7,-5.18 -0.3,0 -1.5,0 -2.5,0.65 1.2,0.25 2.3,1.29 2.3,2.69 0,1.34 -1.1,1.74 -1.8,1.74 -1.5,0 -2.8,-1.3 -2.8,-2.89 0,-2.29 2.5,-3.29 4.7,-3.29 3.3,0 5.1,3.49 5.3,3.79 0.6,-1.85 2.4,-3.79 5.3,-3.79 5.2,0 8,6.43 8,7.68 0,0.49 -0.4,0.49 -0.6,0.49 -0.4,0 -0.5,-0.2 -0.6,-0.55 -1.7,-5.33 -5.1,-6.52 -6.7,-6.52 -1.9,0 -2.7,1.59 -2.7,3.29 0,1.09 0.3,2.19 0.8,4.38 z" /></g>      <g
         style="font-style:normal;font-variant:normal;font-weight:normal;font-stretch:normal;letter-spacing:normal;word-spacing:normal;text-anchor:start;fill:none;stroke:#000000;stroke-linecap:butt;stroke-linejoin:miter;stroke-miterlimit:10.43299961;stroke-opacity:1;stroke-dasharray:none;stroke-dashoffset:0"
         id="g32257"
         transform="matrix(0.69608494,0,0,-0.69608494,-1716.2782,5080.7443)"
         xml:space="preserve"
         stroke-miterlimit="10.433"
         font-style="normal"
         font-variant="normal"
         font-weight="normal"
         font-stretch="normal"
         font-size-adjust="none"
         letter-spacing="normal"
         word-spacing="normal"><path
           inkscape:connector-curvature="0"
           style="fill:#000000;stroke-width:0"
           d="m 1228,380.77 0,0.06 0,0.06 -0.1,0.05 0,0.05 0,0.06 -0.1,0.04 0,0.05 0,0.04 0,0.05 -0.1,0.04 0,0.03 0,0.04 0,0.03 -0.1,0.03 0,0.03 0,0.03 -0.1,0.03 0,0.02 0,0.02 -0.1,0.02 0,0.02 -0.1,0.02 0,0.02 -0.1,0.01 0,0.01 -0.1,0.01 0,0.01 -0.1,0.01 -0.1,0 0,0.01 -0.1,0 -0.1,0 c -0.8,0 -0.9,-0.25 -1.3,-0.9 l -0.3,-4.09 13.4,-26.89 h -26.8 l 13.4,26.89 0.3,4.09 -16.8,-33.77 c -0.3,-0.45 -0.3,-0.55 -0.3,-0.6 0,-0.4 0.3,-0.4 1.1,-0.4 h 34.6 c 0.8,0 1.1,0 1.1,0.4 0,0.05 0,0.15 -0.2,0.6 z"
           id="path32259" /><path
           inkscape:connector-curvature="0"
           style="fill:#000000;stroke-width:0"
           d="m 1272.2,364.98 0,0.03 0,0.03 0,0.03 0,0.03 0.1,0.06 0,0.05 0,0.06 0,0.04 0,0.05 0,0.04 0,0.04 0,0.04 0.1,0.04 0,0.04 0,0.03 0,0.03 0,0.03 0,0.03 0,0.03 0,0.03 0,0.03 0,0.02 0,0.06 0,0.05 0,0.05 0,0.05 0,0.03 0,0.03 0,0.03 0,0.04 c 0,0.89 -0.7,1.34 -1.4,1.34 -0.5,0 -1.3,-0.3 -1.8,-1.05 -0.1,-0.24 -0.5,-1.79 -0.7,-2.69 -0.3,-1.29 -0.7,-2.64 -1,-3.98 l -2.2,-8.97 c -0.2,-0.74 -2.4,-4.23 -5.6,-4.23 -2.6,0 -3.1,2.19 -3.1,4.03 0,2.3 0.8,5.38 2.5,9.77 0.8,2.04 1,2.59 1,3.58 0,2.25 -1.6,4.09 -4.1,4.09 -4.7,0 -6.6,-7.23 -6.6,-7.67 0,-0.5 0.5,-0.5 0.6,-0.5 0.5,0 0.6,0.1 0.8,0.9 1.4,4.68 3.4,6.17 5.1,6.17 0.4,0 1.2,0 1.2,-1.59 0,-1.25 -0.5,-2.54 -0.8,-3.49 -2,-5.28 -2.9,-8.12 -2.9,-10.46 0,-4.43 3.1,-5.93 6.1,-5.93 1.9,0 3.6,0.85 5,2.25 -0.7,-2.6 -1.3,-5.04 -3.2,-7.68 -1.3,-1.69 -3.2,-3.14 -5.5,-3.14 -0.7,0 -3,0.16 -3.8,2.1 0.8,0 1.4,0 2.1,0.59 0.5,0.45 1,1.1 1,2.05 0,1.54 -1.3,1.74 -1.8,1.74 -1.2,0 -2.8,-0.8 -2.8,-3.24 0,-2.49 2.2,-4.33 5.3,-4.33 5.1,0 10.2,4.53 11.6,10.16 z"
           id="path32261" /></g>      <g
         style="font-style:normal;font-variant:normal;font-weight:normal;font-stretch:normal;letter-spacing:normal;word-spacing:normal;text-anchor:start;fill:none;stroke:#000000;stroke-linecap:butt;stroke-linejoin:miter;stroke-miterlimit:10.43299961;stroke-opacity:1;stroke-dasharray:none;stroke-dashoffset:0"
         word-spacing="normal"
         letter-spacing="normal"
         font-size-adjust="none"
         font-stretch="normal"
         font-weight="normal"
         font-variant="normal"
         font-style="normal"
         stroke-miterlimit="10.433"
         xml:space="preserve"
         transform="matrix(0.69608494,0,0,-0.69608494,-1644.6127,5042.1426)"
         id="g46825"><path
           inkscape:connector-curvature="0"
           style="fill:#000000;stroke-width:0"
           id="path46827"
           d="m 1239.7,380.02 0,0.01 0,0 0,0.01 0,0.01 0,0.01 0,0.01 0,0.02 0,0.02 0,0.02 0,0.02 0,0.02 0,0.02 0,0.03 0,0.02 -0.1,0.03 0,0.02 0,0.02 0,0.03 0,0.02 0,0.03 -0.1,0.02 0,0.01 0,0.01 0,0.01 0,0.01 0,0.01 0,0.01 -0.1,0.01 0,0.01 0,0.01 0,0.01 0,0.01 0,0 -0.1,0.01 0,0.01 0,0 0,0.01 -0.1,0 0,0.01 0,0 0,0 -0.1,0.01 0,0 0,0 0,0 c -0.8,0 -5.5,-0.45 -6.4,-0.55 -0.4,-0.05 -0.7,-0.3 -0.7,-0.95 0,-0.59 0.5,-0.59 1.2,-0.59 2.4,0 2.5,-0.35 2.5,-0.85 l -0.1,-0.99 -3,-11.81 c -0.9,1.84 -2.4,3.19 -4.6,3.19 l 0.1,-1.1 c 3.2,0 3.9,-4.08 3.9,-4.38 0,-0.3 -0.1,-0.6 -0.2,-0.85 l -2.5,-9.76 c -0.2,-0.9 -0.2,-1 -1,-1.84 -2.1,-2.75 -4.2,-3.54 -5.6,-3.54 -2.5,0 -3.2,2.74 -3.2,4.68 0,2.49 1.6,8.62 2.8,10.91 1.5,2.94 3.8,4.78 5.8,4.78 l -0.1,1.1 c -5.8,0 -12,-7.32 -12,-14.6 0,-4.68 2.7,-7.97 6.6,-7.97 1,0 3.5,0.2 6.5,3.74 0.4,-2.09 2.1,-3.74 4.5,-3.74 1.8,0 2.9,1.15 3.7,2.74 0.9,1.79 1.5,4.83 1.5,4.94 0,0.49 -0.4,0.49 -0.6,0.49 -0.5,0 -0.5,-0.2 -0.7,-0.89 -0.8,-3.24 -1.7,-6.18 -3.8,-6.18 -1.3,0 -1.5,1.29 -1.5,2.29 0,1.2 0.1,1.54 0.3,2.39 z" /><path
           inkscape:connector-curvature="0"
           style="fill:#000000;stroke-width:0"
           id="path46829"
           d="m 1264.2,364.98 0,0.03 0,0.03 0,0.03 0,0.03 0.1,0.06 0,0.05 0,0.06 0,0.04 0,0.05 0,0.04 0,0.04 0,0.04 0.1,0.04 0,0.04 0,0.03 0,0.03 0,0.03 0,0.03 0,0.03 0,0.03 0,0.03 0,0.02 0,0.06 0,0.05 0,0.05 0,0.05 0,0.03 0,0.03 0,0.03 0,0.04 c 0,0.89 -0.7,1.34 -1.4,1.34 -0.5,0 -1.3,-0.3 -1.8,-1.05 -0.1,-0.24 -0.5,-1.79 -0.7,-2.69 -0.3,-1.29 -0.7,-2.64 -1,-3.98 l -2.2,-8.97 c -0.2,-0.74 -2.4,-4.23 -5.6,-4.23 -2.6,0 -3.1,2.19 -3.1,4.03 0,2.3 0.8,5.38 2.5,9.77 0.8,2.04 1,2.59 1,3.58 0,2.25 -1.6,4.09 -4.1,4.09 -4.7,0 -6.6,-7.23 -6.6,-7.67 0,-0.5 0.5,-0.5 0.6,-0.5 0.5,0 0.6,0.1 0.8,0.9 1.4,4.68 3.4,6.17 5.1,6.17 0.4,0 1.2,0 1.2,-1.59 0,-1.25 -0.5,-2.54 -0.8,-3.49 -2,-5.28 -2.9,-8.12 -2.9,-10.46 0,-4.43 3.1,-5.93 6.1,-5.93 1.9,0 3.6,0.85 5,2.25 -0.7,-2.6 -1.3,-5.04 -3.2,-7.68 -1.3,-1.69 -3.2,-3.14 -5.5,-3.14 -0.7,0 -3,0.16 -3.8,2.1 0.8,0 1.4,0 2.1,0.59 0.5,0.45 1,1.1 1,2.05 0,1.54 -1.3,1.74 -1.8,1.74 -1.2,0 -2.8,-0.8 -2.8,-3.24 0,-2.49 2.2,-4.33 5.3,-4.33 5.1,0 10.2,4.53 11.6,10.16 z" /></g>      <text
         transform="matrix(0,0.54103414,-1.8483122,0,0,0)"
         sodipodi:linespacing="120%"
         id="text8311-6-2-3"
         y="557.91083"
         x="9041.6982"
         style="font-size:87.98057556px;font-style:normal;font-variant:normal;font-weight:normal;font-stretch:normal;text-align:center;line-height:120.00000477%;writing-mode:lr-tb;text-anchor:middle;fill:#000000;fill-opacity:1;stroke:none;font-family:Batang;-inkscape-font-specification:Batang"
         xml:space="preserve"><tspan
           y="557.91083"
           x="9041.6982"
           id="tspan8313-5-9-4"
           sodipodi:role="line">}</tspan></text>
      <text
         transform="scale(0.63497873,1.5748559)"
         sodipodi:linespacing="120%"
         id="text8311-4-4"
         y="3095.0918"
         x="-1392.9196"
         style="font-size:74.96392059px;font-style:normal;font-variant:normal;font-weight:normal;font-stretch:normal;text-align:center;line-height:120.00000477%;writing-mode:lr-tb;text-anchor:middle;fill:#000000;fill-opacity:1;stroke:none;font-family:Batang;-inkscape-font-specification:Batang"
         xml:space="preserve"><tspan
           y="3095.0918"
           x="-1392.9196"
           id="tspan8313-9-0"
           sodipodi:role="line">}</tspan></text>
      <text
         transform="scale(0.46088837,2.1697228)"
         sodipodi:linespacing="120%"
         id="text8311-4-4-6"
         y="2246.2856"
         x="-1773.8658"
         style="font-size:103.27987671px;font-style:normal;font-variant:normal;font-weight:normal;font-stretch:normal;text-align:center;line-height:120.00000477%;writing-mode:lr-tb;text-anchor:middle;fill:#000000;fill-opacity:1;stroke:none;font-family:Batang;-inkscape-font-specification:Batang"
         xml:space="preserve"><tspan
           y="2246.2856"
           x="-1773.8658"
           id="tspan8313-9-0-3"
           sodipodi:role="line">}</tspan></text>
    </g>
  </g>
</svg>
