<?xml version="1.0" encoding="UTF-8" standalone="no"?>
<!-- Created with Inkscape (http://www.inkscape.org/) -->

<svg
   xmlns:dc="http://purl.org/dc/elements/1.1/"
   xmlns:cc="http://creativecommons.org/ns#"
   xmlns:rdf="http://www.w3.org/1999/02/22-rdf-syntax-ns#"
   xmlns:svg="http://www.w3.org/2000/svg"
   xmlns="http://www.w3.org/2000/svg"
   xmlns:sodipodi="http://sodipodi.sourceforge.net/DTD/sodipodi-0.dtd"
   xmlns:inkscape="http://www.inkscape.org/namespaces/inkscape"
   width="316.38611"
   height="314.1929"
   id="svg14802"
   version="1.1"
   inkscape:version="0.47 r22583"
   sodipodi:docname="conics3.eps">
  <defs
     id="defs14804">
    <inkscape:perspective
       sodipodi:type="inkscape:persp3d"
       inkscape:vp_x="0 : 526.18109 : 1"
       inkscape:vp_y="0 : 1000 : 0"
       inkscape:vp_z="744.09448 : 526.18109 : 1"
       inkscape:persp3d-origin="372.04724 : 350.78739 : 1"
       id="perspective14810" />
    <inkscape:perspective
       id="perspective14820"
       inkscape:persp3d-origin="0.5 : 0.33333333 : 1"
       inkscape:vp_z="1 : 0.5 : 1"
       inkscape:vp_y="0 : 1000 : 0"
       inkscape:vp_x="0 : 0.5 : 1"
       sodipodi:type="inkscape:persp3d" />
    <inkscape:perspective
       id="perspective14896"
       inkscape:persp3d-origin="0.5 : 0.33333333 : 1"
       inkscape:vp_z="1 : 0.5 : 1"
       inkscape:vp_y="0 : 1000 : 0"
       inkscape:vp_x="0 : 0.5 : 1"
       sodipodi:type="inkscape:persp3d" />
    <inkscape:perspective
       id="perspective14960"
       inkscape:persp3d-origin="0.5 : 0.33333333 : 1"
       inkscape:vp_z="1 : 0.5 : 1"
       inkscape:vp_y="0 : 1000 : 0"
       inkscape:vp_x="0 : 0.5 : 1"
       sodipodi:type="inkscape:persp3d" />
    <inkscape:perspective
       id="perspective15105"
       inkscape:persp3d-origin="0.5 : 0.33333333 : 1"
       inkscape:vp_z="1 : 0.5 : 1"
       inkscape:vp_y="0 : 1000 : 0"
       inkscape:vp_x="0 : 0.5 : 1"
       sodipodi:type="inkscape:persp3d" />
    <inkscape:perspective
       id="perspective15199"
       inkscape:persp3d-origin="0.5 : 0.33333333 : 1"
       inkscape:vp_z="1 : 0.5 : 1"
       inkscape:vp_y="0 : 1000 : 0"
       inkscape:vp_x="0 : 0.5 : 1"
       sodipodi:type="inkscape:persp3d" />
    <inkscape:perspective
       id="perspective15359"
       inkscape:persp3d-origin="0.5 : 0.33333333 : 1"
       inkscape:vp_z="1 : 0.5 : 1"
       inkscape:vp_y="0 : 1000 : 0"
       inkscape:vp_x="0 : 0.5 : 1"
       sodipodi:type="inkscape:persp3d" />
    <inkscape:perspective
       id="perspective15537"
       inkscape:persp3d-origin="0.5 : 0.33333333 : 1"
       inkscape:vp_z="1 : 0.5 : 1"
       inkscape:vp_y="0 : 1000 : 0"
       inkscape:vp_x="0 : 0.5 : 1"
       sodipodi:type="inkscape:persp3d" />
    <inkscape:perspective
       id="perspective16140"
       inkscape:persp3d-origin="0.5 : 0.33333333 : 1"
       inkscape:vp_z="1 : 0.5 : 1"
       inkscape:vp_y="0 : 1000 : 0"
       inkscape:vp_x="0 : 0.5 : 1"
       sodipodi:type="inkscape:persp3d" />
    <inkscape:perspective
       id="perspective16477"
       inkscape:persp3d-origin="0.5 : 0.33333333 : 1"
       inkscape:vp_z="1 : 0.5 : 1"
       inkscape:vp_y="0 : 1000 : 0"
       inkscape:vp_x="0 : 0.5 : 1"
       sodipodi:type="inkscape:persp3d" />
    <inkscape:perspective
       id="perspective16541"
       inkscape:persp3d-origin="0.5 : 0.33333333 : 1"
       inkscape:vp_z="1 : 0.5 : 1"
       inkscape:vp_y="0 : 1000 : 0"
       inkscape:vp_x="0 : 0.5 : 1"
       sodipodi:type="inkscape:persp3d" />
    <inkscape:perspective
       id="perspective16620"
       inkscape:persp3d-origin="0.5 : 0.33333333 : 1"
       inkscape:vp_z="1 : 0.5 : 1"
       inkscape:vp_y="0 : 1000 : 0"
       inkscape:vp_x="0 : 0.5 : 1"
       sodipodi:type="inkscape:persp3d" />
    <inkscape:perspective
       id="perspective16726"
       inkscape:persp3d-origin="0.5 : 0.33333333 : 1"
       inkscape:vp_z="1 : 0.5 : 1"
       inkscape:vp_y="0 : 1000 : 0"
       inkscape:vp_x="0 : 0.5 : 1"
       sodipodi:type="inkscape:persp3d" />
    <inkscape:perspective
       id="perspective17172"
       inkscape:persp3d-origin="0.5 : 0.33333333 : 1"
       inkscape:vp_z="1 : 0.5 : 1"
       inkscape:vp_y="0 : 1000 : 0"
       inkscape:vp_x="0 : 0.5 : 1"
       sodipodi:type="inkscape:persp3d" />
    <inkscape:perspective
       id="perspective17714"
       inkscape:persp3d-origin="0.5 : 0.33333333 : 1"
       inkscape:vp_z="1 : 0.5 : 1"
       inkscape:vp_y="0 : 1000 : 0"
       inkscape:vp_x="0 : 0.5 : 1"
       sodipodi:type="inkscape:persp3d" />
    <inkscape:perspective
       id="perspective17985"
       inkscape:persp3d-origin="0.5 : 0.33333333 : 1"
       inkscape:vp_z="1 : 0.5 : 1"
       inkscape:vp_y="0 : 1000 : 0"
       inkscape:vp_x="0 : 0.5 : 1"
       sodipodi:type="inkscape:persp3d" />
  </defs>
  <sodipodi:namedview
     id="base"
     pagecolor="#ffffff"
     bordercolor="#666666"
     borderopacity="1.0"
     inkscape:pageopacity="0.0"
     inkscape:pageshadow="2"
     inkscape:zoom="0.49497475"
     inkscape:cx="368.46098"
     inkscape:cy="8.2894335"
     inkscape:document-units="px"
     inkscape:current-layer="layer1"
     showgrid="false"
     inkscape:window-width="840"
     inkscape:window-height="695"
     inkscape:window-x="1066"
     inkscape:window-y="103"
     inkscape:window-maximized="0" />
  <metadata
     id="metadata14807">
    <rdf:RDF>
      <cc:Work
         rdf:about="">
        <dc:format>image/svg+xml</dc:format>
        <dc:type
           rdf:resource="http://purl.org/dc/dcmitype/StillImage" />
        <dc:title></dc:title>
      </cc:Work>
    </rdf:RDF>
  </metadata>
  <g
     inkscape:label="Layer 1"
     inkscape:groupmode="layer"
     id="layer1"
     transform="translate(243.19304,-255.68265)">
    <g
       id="g26079"
       transform="translate(-1807.5121,-385.02465)"
       inkscape:export-filename="C:\Users\mscavers\Desktop\Math 251 (Fall 2011)\Lecture Notes\Lecture 4\circle.png"
       inkscape:export-xdpi="300"
       inkscape:export-ydpi="300">
      <g
         id="g3165-4-4"
         transform="translate(1428.2983,593.03747)">
        <text
           sodipodi:linespacing="120%"
           id="text3006-0-75"
           y="361.86273"
           x="444.63528"
           style="font-size:29.76207542px;font-style:normal;font-variant:normal;font-weight:normal;font-stretch:normal;text-align:center;line-height:120.00000477%;writing-mode:lr-tb;text-anchor:middle;fill:#000000;fill-opacity:1;stroke:none;font-family:Cambria Math;-inkscape-font-specification:Cambria Math"
           xml:space="preserve"><tspan
             y="361.86273"
             x="444.63528"
             id="tspan3008-9-5"
             sodipodi:role="line">x</tspan></text>
        <text
           sodipodi:linespacing="120%"
           id="text3010-4-5"
           y="64.298676"
           x="143.22876"
           style="font-size:29.76207542px;font-style:normal;font-variant:normal;font-weight:normal;font-stretch:normal;text-align:center;line-height:120.00000477%;writing-mode:lr-tb;text-anchor:middle;fill:#000000;fill-opacity:1;stroke:none;font-family:Cambria Math;-inkscape-font-specification:Cambria Math"
           xml:space="preserve"><tspan
             y="64.298676"
             x="143.22876"
             id="tspan3012-8-0"
             sodipodi:role="line">y</tspan></text>
        <g
           transform="translate(5.6568543,45.254834)"
           id="g3101-8-9">
          <path
             style="color:#000000;fill:none;stroke:#000000;stroke-width:1.5;stroke-linecap:butt;stroke-linejoin:miter;stroke-miterlimit:4;stroke-opacity:1;stroke-dasharray:none;stroke-dashoffset:0;marker:none;visibility:visible;display:inline;overflow:visible;enable-background:accumulate"
             d="m 138,289.36218 308,0"
             id="path3004-2-28" />
          <path
             style="color:#000000;fill:none;stroke:#000000;stroke-width:1.5;stroke-linecap:butt;stroke-linejoin:miter;stroke-miterlimit:4;stroke-opacity:1;stroke-dasharray:none;stroke-dashoffset:0;marker:none;visibility:visible;display:inline;overflow:visible;enable-background:accumulate"
             d="m 186,280.36218 0,18"
             id="path3014-45-2" />
          <path
             style="color:#000000;fill:none;stroke:#000000;stroke-width:1.5;stroke-linecap:butt;stroke-linejoin:miter;stroke-miterlimit:4;stroke-opacity:1;stroke-dasharray:none;stroke-dashoffset:0;marker:none;visibility:visible;display:inline;overflow:visible;enable-background:accumulate"
             d="m 217.02044,280.36218 0,18"
             id="path3014-1-5-45" />
          <path
             style="color:#000000;fill:none;stroke:#000000;stroke-width:1.5;stroke-linecap:butt;stroke-linejoin:miter;stroke-miterlimit:4;stroke-opacity:1;stroke-dasharray:none;stroke-dashoffset:0;marker:none;visibility:visible;display:inline;overflow:visible;enable-background:accumulate"
             d="m 248.04089,280.36218 0,18"
             id="path3014-4-1-04" />
          <path
             style="color:#000000;fill:none;stroke:#000000;stroke-width:1.5;stroke-linecap:butt;stroke-linejoin:miter;stroke-miterlimit:4;stroke-opacity:1;stroke-dasharray:none;stroke-dashoffset:0;marker:none;visibility:visible;display:inline;overflow:visible;enable-background:accumulate"
             d="m 279.06134,280.36218 0,18"
             id="path3014-9-7-4" />
          <path
             style="color:#000000;fill:none;stroke:#000000;stroke-width:1.5;stroke-linecap:butt;stroke-linejoin:miter;stroke-miterlimit:4;stroke-opacity:1;stroke-dasharray:none;stroke-dashoffset:0;marker:none;visibility:visible;display:inline;overflow:visible;enable-background:accumulate"
             d="m 310.08179,280.36218 0,18"
             id="path3014-8-1-05" />
          <path
             style="color:#000000;fill:none;stroke:#000000;stroke-width:1.5;stroke-linecap:butt;stroke-linejoin:miter;stroke-miterlimit:4;stroke-opacity:1;stroke-dasharray:none;stroke-dashoffset:0;marker:none;visibility:visible;display:inline;overflow:visible;enable-background:accumulate"
             d="m 341.10223,280.36218 0,18"
             id="path3014-2-15-1" />
          <path
             style="color:#000000;fill:none;stroke:#000000;stroke-width:1.5;stroke-linecap:butt;stroke-linejoin:miter;stroke-miterlimit:4;stroke-opacity:1;stroke-dasharray:none;stroke-dashoffset:0;marker:none;visibility:visible;display:inline;overflow:visible;enable-background:accumulate"
             d="m 372.12268,280.36218 0,18"
             id="path3014-5-2-15" />
          <path
             style="color:#000000;fill:none;stroke:#000000;stroke-width:1.5;stroke-linecap:butt;stroke-linejoin:miter;stroke-miterlimit:4;stroke-opacity:1;stroke-dasharray:none;stroke-dashoffset:0;marker:none;visibility:visible;display:inline;overflow:visible;enable-background:accumulate"
             d="m 403.14313,280.36218 0,18"
             id="path3014-7-7-9" />
          <path
             style="color:#000000;fill:none;stroke:#000000;stroke-width:1.5;stroke-linecap:butt;stroke-linejoin:miter;stroke-miterlimit:4;stroke-opacity:1;stroke-dasharray:none;stroke-dashoffset:0;marker:none;visibility:visible;display:inline;overflow:visible;enable-background:accumulate"
             d="m 434.16357,280.36218 0,18"
             id="path3014-52-6-0" />
        </g>
        <g
           id="g3101-7-1-8"
           transform="matrix(0,-1,1,0,-120.36366,494.41983)">
          <path
             style="color:#000000;fill:none;stroke:#000000;stroke-width:1.5;stroke-linecap:butt;stroke-linejoin:miter;stroke-miterlimit:4;stroke-opacity:1;stroke-dasharray:none;stroke-dashoffset:0;marker:none;visibility:visible;display:inline;overflow:visible;enable-background:accumulate"
             d="m 138,289.36218 308,0"
             id="path3004-6-4-38" />
          <path
             style="color:#000000;fill:none;stroke:#000000;stroke-width:1.5;stroke-linecap:butt;stroke-linejoin:miter;stroke-miterlimit:4;stroke-opacity:1;stroke-dasharray:none;stroke-dashoffset:0;marker:none;visibility:visible;display:inline;overflow:visible;enable-background:accumulate"
             d="m 186,280.36218 0,18"
             id="path3014-14-2-7" />
          <path
             style="color:#000000;fill:none;stroke:#000000;stroke-width:1.5;stroke-linecap:butt;stroke-linejoin:miter;stroke-miterlimit:4;stroke-opacity:1;stroke-dasharray:none;stroke-dashoffset:0;marker:none;visibility:visible;display:inline;overflow:visible;enable-background:accumulate"
             d="m 217.02044,280.36218 0,18"
             id="path3014-1-2-3-2" />
          <path
             style="color:#000000;fill:none;stroke:#000000;stroke-width:1.5;stroke-linecap:butt;stroke-linejoin:miter;stroke-miterlimit:4;stroke-opacity:1;stroke-dasharray:none;stroke-dashoffset:0;marker:none;visibility:visible;display:inline;overflow:visible;enable-background:accumulate"
             d="m 248.04089,280.36218 0,18"
             id="path3014-4-3-2-6" />
          <path
             style="color:#000000;fill:none;stroke:#000000;stroke-width:1.5;stroke-linecap:butt;stroke-linejoin:miter;stroke-miterlimit:4;stroke-opacity:1;stroke-dasharray:none;stroke-dashoffset:0;marker:none;visibility:visible;display:inline;overflow:visible;enable-background:accumulate"
             d="m 279.06134,280.36218 0,18"
             id="path3014-9-2-2-9" />
          <path
             style="color:#000000;fill:none;stroke:#000000;stroke-width:1.5;stroke-linecap:butt;stroke-linejoin:miter;stroke-miterlimit:4;stroke-opacity:1;stroke-dasharray:none;stroke-dashoffset:0;marker:none;visibility:visible;display:inline;overflow:visible;enable-background:accumulate"
             d="m 310.08179,280.36218 0,18"
             id="path3014-8-2-1-3" />
          <path
             style="color:#000000;fill:none;stroke:#000000;stroke-width:1.5;stroke-linecap:butt;stroke-linejoin:miter;stroke-miterlimit:4;stroke-opacity:1;stroke-dasharray:none;stroke-dashoffset:0;marker:none;visibility:visible;display:inline;overflow:visible;enable-background:accumulate"
             d="m 341.10223,280.36218 0,18"
             id="path3014-2-1-6-8" />
          <path
             style="color:#000000;fill:none;stroke:#000000;stroke-width:1.5;stroke-linecap:butt;stroke-linejoin:miter;stroke-miterlimit:4;stroke-opacity:1;stroke-dasharray:none;stroke-dashoffset:0;marker:none;visibility:visible;display:inline;overflow:visible;enable-background:accumulate"
             d="m 372.12268,280.36218 0,18"
             id="path3014-5-6-8-1" />
          <path
             style="color:#000000;fill:none;stroke:#000000;stroke-width:1.5;stroke-linecap:butt;stroke-linejoin:miter;stroke-miterlimit:4;stroke-opacity:1;stroke-dasharray:none;stroke-dashoffset:0;marker:none;visibility:visible;display:inline;overflow:visible;enable-background:accumulate"
             d="m 403.14313,280.36218 0,18"
             id="path3014-7-8-5-0" />
          <path
             style="color:#000000;fill:none;stroke:#000000;stroke-width:1.5;stroke-linecap:butt;stroke-linejoin:miter;stroke-miterlimit:4;stroke-opacity:1;stroke-dasharray:none;stroke-dashoffset:0;marker:none;visibility:visible;display:inline;overflow:visible;enable-background:accumulate"
             d="m 434.16357,280.36218 0,18"
             id="path3014-52-5-7-3" />
        </g>
      </g>
      <path
         sodipodi:type="arc"
         style="color:#000000;fill:none;stroke:#ff0000;stroke-width:3;stroke-linecap:butt;stroke-linejoin:miter;stroke-miterlimit:4;stroke-opacity:1;stroke-dasharray:none;stroke-dashoffset:0;marker:none;visibility:visible;display:inline;overflow:visible;enable-background:accumulate"
         id="path25468"
         sodipodi:cx="1752.9177"
         sodipodi:cy="866.39313"
         sodipodi:rx="85.559921"
         sodipodi:ry="85.559921"
         d="m 1838.4776,866.39313 c 0,47.25344 -38.3064,85.55992 -85.5599,85.55992 -47.2534,0 -85.5599,-38.30648 -85.5599,-85.55992 0,-47.25344 38.3065,-85.55992 85.5599,-85.55992 47.2535,0 85.5599,38.30648 85.5599,85.55992 z"
         transform="translate(-15,-86.367532)" />
      <path
         transform="translate(1327.1677,425.91341)"
         d="m 415,354.11218 c 0,2.34721 -1.90279,4.25 -4.25,4.25 -2.34721,0 -4.25,-1.90279 -4.25,-4.25 0,-2.34721 1.90279,-4.25 4.25,-4.25 2.34721,0 4.25,1.90279 4.25,4.25 z"
         sodipodi:ry="4.25"
         sodipodi:rx="4.25"
         sodipodi:cy="354.11218"
         sodipodi:cx="410.75"
         id="path11292-2"
         style="color:#000000;fill:#000000;fill-opacity:1;fill-rule:evenodd;stroke:none;stroke-width:1.5;marker:none;visibility:visible;display:inline;overflow:visible;enable-background:accumulate"
         sodipodi:type="arc" />
      <path
         style="color:#000000;fill:none;stroke:#000000;stroke-width:1.5;stroke-linecap:butt;stroke-linejoin:miter;stroke-miterlimit:4;stroke-opacity:1;stroke-dasharray:none;stroke-dashoffset:0;marker:none;visibility:visible;display:inline;overflow:visible;enable-background:accumulate"
         d="m 1737.8873,779.99465 73.0215,-42.15896"
         id="path25595" />
      <g
         transform="matrix(0.65107653,0,0,0.65107653,1030.6797,474.13004)"
         id="g14650">
        <g
           style="font-style:normal;font-variant:normal;font-weight:normal;font-stretch:normal;letter-spacing:normal;word-spacing:normal;text-anchor:start;fill:none;stroke:#000000;stroke-width:1.53591776;stroke-linecap:butt;stroke-linejoin:miter;stroke-miterlimit:10.43299961;stroke-opacity:1;stroke-dasharray:none;stroke-dashoffset:0"
           id="g14652"
           transform="matrix(1.0629921,0,0,-1.0629921,-186.02362,789.27165)"
           xml:space="preserve"
           stroke-miterlimit="10.433"
           font-style="normal"
           font-variant="normal"
           font-weight="normal"
           font-stretch="normal"
           font-size-adjust="none"
           letter-spacing="normal"
           word-spacing="normal"><path
             style="fill:#000000;stroke-width:0"
             d="m 1232.4,348.94 0,-0.07 0,-0.08 -0.1,-0.07 0,-0.08 0,-0.16 -0.1,-0.16 0,-0.16 0,-0.16 -0.1,-0.16 0,-0.16 0,-0.08 0,-0.07 -0.1,-0.07 0,-0.07 0,-0.07 0,-0.07 0,-0.06 0,-0.06 0,-0.05 0,-0.06 0,-0.05 -0.1,-0.04 0,-0.04 0,-0.04 0,-0.03 0,-0.02 c 0,-0.9 0.7,-1.35 1.5,-1.35 0.6,0 1.5,0.4 1.8,1.4 0.1,0.2 1.8,6.97 2,7.87 0.4,1.64 1.3,5.13 1.6,6.47 0.2,0.65 1.6,2.99 2.8,4.09 0.4,0.35 1.8,1.64 4,1.64 1.3,0 2,-0.6 2.1,-0.6 -1.5,-0.25 -2.6,-1.44 -2.6,-2.73 0,-0.8 0.5,-1.75 1.9,-1.75 1.3,0 2.7,1.14 2.7,2.94 0,1.74 -1.6,3.24 -4.1,3.24 -3.3,0 -5.4,-2.44 -6.4,-3.84 -0.4,2.24 -2.2,3.84 -4.5,3.84 -2.3,0 -3.3,-1.95 -3.7,-2.84 -0.9,-1.7 -1.6,-4.68 -1.6,-4.83 0,-0.5 0.5,-0.5 0.6,-0.5 0.5,0 0.6,0.05 0.9,1.14 0.8,3.54 1.8,5.93 3.6,5.93 0.9,0 1.6,-0.4 1.6,-2.29 0,-1.04 -0.2,-1.59 -0.8,-4.18 z"
             id="path14654" /></g>      </g>
      <g
         transform="matrix(0.56274406,0,0,0.56274406,1099.072,576.83749)"
         id="g20910">
        <g
           style="font-style:normal;font-variant:normal;font-weight:normal;font-stretch:normal;letter-spacing:normal;word-spacing:normal;text-anchor:start;fill:none;stroke:#000000;stroke-width:1.77700675;stroke-linecap:butt;stroke-linejoin:miter;stroke-miterlimit:10.43299961;stroke-opacity:1;stroke-dasharray:none;stroke-dashoffset:0"
           id="g20912"
           transform="matrix(1.0629921,0,0,-1.0629921,-186.02362,789.27165)"
           xml:space="preserve"
           stroke-miterlimit="10.433"
           font-style="normal"
           font-variant="normal"
           font-weight="normal"
           font-stretch="normal"
           font-size-adjust="none"
           letter-spacing="normal"
           word-spacing="normal"><path
             style="fill:#000000;stroke-width:0"
             d="m 1198.5,334.04 0,0.03 0,0.03 0,0.01 0,0.02 0,0.01 0,0.02 0,0.02 0,0.01 0,0.02 -0.1,0.02 0,0.03 0,0.02 0,0.02 0,0.03 0,0.03 -0.1,0.03 0,0.03 0,0.04 0,0.02 -0.1,0.02 0,0.02 0,0.02 0,0.02 0,0.03 0,0.02 -0.1,0.02 0,0.03 0,0.02 0,0.03 -0.1,0.03 0,0.03 0,0.03 0,0.03 -0.1,0.03 0,0.03 0,0.03 -0.1,0.04 0,0.03 0,0.04 -0.1,0.03 0,0.04 -0.1,0.04 c -6.2,6.28 -7.8,15.69 -7.8,23.31 0,8.67 1.9,17.34 8,23.57 0.7,0.59 0.7,0.69 0.7,0.84 0,0.35 -0.2,0.5 -0.5,0.5 -0.5,0 -5,-3.39 -7.9,-9.72 -2.6,-5.47 -3.2,-11 -3.2,-15.19 0,-3.88 0.6,-9.91 3.3,-15.54 3,-6.12 7.3,-9.36 7.8,-9.36 0.3,0 0.5,0.15 0.5,0.49 z"
             id="path20914" /><path
             style="fill:#000000;stroke-width:0"
             d="m 1215.3,380.02 0,0.01 0,0 0,0.01 0,0.01 0,0.01 0,0.01 0,0.02 0,0.02 0,0.02 0,0.02 0,0.02 0,0.02 0,0.03 0,0.02 -0.1,0.03 0,0.02 0,0.02 0,0.03 0,0.02 0,0.03 -0.1,0.02 0,0.01 0,0.01 0,0.01 0,0.01 0,0.01 0,0.01 -0.1,0.01 0,0.01 0,0.01 0,0.01 0,0.01 0,0 -0.1,0.01 0,0.01 0,0 0,0.01 -0.1,0 0,0.01 0,0 0,0 -0.1,0.01 0,0 0,0 0,0 c -1.2,0 -4.8,-0.4 -6.1,-0.5 -0.4,-0.05 -1,-0.1 -1,-1 0,-0.59 0.5,-0.59 1.2,-0.59 2.4,0 2.5,-0.35 2.5,-0.85 l -0.1,-0.99 -7.3,-28.7 c -0.2,-0.69 -0.2,-0.8 -0.2,-1.09 0,-1.15 1,-1.4 1.5,-1.4 0.8,0 1.6,0.6 1.8,1.3 l 1,3.78 1.1,4.49 c 0.3,1.09 0.6,2.19 0.8,3.34 0.1,0.29 0.5,1.94 0.6,2.23 0.1,0.45 1.7,3.24 3.3,4.59 1.1,0.8 2.7,1.74 4.8,1.74 2.2,0 2.7,-1.69 2.7,-3.49 0,-2.68 -1.9,-8.11 -3.1,-11.15 -0.4,-1.15 -0.6,-1.75 -0.6,-2.74 0,-2.34 1.7,-4.09 4.1,-4.09 4.7,0 6.5,7.28 6.5,7.68 0,0.49 -0.4,0.49 -0.6,0.49 -0.5,0 -0.5,-0.15 -0.8,-0.89 -0.7,-2.64 -2.3,-6.18 -5,-6.18 -0.9,0 -1.2,0.5 -1.2,1.64 0,1.25 0.4,2.44 0.9,3.54 0.8,2.14 3,8.07 3,10.96 0,3.24 -2,5.33 -5.7,5.33 -3.2,0 -5.5,-1.55 -7.4,-3.84 z"
             id="path20916" /><path
             style="fill:#000000;stroke-width:0"
             d="m 1240.1,346.05 0,0.31 0,0.29 0,0.29 0,0.28 -0.1,0.27 0,0.26 -0.1,0.26 0,0.24 -0.1,0.24 0,0.23 -0.1,0.22 -0.1,0.21 -0.1,0.2 -0.1,0.19 -0.1,0.18 -0.1,0.18 -0.1,0.16 -0.1,0.15 -0.1,0.15 -0.1,0.13 -0.1,0.13 -0.2,0.11 -0.1,0.1 -0.2,0.1 -0.1,0.08 -0.2,0.07 -0.1,0.06 -0.2,0.05 -0.1,0.04 -0.2,0.03 -0.2,0.02 -0.2,0 c -1.6,0 -2.6,-1.24 -2.6,-2.64 0,-1.34 1,-2.64 2.6,-2.64 0.6,0 1.3,0.2 1.8,0.65 0.1,0.1 0.2,0.15 0.2,0.15 0.1,0 0.1,-0.05 0.1,-0.75 0,-3.69 -1.7,-6.67 -3.4,-8.32 -0.5,-0.55 -0.5,-0.65 -0.5,-0.8 0,-0.34 0.2,-0.54 0.5,-0.54 0.5,0 4.5,3.83 4.5,9.66 z"
             id="path20918" /><path
             style="fill:#000000;stroke-width:0"
             d="m 1266.3,380.02 0,0.01 0,0 0,0.01 0,0.01 0,0.01 0,0.01 0,0.02 0,0.02 0,0.02 0,0.02 0,0.02 0,0.02 0,0.03 0,0.02 -0.1,0.03 0,0.02 0,0.02 0,0.03 0,0.02 0,0.03 -0.1,0.02 0,0.01 0,0.01 0,0.01 0,0.01 0,0.01 0,0.01 -0.1,0.01 0,0.01 0,0.01 0,0.01 0,0.01 0,0 -0.1,0.01 0,0.01 0,0 0,0.01 -0.1,0 0,0.01 0,0 0,0 -0.1,0.01 0,0 0,0 0,0 c -1.2,0 -4.8,-0.4 -6.1,-0.5 -0.4,-0.05 -1,-0.1 -1,-1 0,-0.59 0.5,-0.59 1.2,-0.59 2.4,0 2.5,-0.35 2.5,-0.85 l -0.1,-0.99 -7.3,-28.7 c -0.2,-0.69 -0.2,-0.8 -0.2,-1.09 0,-1.15 1,-1.4 1.5,-1.4 0.6,0 1.4,0.45 1.7,1.05 0.2,0.45 2.5,9.66 2.8,10.91 1.7,-0.15 5.7,-0.95 5.7,-4.24 0,-0.35 0,-0.54 -0.1,-1.04 -0.1,-0.6 -0.2,-1.2 -0.2,-1.75 0,-2.93 2,-4.93 4.6,-4.93 1.5,0 2.8,0.8 3.9,2.64 1.3,2.2 1.8,4.93 1.8,5.04 0,0.49 -0.4,0.49 -0.6,0.49 -0.5,0 -0.5,-0.2 -0.7,-0.89 -1,-3.64 -2.1,-6.18 -4.3,-6.18 -1,0 -1.6,0.55 -1.6,2.34 0,0.84 0.2,1.99 0.4,2.79 0.2,0.85 0.2,1.05 0.2,1.54 0,3.24 -3.2,4.69 -7.4,5.23 1.6,0.9 3.2,2.5 4.3,3.69 2.4,2.64 4.7,4.78 7.1,4.78 0.3,0 0.4,0 0.5,-0.05 0.6,-0.1 0.6,-0.1 1,-0.4 0.1,-0.05 0.1,-0.09 0.2,-0.2 -2.4,-0.14 -2.8,-2.09 -2.8,-2.68 0,-0.8 0.5,-1.75 1.9,-1.75 1.3,0 2.7,1.1 2.7,3.04 0,1.5 -1.1,3.14 -3.4,3.14 -1.4,0 -3.7,-0.4 -7.3,-4.39 -1.7,-1.89 -3.6,-3.88 -5.5,-4.63 z"
             id="path20920" /><path
             style="fill:#000000;stroke-width:0"
             d="m 1293.4,358.45 0,0.37 0,0.39 0,0.39 0,0.41 -0.1,0.84 0,0.88 -0.1,0.92 -0.1,0.94 -0.2,0.98 -0.1,1 -0.2,1.02 -0.2,1.04 -0.3,1.05 -0.3,1.06 -0.4,1.06 -0.4,1.07 -0.2,0.53 -0.2,0.54 -0.2,0.53 -0.3,0.53 c -3,6.12 -7.3,9.36 -7.8,9.36 -0.3,0 -0.5,-0.2 -0.5,-0.5 0,-0.15 0,-0.25 1,-1.15 4.9,-4.92 7.7,-12.85 7.7,-23.26 0,-8.52 -1.8,-17.28 -8,-23.56 -0.7,-0.6 -0.7,-0.69 -0.7,-0.85 0,-0.29 0.2,-0.49 0.5,-0.49 0.5,0 5,3.38 8,9.71 2.5,5.48 3.1,11.01 3.1,15.19 z"
             id="path20922" /></g>      </g>
    </g>
  </g>
</svg>
