<?xml version="1.0" encoding="UTF-8" standalone="no"?>
<!-- Created with Inkscape (http://www.inkscape.org/) -->

<svg
   xmlns:dc="http://purl.org/dc/elements/1.1/"
   xmlns:cc="http://creativecommons.org/ns#"
   xmlns:rdf="http://www.w3.org/1999/02/22-rdf-syntax-ns#"
   xmlns:svg="http://www.w3.org/2000/svg"
   xmlns="http://www.w3.org/2000/svg"
   xmlns:sodipodi="http://sodipodi.sourceforge.net/DTD/sodipodi-0.dtd"
   xmlns:inkscape="http://www.inkscape.org/namespaces/inkscape"
   width="1051.9569"
   height="582.05701"
   id="svg14802"
   version="1.1"
   inkscape:version="0.47 r22583"
   sodipodi:docname="limits-graphically.eps">
  <defs
     id="defs14804">
    <inkscape:perspective
       sodipodi:type="inkscape:persp3d"
       inkscape:vp_x="0 : 526.18109 : 1"
       inkscape:vp_y="0 : 1000 : 0"
       inkscape:vp_z="744.09448 : 526.18109 : 1"
       inkscape:persp3d-origin="372.04724 : 350.78739 : 1"
       id="perspective14810" />
    <inkscape:perspective
       id="perspective14820"
       inkscape:persp3d-origin="0.5 : 0.33333333 : 1"
       inkscape:vp_z="1 : 0.5 : 1"
       inkscape:vp_y="0 : 1000 : 0"
       inkscape:vp_x="0 : 0.5 : 1"
       sodipodi:type="inkscape:persp3d" />
    <inkscape:perspective
       id="perspective14896"
       inkscape:persp3d-origin="0.5 : 0.33333333 : 1"
       inkscape:vp_z="1 : 0.5 : 1"
       inkscape:vp_y="0 : 1000 : 0"
       inkscape:vp_x="0 : 0.5 : 1"
       sodipodi:type="inkscape:persp3d" />
    <inkscape:perspective
       id="perspective14960"
       inkscape:persp3d-origin="0.5 : 0.33333333 : 1"
       inkscape:vp_z="1 : 0.5 : 1"
       inkscape:vp_y="0 : 1000 : 0"
       inkscape:vp_x="0 : 0.5 : 1"
       sodipodi:type="inkscape:persp3d" />
    <inkscape:perspective
       id="perspective15105"
       inkscape:persp3d-origin="0.5 : 0.33333333 : 1"
       inkscape:vp_z="1 : 0.5 : 1"
       inkscape:vp_y="0 : 1000 : 0"
       inkscape:vp_x="0 : 0.5 : 1"
       sodipodi:type="inkscape:persp3d" />
    <inkscape:perspective
       id="perspective15199"
       inkscape:persp3d-origin="0.5 : 0.33333333 : 1"
       inkscape:vp_z="1 : 0.5 : 1"
       inkscape:vp_y="0 : 1000 : 0"
       inkscape:vp_x="0 : 0.5 : 1"
       sodipodi:type="inkscape:persp3d" />
    <inkscape:perspective
       id="perspective15359"
       inkscape:persp3d-origin="0.5 : 0.33333333 : 1"
       inkscape:vp_z="1 : 0.5 : 1"
       inkscape:vp_y="0 : 1000 : 0"
       inkscape:vp_x="0 : 0.5 : 1"
       sodipodi:type="inkscape:persp3d" />
    <inkscape:perspective
       id="perspective15537"
       inkscape:persp3d-origin="0.5 : 0.33333333 : 1"
       inkscape:vp_z="1 : 0.5 : 1"
       inkscape:vp_y="0 : 1000 : 0"
       inkscape:vp_x="0 : 0.5 : 1"
       sodipodi:type="inkscape:persp3d" />
    <inkscape:perspective
       id="perspective16140"
       inkscape:persp3d-origin="0.5 : 0.33333333 : 1"
       inkscape:vp_z="1 : 0.5 : 1"
       inkscape:vp_y="0 : 1000 : 0"
       inkscape:vp_x="0 : 0.5 : 1"
       sodipodi:type="inkscape:persp3d" />
    <inkscape:perspective
       id="perspective16477"
       inkscape:persp3d-origin="0.5 : 0.33333333 : 1"
       inkscape:vp_z="1 : 0.5 : 1"
       inkscape:vp_y="0 : 1000 : 0"
       inkscape:vp_x="0 : 0.5 : 1"
       sodipodi:type="inkscape:persp3d" />
    <inkscape:perspective
       id="perspective16541"
       inkscape:persp3d-origin="0.5 : 0.33333333 : 1"
       inkscape:vp_z="1 : 0.5 : 1"
       inkscape:vp_y="0 : 1000 : 0"
       inkscape:vp_x="0 : 0.5 : 1"
       sodipodi:type="inkscape:persp3d" />
    <inkscape:perspective
       id="perspective16620"
       inkscape:persp3d-origin="0.5 : 0.33333333 : 1"
       inkscape:vp_z="1 : 0.5 : 1"
       inkscape:vp_y="0 : 1000 : 0"
       inkscape:vp_x="0 : 0.5 : 1"
       sodipodi:type="inkscape:persp3d" />
    <inkscape:perspective
       id="perspective16726"
       inkscape:persp3d-origin="0.5 : 0.33333333 : 1"
       inkscape:vp_z="1 : 0.5 : 1"
       inkscape:vp_y="0 : 1000 : 0"
       inkscape:vp_x="0 : 0.5 : 1"
       sodipodi:type="inkscape:persp3d" />
    <inkscape:perspective
       id="perspective17172"
       inkscape:persp3d-origin="0.5 : 0.33333333 : 1"
       inkscape:vp_z="1 : 0.5 : 1"
       inkscape:vp_y="0 : 1000 : 0"
       inkscape:vp_x="0 : 0.5 : 1"
       sodipodi:type="inkscape:persp3d" />
    <inkscape:perspective
       id="perspective17714"
       inkscape:persp3d-origin="0.5 : 0.33333333 : 1"
       inkscape:vp_z="1 : 0.5 : 1"
       inkscape:vp_y="0 : 1000 : 0"
       inkscape:vp_x="0 : 0.5 : 1"
       sodipodi:type="inkscape:persp3d" />
    <inkscape:perspective
       id="perspective17985"
       inkscape:persp3d-origin="0.5 : 0.33333333 : 1"
       inkscape:vp_z="1 : 0.5 : 1"
       inkscape:vp_y="0 : 1000 : 0"
       inkscape:vp_x="0 : 0.5 : 1"
       sodipodi:type="inkscape:persp3d" />
    <inkscape:perspective
       id="perspective18216"
       inkscape:persp3d-origin="0.5 : 0.33333333 : 1"
       inkscape:vp_z="1 : 0.5 : 1"
       inkscape:vp_y="0 : 1000 : 0"
       inkscape:vp_x="0 : 0.5 : 1"
       sodipodi:type="inkscape:persp3d" />
    <inkscape:perspective
       id="perspective18367"
       inkscape:persp3d-origin="0.5 : 0.33333333 : 1"
       inkscape:vp_z="1 : 0.5 : 1"
       inkscape:vp_y="0 : 1000 : 0"
       inkscape:vp_x="0 : 0.5 : 1"
       sodipodi:type="inkscape:persp3d" />
    <inkscape:perspective
       id="perspective18815"
       inkscape:persp3d-origin="0.5 : 0.33333333 : 1"
       inkscape:vp_z="1 : 0.5 : 1"
       inkscape:vp_y="0 : 1000 : 0"
       inkscape:vp_x="0 : 0.5 : 1"
       sodipodi:type="inkscape:persp3d" />
    <inkscape:perspective
       id="perspective19016"
       inkscape:persp3d-origin="0.5 : 0.33333333 : 1"
       inkscape:vp_z="1 : 0.5 : 1"
       inkscape:vp_y="0 : 1000 : 0"
       inkscape:vp_x="0 : 0.5 : 1"
       sodipodi:type="inkscape:persp3d" />
    <inkscape:perspective
       id="perspective19125"
       inkscape:persp3d-origin="0.5 : 0.33333333 : 1"
       inkscape:vp_z="1 : 0.5 : 1"
       inkscape:vp_y="0 : 1000 : 0"
       inkscape:vp_x="0 : 0.5 : 1"
       sodipodi:type="inkscape:persp3d" />
    <inkscape:perspective
       id="perspective19237"
       inkscape:persp3d-origin="0.5 : 0.33333333 : 1"
       inkscape:vp_z="1 : 0.5 : 1"
       inkscape:vp_y="0 : 1000 : 0"
       inkscape:vp_x="0 : 0.5 : 1"
       sodipodi:type="inkscape:persp3d" />
    <inkscape:perspective
       id="perspective19370"
       inkscape:persp3d-origin="0.5 : 0.33333333 : 1"
       inkscape:vp_z="1 : 0.5 : 1"
       inkscape:vp_y="0 : 1000 : 0"
       inkscape:vp_x="0 : 0.5 : 1"
       sodipodi:type="inkscape:persp3d" />
    <inkscape:perspective
       id="perspective19602"
       inkscape:persp3d-origin="0.5 : 0.33333333 : 1"
       inkscape:vp_z="1 : 0.5 : 1"
       inkscape:vp_y="0 : 1000 : 0"
       inkscape:vp_x="0 : 0.5 : 1"
       sodipodi:type="inkscape:persp3d" />
    <inkscape:perspective
       id="perspective20716"
       inkscape:persp3d-origin="0.5 : 0.33333333 : 1"
       inkscape:vp_z="1 : 0.5 : 1"
       inkscape:vp_y="0 : 1000 : 0"
       inkscape:vp_x="0 : 0.5 : 1"
       sodipodi:type="inkscape:persp3d" />
    <inkscape:perspective
       id="perspective21209"
       inkscape:persp3d-origin="0.5 : 0.33333333 : 1"
       inkscape:vp_z="1 : 0.5 : 1"
       inkscape:vp_y="0 : 1000 : 0"
       inkscape:vp_x="0 : 0.5 : 1"
       sodipodi:type="inkscape:persp3d" />
    <inkscape:perspective
       id="perspective21702"
       inkscape:persp3d-origin="0.5 : 0.33333333 : 1"
       inkscape:vp_z="1 : 0.5 : 1"
       inkscape:vp_y="0 : 1000 : 0"
       inkscape:vp_x="0 : 0.5 : 1"
       sodipodi:type="inkscape:persp3d" />
    <inkscape:perspective
       id="perspective21841"
       inkscape:persp3d-origin="0.5 : 0.33333333 : 1"
       inkscape:vp_z="1 : 0.5 : 1"
       inkscape:vp_y="0 : 1000 : 0"
       inkscape:vp_x="0 : 0.5 : 1"
       sodipodi:type="inkscape:persp3d" />
    <inkscape:perspective
       id="perspective21980"
       inkscape:persp3d-origin="0.5 : 0.33333333 : 1"
       inkscape:vp_z="1 : 0.5 : 1"
       inkscape:vp_y="0 : 1000 : 0"
       inkscape:vp_x="0 : 0.5 : 1"
       sodipodi:type="inkscape:persp3d" />
    <inkscape:perspective
       id="perspective22869"
       inkscape:persp3d-origin="0.5 : 0.33333333 : 1"
       inkscape:vp_z="1 : 0.5 : 1"
       inkscape:vp_y="0 : 1000 : 0"
       inkscape:vp_x="0 : 0.5 : 1"
       sodipodi:type="inkscape:persp3d" />
    <inkscape:perspective
       id="perspective23315"
       inkscape:persp3d-origin="0.5 : 0.33333333 : 1"
       inkscape:vp_z="1 : 0.5 : 1"
       inkscape:vp_y="0 : 1000 : 0"
       inkscape:vp_x="0 : 0.5 : 1"
       sodipodi:type="inkscape:persp3d" />
    <inkscape:perspective
       id="perspective23535"
       inkscape:persp3d-origin="0.5 : 0.33333333 : 1"
       inkscape:vp_z="1 : 0.5 : 1"
       inkscape:vp_y="0 : 1000 : 0"
       inkscape:vp_x="0 : 0.5 : 1"
       sodipodi:type="inkscape:persp3d" />
    <inkscape:perspective
       id="perspective23806"
       inkscape:persp3d-origin="0.5 : 0.33333333 : 1"
       inkscape:vp_z="1 : 0.5 : 1"
       inkscape:vp_y="0 : 1000 : 0"
       inkscape:vp_x="0 : 0.5 : 1"
       sodipodi:type="inkscape:persp3d" />
    <inkscape:perspective
       id="perspective24002"
       inkscape:persp3d-origin="0.5 : 0.33333333 : 1"
       inkscape:vp_z="1 : 0.5 : 1"
       inkscape:vp_y="0 : 1000 : 0"
       inkscape:vp_x="0 : 0.5 : 1"
       sodipodi:type="inkscape:persp3d" />
  </defs>
  <sodipodi:namedview
     id="base"
     pagecolor="#ffffff"
     bordercolor="#666666"
     borderopacity="1.0"
     inkscape:pageopacity="0.0"
     inkscape:pageshadow="2"
     inkscape:zoom="0.7"
     inkscape:cx="724.96908"
     inkscape:cy="216.5777"
     inkscape:document-units="px"
     inkscape:current-layer="g7744"
     showgrid="false"
     inkscape:window-width="1770"
     inkscape:window-height="1030"
     inkscape:window-x="142"
     inkscape:window-y="-8"
     inkscape:window-maximized="1" />
  <metadata
     id="metadata14807">
    <rdf:RDF>
      <cc:Work
         rdf:about="">
        <dc:format>image/svg+xml</dc:format>
        <dc:type
           rdf:resource="http://purl.org/dc/dcmitype/StillImage" />
        <dc:title></dc:title>
      </cc:Work>
    </rdf:RDF>
  </metadata>
  <g
     inkscape:label="Layer 1"
     inkscape:groupmode="layer"
     id="layer1"
     transform="translate(473.2148,-202.18568)">
    <g
       id="g54805"
       transform="translate(780.44361,-1602.0017)">
      <g
         id="g54496">
        <g
           transform="translate(38.369077,-153.60839)"
           id="g7744"
           inkscape:export-filename="C:\Users\mscavers\Desktop\Math 251 (Fall 2011)\Lecture Notes\Lecture 8\log1.png"
           inkscape:export-xdpi="300"
           inkscape:export-ydpi="300">
          <g
             transform="translate(-5024.9895,751.50217)"
             id="g10591"
             inkscape:export-filename="C:\Users\mscavers\Desktop\Math 251 (Fall 2011)\Lecture Notes\Lectures 10-12\pic7.png"
             inkscape:export-xdpi="200"
             inkscape:export-ydpi="200">
            <path
               id="path10337"
               d="M 3907.806,1421.381 3692.8042,1250.22"
               style="color:#000000;fill:none;stroke:#d40000;stroke-width:3;stroke-linecap:butt;stroke-linejoin:miter;stroke-miterlimit:4;stroke-opacity:1;stroke-dasharray:none;stroke-dashoffset:0;marker:none;visibility:visible;display:inline;overflow:visible;enable-background:accumulate"
               transform="translate(50.9117,-42.4264)" />
            <g
               transform="translate(280.3628,-12554.005)"
               id="g9339">
              <g
                 id="g67625-0-4-5-7-6"
                 transform="translate(-3540.5589,14739.511)">
                <text
                   sodipodi:linespacing="120%"
                   id="text3006-2-0-5-4-9-2-5-7"
                   y="-663.60559"
                   x="8037.3745"
                   style="font-size:29.76207542px;font-style:normal;font-variant:normal;font-weight:normal;font-stretch:normal;text-align:center;line-height:120.00000477%;writing-mode:lr-tb;text-anchor:middle;fill:#000000;fill-opacity:1;stroke:none;font-family:Cambria Math;-inkscape-font-specification:Cambria Math"
                   xml:space="preserve"><tspan
                     y="-663.60559"
                     x="8037.3745"
                     id="tspan3008-6-7-7-2-6-0-0-3"
                     sodipodi:role="line">x</tspan></text>
                <text
                   sodipodi:linespacing="120%"
                   id="text3010-0-4-9-1-5-0-0-8"
                   y="-956.16962"
                   x="7502.9678"
                   style="font-size:29.76207542px;font-style:normal;font-variant:normal;font-weight:normal;font-stretch:normal;text-align:center;line-height:120.00000477%;writing-mode:lr-tb;text-anchor:middle;fill:#000000;fill-opacity:1;stroke:none;font-family:Cambria Math;-inkscape-font-specification:Cambria Math"
                   xml:space="preserve"><tspan
                     y="-956.16962"
                     x="7502.9678"
                     id="tspan3012-6-7-0-9-1-3-4-4"
                     sodipodi:role="line">y</tspan></text>
                <path
                   id="path3004-1-3-8-7-09-9-5-9"
                   d="m 7524.8305,-687.32781 518.5655,0"
                   style="color:#000000;fill:none;stroke:#000000;stroke-width:1.5;stroke-linecap:butt;stroke-linejoin:miter;stroke-miterlimit:4;stroke-opacity:1;stroke-dasharray:none;stroke-dashoffset:0;marker:none;visibility:visible;display:inline;overflow:visible;enable-background:accumulate"
                   sodipodi:nodetypes="cc" />
                <path
                   id="path3014-1-3-1-4-9-83-1-4-2"
                   d="m 7582.4164,-694.85129 0,18"
                   style="color:#000000;fill:none;stroke:#000000;stroke-width:1.5;stroke-linecap:butt;stroke-linejoin:miter;stroke-miterlimit:4;stroke-opacity:1;stroke-dasharray:none;stroke-dashoffset:0;marker:none;visibility:visible;display:inline;overflow:visible;enable-background:accumulate" />
                <path
                   id="path3014-9-0-0-2-3-8-8-9-6"
                   d="m 7644.4573,-694.85129 0,18"
                   style="color:#000000;fill:none;stroke:#000000;stroke-width:1.5;stroke-linecap:butt;stroke-linejoin:miter;stroke-miterlimit:4;stroke-opacity:1;stroke-dasharray:none;stroke-dashoffset:0;marker:none;visibility:visible;display:inline;overflow:visible;enable-background:accumulate" />
                <path
                   id="path3014-2-8-3-5-1-99-1-5-5"
                   d="m 7706.4982,-694.85129 0,18"
                   style="color:#000000;fill:none;stroke:#000000;stroke-width:1.5;stroke-linecap:butt;stroke-linejoin:miter;stroke-miterlimit:4;stroke-opacity:1;stroke-dasharray:none;stroke-dashoffset:0;marker:none;visibility:visible;display:inline;overflow:visible;enable-background:accumulate" />
                <path
                   id="path3014-7-0-5-1-5-5-9-6-7"
                   d="m 7768.5391,-694.85129 0,18"
                   style="color:#000000;fill:none;stroke:#000000;stroke-width:1.5;stroke-linecap:butt;stroke-linejoin:miter;stroke-miterlimit:4;stroke-opacity:1;stroke-dasharray:none;stroke-dashoffset:0;marker:none;visibility:visible;display:inline;overflow:visible;enable-background:accumulate" />
                <g
                   id="g3101-7-2-1-6-9-33-5-4-7"
                   transform="matrix(0,-1,1,0,7235.9835,-525.03804)">
                  <path
                     style="color:#000000;fill:none;stroke:#000000;stroke-width:1.5;stroke-linecap:butt;stroke-linejoin:miter;stroke-miterlimit:4;stroke-opacity:1;stroke-dasharray:none;stroke-dashoffset:0;marker:none;visibility:visible;display:inline;overflow:visible;enable-background:accumulate"
                     d="m 162.53064,289.36218 283.46936,0"
                     id="path3004-6-9-4-4-5-7-3-8-4"
                     sodipodi:nodetypes="cc" />
                  <path
                     style="color:#000000;fill:none;stroke:#000000;stroke-width:1.5;stroke-linecap:butt;stroke-linejoin:miter;stroke-miterlimit:4;stroke-opacity:1;stroke-dasharray:none;stroke-dashoffset:0;marker:none;visibility:visible;display:inline;overflow:visible;enable-background:accumulate"
                     d="m 217.02044,280.36218 0,18"
                     id="path3014-1-2-8-6-2-8-8-2-2-5" />
                  <path
                     style="color:#000000;fill:none;stroke:#000000;stroke-width:1.5;stroke-linecap:butt;stroke-linejoin:miter;stroke-miterlimit:4;stroke-opacity:1;stroke-dasharray:none;stroke-dashoffset:0;marker:none;visibility:visible;display:inline;overflow:visible;enable-background:accumulate"
                     d="m 279.06134,280.36218 0,18"
                     id="path3014-9-2-5-0-1-3-8-5-1-7" />
                  <path
                     style="color:#000000;fill:none;stroke:#000000;stroke-width:1.5;stroke-linecap:butt;stroke-linejoin:miter;stroke-miterlimit:4;stroke-opacity:1;stroke-dasharray:none;stroke-dashoffset:0;marker:none;visibility:visible;display:inline;overflow:visible;enable-background:accumulate"
                     d="m 341.10223,280.36218 0,18"
                     id="path3014-2-1-7-5-4-1-81-2-6-9" />
                  <path
                     style="color:#000000;fill:none;stroke:#000000;stroke-width:1.5;stroke-linecap:butt;stroke-linejoin:miter;stroke-miterlimit:4;stroke-opacity:1;stroke-dasharray:none;stroke-dashoffset:0;marker:none;visibility:visible;display:inline;overflow:visible;enable-background:accumulate"
                     d="m 403.14313,280.36218 0,18"
                     id="path3014-7-8-8-6-9-6-8-5-8-8" />
                </g>
                <g
                   transform="matrix(-1,0,0,-1,7685.2953,-397.96563)"
                   id="g3101-1-8-4-8-8-7-8-3-3">
                  <path
                     style="color:#000000;fill:none;stroke:#000000;stroke-width:1.5;stroke-linecap:butt;stroke-linejoin:miter;stroke-miterlimit:4;stroke-opacity:1;stroke-dasharray:none;stroke-dashoffset:0;marker:none;visibility:visible;display:inline;overflow:visible;enable-background:accumulate"
                     d="m 160.38719,289.36218 531,0"
                     id="path3004-1-3-8-9-8-22-6-1-0"
                     sodipodi:nodetypes="cc" />
                  <path
                     style="color:#000000;fill:none;stroke:#000000;stroke-width:1.5;stroke-linecap:butt;stroke-linejoin:miter;stroke-miterlimit:4;stroke-opacity:1;stroke-dasharray:none;stroke-dashoffset:0;marker:none;visibility:visible;display:inline;overflow:visible;enable-background:accumulate"
                     d="m 217.02044,280.36218 0,18"
                     id="path3014-1-3-1-4-7-9-890-7-4-2" />
                  <path
                     style="color:#000000;fill:none;stroke:#000000;stroke-width:1.5;stroke-linecap:butt;stroke-linejoin:miter;stroke-miterlimit:4;stroke-opacity:1;stroke-dasharray:none;stroke-dashoffset:0;marker:none;visibility:visible;display:inline;overflow:visible;enable-background:accumulate"
                     d="m 279.06134,280.36218 0,18"
                     id="path3014-9-0-0-2-6-1-81-7-8-2" />
                  <path
                     style="color:#000000;fill:none;stroke:#000000;stroke-width:1.5;stroke-linecap:butt;stroke-linejoin:miter;stroke-miterlimit:4;stroke-opacity:1;stroke-dasharray:none;stroke-dashoffset:0;marker:none;visibility:visible;display:inline;overflow:visible;enable-background:accumulate"
                     d="m 341.10223,280.36218 0,18"
                     id="path3014-2-8-3-5-0-3-8-2-4-3" />
                  <path
                     style="color:#000000;fill:none;stroke:#000000;stroke-width:1.5;stroke-linecap:butt;stroke-linejoin:miter;stroke-miterlimit:4;stroke-opacity:1;stroke-dasharray:none;stroke-dashoffset:0;marker:none;visibility:visible;display:inline;overflow:visible;enable-background:accumulate"
                     d="m 403.14313,280.36218 0,18"
                     id="path3014-7-0-5-1-3-3-1-2-9-6" />
                </g>
                <g
                   id="g3101-7-2-1-6-6-2-4-9-2-7"
                   transform="matrix(0,1,-1,0,7814.7078,-848.14106)">
                  <path
                     style="color:#000000;fill:none;stroke:#000000;stroke-width:1.5;stroke-linecap:butt;stroke-linejoin:miter;stroke-miterlimit:4;stroke-opacity:1;stroke-dasharray:none;stroke-dashoffset:0;marker:none;visibility:visible;display:inline;overflow:visible;enable-background:accumulate"
                     d="m 161.10167,289.36218 284.89833,0"
                     id="path3004-6-9-4-4-0-7-25-4-0-1"
                     sodipodi:nodetypes="cc" />
                  <path
                     style="color:#000000;fill:none;stroke:#000000;stroke-width:1.5;stroke-linecap:butt;stroke-linejoin:miter;stroke-miterlimit:4;stroke-opacity:1;stroke-dasharray:none;stroke-dashoffset:0;marker:none;visibility:visible;display:inline;overflow:visible;enable-background:accumulate"
                     d="m 217.02044,280.36218 0,18"
                     id="path3014-1-2-8-6-2-7-1-6-1-7-5" />
                  <path
                     style="color:#000000;fill:none;stroke:#000000;stroke-width:1.5;stroke-linecap:butt;stroke-linejoin:miter;stroke-miterlimit:4;stroke-opacity:1;stroke-dasharray:none;stroke-dashoffset:0;marker:none;visibility:visible;display:inline;overflow:visible;enable-background:accumulate"
                     d="m 279.06134,280.36218 0,18"
                     id="path3014-9-2-5-0-1-4-6-5-9-0-5" />
                  <path
                     style="color:#000000;fill:none;stroke:#000000;stroke-width:1.5;stroke-linecap:butt;stroke-linejoin:miter;stroke-miterlimit:4;stroke-opacity:1;stroke-dasharray:none;stroke-dashoffset:0;marker:none;visibility:visible;display:inline;overflow:visible;enable-background:accumulate"
                     d="m 341.10223,280.36218 0,18"
                     id="path3014-2-1-7-5-4-0-7-92-6-6-4" />
                  <path
                     style="color:#000000;fill:none;stroke:#000000;stroke-width:1.5;stroke-linecap:butt;stroke-linejoin:miter;stroke-miterlimit:4;stroke-opacity:1;stroke-dasharray:none;stroke-dashoffset:0;marker:none;visibility:visible;display:inline;overflow:visible;enable-background:accumulate"
                     d="m 403.14313,280.36218 0,18"
                     id="path3014-7-8-8-6-9-1-0-6-9-0-0" />
                </g>
              </g>
              <path
                 style="color:#000000;fill:none;stroke:#000000;stroke-width:1.5;stroke-linecap:butt;stroke-linejoin:miter;stroke-miterlimit:4;stroke-opacity:1;stroke-dasharray:none;stroke-dashoffset:0;marker:none;visibility:visible;display:inline;overflow:visible;enable-background:accumulate"
                 d="m 3680.5741,14061.921 0,-18"
                 id="path3014-1-3-1-4-7-9-890-7-4-2-2" />
              <path
                 style="color:#000000;fill:none;stroke:#000000;stroke-width:1.5;stroke-linecap:butt;stroke-linejoin:miter;stroke-miterlimit:4;stroke-opacity:1;stroke-dasharray:none;stroke-dashoffset:0;marker:none;visibility:visible;display:inline;overflow:visible;enable-background:accumulate"
                 d="m 3618.5332,14061.921 0,-18"
                 id="path3014-9-0-0-2-6-1-81-7-8-2-6" />
              <path
                 style="color:#000000;fill:none;stroke:#000000;stroke-width:1.5;stroke-linecap:butt;stroke-linejoin:miter;stroke-miterlimit:4;stroke-opacity:1;stroke-dasharray:none;stroke-dashoffset:0;marker:none;visibility:visible;display:inline;overflow:visible;enable-background:accumulate"
                 d="m 3556.4924,14061.921 0,-18"
                 id="path3014-2-8-3-5-0-3-8-2-4-3-0" />
              <path
                 style="color:#000000;fill:none;stroke:#000000;stroke-width:1.5;stroke-linecap:butt;stroke-linejoin:miter;stroke-miterlimit:4;stroke-opacity:1;stroke-dasharray:none;stroke-dashoffset:0;marker:none;visibility:visible;display:inline;overflow:visible;enable-background:accumulate"
                 d="m 3494.4515,14061.921 0,-18"
                 id="path3014-7-0-5-1-3-3-1-2-9-6-6" />
              <path
                 style="color:#000000;fill:none;stroke:#000000;stroke-width:1.5;stroke-linecap:butt;stroke-linejoin:miter;stroke-miterlimit:4;stroke-opacity:1;stroke-dasharray:none;stroke-dashoffset:0;marker:none;visibility:visible;display:inline;overflow:visible;enable-background:accumulate"
                 d="m 4478.1174,14061.921 0,-18"
                 id="path3014-1-3-1-4-7-9-890-7-4-2-1" />
              <path
                 style="color:#000000;fill:none;stroke:#000000;stroke-width:1.5;stroke-linecap:butt;stroke-linejoin:miter;stroke-miterlimit:4;stroke-opacity:1;stroke-dasharray:none;stroke-dashoffset:0;marker:none;visibility:visible;display:inline;overflow:visible;enable-background:accumulate"
                 d="m 4416.0765,14061.921 0,-18"
                 id="path3014-9-0-0-2-6-1-81-7-8-2-1" />
              <path
                 style="color:#000000;fill:none;stroke:#000000;stroke-width:1.5;stroke-linecap:butt;stroke-linejoin:miter;stroke-miterlimit:4;stroke-opacity:1;stroke-dasharray:none;stroke-dashoffset:0;marker:none;visibility:visible;display:inline;overflow:visible;enable-background:accumulate"
                 d="m 4354.0357,14061.921 0,-18"
                 id="path3014-2-8-3-5-0-3-8-2-4-3-7" />
              <path
                 style="color:#000000;fill:none;stroke:#000000;stroke-width:1.5;stroke-linecap:butt;stroke-linejoin:miter;stroke-miterlimit:4;stroke-opacity:1;stroke-dasharray:none;stroke-dashoffset:0;marker:none;visibility:visible;display:inline;overflow:visible;enable-background:accumulate"
                 d="m 4291.9948,14061.921 0,-18"
                 id="path3014-7-0-5-1-3-3-1-2-9-6-3" />
            </g>
            <path
               sodipodi:nodetypes="cs"
               id="path9379"
               d="m 4732.5072,1538.277 c -276.7204,-0.121 -276.849,0.544 -273.7071,-282.293"
               style="color:#000000;fill:none;stroke:#d40000;stroke-width:3;stroke-linecap:butt;stroke-linejoin:miter;stroke-miterlimit:4;stroke-opacity:1;stroke-dasharray:none;stroke-dashoffset:0;marker:none;visibility:visible;display:inline;overflow:visible;enable-background:accumulate"
               transform="translate(50.9117,-42.4264)" />
            <path
               sodipodi:nodetypes="cc"
               id="path10153"
               d="m 4457.0931,1829.277 0,-575"
               style="color:#000000;fill:none;stroke:#000000;stroke-width:3;stroke-linecap:butt;stroke-linejoin:miter;stroke-miterlimit:4;stroke-opacity:1;stroke-dasharray:12, 24;stroke-dashoffset:0;marker:none;visibility:visible;display:inline;overflow:visible;enable-background:accumulate"
               transform="translate(50.9117,-42.4264)" />
            <path
               transform="matrix(1.4248895,0,0,1.4248895,-7112.1911,-4537.7637)"
               d="m 7905.4541,4235.2437 c 0,2.3431 -1.8995,4.2426 -4.2427,4.2426 -2.3431,0 -4.2426,-1.8995 -4.2426,-4.2426 0,-2.3432 1.8995,-4.2427 4.2426,-4.2427 2.3432,0 4.2427,1.8995 4.2427,4.2427 z"
               sodipodi:ry="4.2426405"
               sodipodi:rx="4.2426405"
               sodipodi:cy="4235.2437"
               sodipodi:cx="7901.2114"
               id="path10155-0"
               style="color:#000000;fill:#ff0000;fill-opacity:1;fill-rule:evenodd;stroke:#000000;stroke-width:1.5;stroke-linecap:butt;stroke-linejoin:miter;stroke-miterlimit:4;stroke-opacity:1;stroke-dasharray:none;stroke-dashoffset:0;marker:none;visibility:visible;display:inline;overflow:visible;enable-background:accumulate"
               sodipodi:type="arc" />
            <path
               transform="matrix(1.4248895,0,0,1.4248895,-6750.2342,-4536.673)"
               d="m 7905.4541,4235.2437 c 0,2.3431 -1.8995,4.2426 -4.2427,4.2426 -2.3431,0 -4.2426,-1.8995 -4.2426,-4.2426 0,-2.3432 1.8995,-4.2427 4.2426,-4.2427 2.3432,0 4.2427,1.8995 4.2427,4.2427 z"
               sodipodi:ry="4.2426405"
               sodipodi:rx="4.2426405"
               sodipodi:cy="4235.2437"
               sodipodi:cx="7901.2114"
               id="path10155-0-8"
               style="color:#000000;fill:#d40000;fill-opacity:1;fill-rule:evenodd;stroke:#000000;stroke-width:1.5;stroke-linecap:butt;stroke-linejoin:miter;stroke-miterlimit:4;stroke-opacity:1;stroke-dasharray:none;stroke-dashoffset:0;marker:none;visibility:visible;display:inline;overflow:visible;enable-background:accumulate"
               sodipodi:type="arc" />
            <path
               id="path10223"
               d="m 4458.5072,1659.2768 -298,0"
               style="color:#000000;fill:none;stroke:#d40000;stroke-width:3;stroke-linecap:butt;stroke-linejoin:miter;stroke-miterlimit:4;stroke-opacity:1;stroke-dasharray:none;stroke-dashoffset:0;marker:none;visibility:visible;display:inline;overflow:visible;enable-background:accumulate"
               transform="translate(50.9117,-42.4264)" />
            <path
               transform="matrix(1.4248895,0,0,1.4248895,-6750.3438,-4418.6421)"
               d="m 7905.4541,4235.2437 c 0,2.3431 -1.8995,4.2426 -4.2427,4.2426 -2.3431,0 -4.2426,-1.8995 -4.2426,-4.2426 0,-2.3432 1.8995,-4.2427 4.2426,-4.2427 2.3432,0 4.2427,1.8995 4.2427,4.2427 z"
               sodipodi:ry="4.2426405"
               sodipodi:rx="4.2426405"
               sodipodi:cy="4235.2437"
               sodipodi:cx="7901.2114"
               id="path10155"
               style="color:#000000;fill:#f9f9f9;fill-opacity:1;fill-rule:evenodd;stroke:#000000;stroke-width:1.5;stroke-linecap:butt;stroke-linejoin:miter;stroke-miterlimit:4;stroke-opacity:1;stroke-dasharray:none;stroke-dashoffset:0;marker:none;visibility:visible;display:inline;overflow:visible;enable-background:accumulate"
               sodipodi:type="arc" />
            <path
               transform="matrix(1.4248895,0,0,1.4248895,-7050.8233,-4418.2573)"
               d="m 7905.4541,4235.2437 c 0,2.3431 -1.8995,4.2426 -4.2427,4.2426 -2.3431,0 -4.2426,-1.8995 -4.2426,-4.2426 0,-2.3432 1.8995,-4.2427 4.2426,-4.2427 2.3432,0 4.2427,1.8995 4.2427,4.2427 z"
               sodipodi:ry="4.2426405"
               sodipodi:rx="4.2426405"
               sodipodi:cy="4235.2437"
               sodipodi:cx="7901.2114"
               id="path10155-0-8-3"
               style="color:#000000;fill:#d40000;fill-opacity:1;fill-rule:evenodd;stroke:#000000;stroke-width:1.5;stroke-linecap:butt;stroke-linejoin:miter;stroke-miterlimit:4;stroke-opacity:1;stroke-dasharray:none;stroke-dashoffset:0;marker:none;visibility:visible;display:inline;overflow:visible;enable-background:accumulate"
               sodipodi:type="arc" />
            <path
               sodipodi:nodetypes="cc"
               id="path10269"
               d="m 4157.5333,1540.803 c 3.7157,-277.996 -126.0293,-278.736 -124.3022,0.75"
               style="color:#000000;fill:none;stroke:#d40000;stroke-width:2.44785953;stroke-linecap:butt;stroke-linejoin:miter;stroke-miterlimit:4;stroke-opacity:1;stroke-dasharray:none;stroke-dashoffset:0;marker:none;visibility:visible;display:inline;overflow:visible;enable-background:accumulate"
               transform="translate(50.9117,-42.4264)" />
            <path
               transform="matrix(1.4248895,0,0,1.4248895,-7111.8735,-4743.8331)"
               d="m 7905.4541,4235.2437 c 0,2.3431 -1.8995,4.2426 -4.2427,4.2426 -2.3431,0 -4.2426,-1.8995 -4.2426,-4.2426 0,-2.3432 1.8995,-4.2427 4.2426,-4.2427 2.3432,0 4.2427,1.8995 4.2427,4.2427 z"
               sodipodi:ry="4.2426405"
               sodipodi:rx="4.2426405"
               sodipodi:cy="4235.2437"
               sodipodi:cx="7901.2114"
               id="path10155-04"
               style="color:#000000;fill:#f9f9f9;fill-opacity:1;fill-rule:evenodd;stroke:#000000;stroke-width:1.5;stroke-linecap:butt;stroke-linejoin:miter;stroke-miterlimit:4;stroke-opacity:1;stroke-dasharray:none;stroke-dashoffset:0;marker:none;visibility:visible;display:inline;overflow:visible;enable-background:accumulate"
               sodipodi:type="arc" />
            <path
               sodipodi:nodetypes="cc"
               id="path10269-1"
               d="m 4033.2525,1541.749 c 2.7157,263.996 -79.2793,255.486 -121.5522,180"
               style="color:#000000;fill:none;stroke:#d40000;stroke-width:2.44785953;stroke-linecap:butt;stroke-linejoin:miter;stroke-miterlimit:4;stroke-opacity:1;stroke-dasharray:none;stroke-dashoffset:0;marker:none;visibility:visible;display:inline;overflow:visible;enable-background:accumulate"
               transform="translate(50.9117,-42.4264)" />
            <path
               transform="matrix(1.4248895,0,0,1.4248895,-7298.5956,-4653.8759)"
               d="m 7905.4541,4235.2437 c 0,2.3431 -1.8995,4.2426 -4.2427,4.2426 -2.3431,0 -4.2426,-1.8995 -4.2426,-4.2426 0,-2.3432 1.8995,-4.2427 4.2426,-4.2427 2.3432,0 4.2427,1.8995 4.2427,4.2427 z"
               sodipodi:ry="4.2426405"
               sodipodi:rx="4.2426405"
               sodipodi:cy="4235.2437"
               sodipodi:cx="7901.2114"
               id="path10155-04-03"
               style="color:#000000;fill:#f9f9f9;fill-opacity:1;fill-rule:evenodd;stroke:#000000;stroke-width:1.5;stroke-linecap:butt;stroke-linejoin:miter;stroke-miterlimit:4;stroke-opacity:1;stroke-dasharray:none;stroke-dashoffset:0;marker:none;visibility:visible;display:inline;overflow:visible;enable-background:accumulate"
               sodipodi:type="arc" />
            <path
               transform="matrix(1.4248895,0,0,1.4248895,-7296.8277,-4358.1285)"
               d="m 7905.4541,4235.2437 c 0,2.3431 -1.8995,4.2426 -4.2427,4.2426 -2.3431,0 -4.2426,-1.8995 -4.2426,-4.2426 0,-2.3432 1.8995,-4.2427 4.2426,-4.2427 2.3432,0 4.2427,1.8995 4.2427,4.2427 z"
               sodipodi:ry="4.2426405"
               sodipodi:rx="4.2426405"
               sodipodi:cy="4235.2437"
               sodipodi:cx="7901.2114"
               id="path10155-04-8"
               style="color:#000000;fill:#f9f9f9;fill-opacity:1;fill-rule:evenodd;stroke:#000000;stroke-width:1.5;stroke-linecap:butt;stroke-linejoin:miter;stroke-miterlimit:4;stroke-opacity:1;stroke-dasharray:none;stroke-dashoffset:0;marker:none;visibility:visible;display:inline;overflow:visible;enable-background:accumulate"
               sodipodi:type="arc" />
            <path
               transform="matrix(1.4248895,0,0,1.4248895,-7049.9342,-4536.4039)"
               d="m 7905.4541,4235.2437 c 0,2.3431 -1.8995,4.2426 -4.2427,4.2426 -2.3431,0 -4.2426,-1.8995 -4.2426,-4.2426 0,-2.3432 1.8995,-4.2427 4.2426,-4.2427 2.3432,0 4.2427,1.8995 4.2427,4.2427 z"
               sodipodi:ry="4.2426405"
               sodipodi:rx="4.2426405"
               sodipodi:cy="4235.2437"
               sodipodi:cx="7901.2114"
               id="path10155-04-0"
               style="color:#000000;fill:#f9f9f9;fill-opacity:1;fill-rule:evenodd;stroke:#000000;stroke-width:1.5;stroke-linecap:butt;stroke-linejoin:miter;stroke-miterlimit:4;stroke-opacity:1;stroke-dasharray:none;stroke-dashoffset:0;marker:none;visibility:visible;display:inline;overflow:visible;enable-background:accumulate"
               sodipodi:type="arc" />
            <g
               inkscape:export-ydpi="200"
               inkscape:export-xdpi="200"
               inkscape:export-filename="C:\Users\mscavers\Desktop\Math 251 (Fall 2011)\Lecture Notes\Lectures 10-12\pic7.png"
               style="fill:#d40000"
               transform="matrix(1.2067606,0,0,1.2067606,-601.66535,-382.23586)"
               id="g10533">
              <path
                 id="path37082-2-5"
                 d="m 4383.8208,1340.1538 2.7787,0 c 0.6413,0 0.9651,0 0.9651,-0.6413 0,-0.3562 -0.3238,-0.3562 -0.8679,-0.3562 l -2.6815,0 0.6801,-3.679 c 0.123,-0.6801 0.5764,-2.9666 0.7707,-3.3552 0.2915,-0.6089 0.8421,-1.0946 1.5157,-1.0946 0.1295,0 0.9716,0 1.5804,0.5764 -1.4185,0.1296 -1.7423,1.2631 -1.7423,1.7424 0,0.7449 0.5829,1.1335 1.1982,1.1335 0.8356,0 1.7748,-0.7125 1.7748,-1.9367 0,-1.4833 -1.4833,-2.2281 -2.8111,-2.2281 -1.0947,0 -3.1285,0.5829 -4.0936,3.7762 -0.1943,0.68 -0.2914,0.9974 -1.0687,5.0651 l -2.2217,0 c -0.6153,0 -0.9715,0 -0.9715,0.6153 0,0.3822 0.2915,0.3822 0.9068,0.3822 l 2.131,0 -2.4225,12.747 c -0.5829,3.1284 -1.127,6.069 -2.8046,6.069 -0.1295,0 -0.9392,0 -1.5545,-0.5829 1.4833,-0.097 1.7747,-1.2566 1.7747,-1.7424 0,-0.7448 -0.5764,-1.127 -1.1918,-1.127 -0.8355,0 -1.7747,0.706 -1.7747,1.9302 0,1.4574 1.4185,2.2281 2.7463,2.2281 1.7683,0 3.0572,-1.9042 3.6402,-3.1284 1.0363,-2.0338 1.7747,-5.9395 1.8071,-6.1598 z"
                 style="font-style:normal;font-variant:normal;font-weight:normal;font-stretch:normal;letter-spacing:normal;word-spacing:normal;text-anchor:start;fill:#d40000;stroke:#000000;stroke-width:0;stroke-linecap:butt;stroke-linejoin:miter;stroke-miterlimit:10.43299961;stroke-opacity:1;stroke-dasharray:none;stroke-dashoffset:0" />
              <path
                 id="path37084-0-7"
                 d="m 4402.0928,1360.8093 0,-0.019 0,-0.019 -0.01,-0.01 0,-0.013 0,-0.01 -0.01,-0.013 0,-0.013 -0.01,-0.01 -0.01,-0.013 -0.01,-0.013 -0.01,-0.019 -0.01,-0.013 -0.013,-0.013 -0.013,-0.019 -0.013,-0.02 -0.013,-0.019 -0.019,-0.019 -0.019,-0.026 -0.01,-0.013 -0.013,-0.013 -0.013,-0.013 -0.013,-0.013 -0.013,-0.013 -0.013,-0.019 -0.013,-0.013 -0.013,-0.013 -0.013,-0.019 -0.019,-0.013 -0.013,-0.019 -0.019,-0.019 -0.013,-0.019 -0.019,-0.019 -0.02,-0.02 -0.019,-0.019 -0.019,-0.019 -0.019,-0.019 -0.026,-0.026 -0.019,-0.019 -0.026,-0.026 -0.019,-0.019 -0.026,-0.026 -0.026,-0.026 c -4.0351,-4.0677 -5.0649,-10.1627 -5.0649,-15.0983 0,-5.6156 1.2306,-11.2313 5.1946,-15.2666 0.421,-0.3821 0.421,-0.4469 0.421,-0.544 0,-0.2267 -0.1295,-0.3239 -0.3238,-0.3239 -0.3239,0 -3.2256,2.1957 -5.1299,6.2958 -1.6452,3.543 -2.0338,7.1248 -2.0338,9.8387 0,2.5132 0.3562,6.4189 2.131,10.0655 1.9366,3.964 4.7088,6.0626 5.0327,6.0626 0.1943,0 0.3238,-0.097 0.3238,-0.3174 z"
                 style="font-style:normal;font-variant:normal;font-weight:normal;font-stretch:normal;letter-spacing:normal;word-spacing:normal;text-anchor:start;fill:#d40000;stroke:#000000;stroke-width:0;stroke-linecap:butt;stroke-linejoin:miter;stroke-miterlimit:10.43299961;stroke-opacity:1;stroke-dasharray:none;stroke-dashoffset:0" />
              <path
                 id="path37086-0-7"
                 d="m 4414.4707,1343.3211 0.065,-0.084 0,-0.097 0,-0.1101 0.065,-0.1166 0,-0.1231 0.065,-0.136 0.065,-0.136 0,-0.149 0.065,-0.1489 0.065,-0.1555 0.065,-0.1619 0.065,-0.1555 0.065,-0.1619 0.065,-0.1619 0.1295,-0.162 0.065,-0.1619 0.1295,-0.1554 0.065,-0.1555 0.1295,-0.149 0.1296,-0.1425 0.065,-0.1425 0.1296,-0.1295 0.1295,-0.1231 0.1943,-0.1166 0.1296,-0.1036 0.1295,-0.091 0.1296,-0.045 0.065,-0.039 0.065,-0.032 0.1296,-0.032 0.065,-0.032 0.065,-0.026 0.1295,-0.019 0.065,-0.019 0.1295,-0.013 0.065,-0.013 0.1296,-0.01 0.1295,0 c 0.1295,0 0.9068,0 1.6193,0.421 -0.9068,0.1619 -1.5545,0.9651 -1.5545,1.7359 0,0.5181 0.3238,1.1335 1.2306,1.1335 0.7125,0 1.7489,-0.583 1.7489,-1.8719 0,-1.6776 -1.9432,-2.131 -3.0443,-2.131 -1.8784,0 -2.9795,1.71 -3.3681,2.4548 -0.842,-2.1309 -2.5261,-2.4548 -3.4977,-2.4548 -3.3681,0 -5.1882,4.1648 -5.1882,4.968 0,0.3238 0.3239,0.3238 0.3887,0.3238 0.2526,0 0.3303,-0.065 0.3951,-0.3497 1.1011,-3.4264 3.2385,-4.2296 4.3397,-4.2296 0.6477,0 1.7488,0.2915 1.7488,2.1569 0,1.0039 -0.5182,3.1673 -1.7488,7.6819 -0.5182,2.0014 -1.6193,3.3551 -3.0443,3.3551 -0.1943,0 -0.9716,0 -1.6258,-0.421 0.7838,-0.1619 1.4963,-0.8355 1.4963,-1.7423 0,-0.868 -0.7125,-1.1271 -1.1659,-1.1271 -0.9781,0 -1.7812,0.8421 -1.7812,1.8719 0,1.4833 1.6063,2.131 3.0118,2.131 2.1375,0 3.3034,-2.2605 3.4329,-2.4548 0.3886,1.1982 1.5545,2.4548 3.4329,2.4548 3.3681,0 5.1817,-4.1648 5.1817,-4.9744 0,-0.3174 -0.2591,-0.3174 -0.3886,-0.3174 -0.2591,0 -0.3239,0.1295 -0.3886,0.3562 -1.1012,3.4523 -3.3034,4.2231 -4.3397,4.2231 -1.2307,0 -1.7489,-1.0298 -1.7489,-2.131 0,-0.706 0.1944,-1.4185 0.583,-2.8369 z"
                 style="font-style:normal;font-variant:normal;font-weight:normal;font-stretch:normal;letter-spacing:normal;word-spacing:normal;text-anchor:start;fill:#d40000;stroke:#000000;stroke-width:0;stroke-linecap:butt;stroke-linejoin:miter;stroke-miterlimit:10.43299961;stroke-opacity:1;stroke-dasharray:none;stroke-dashoffset:0" />
              <path
                 id="path37088-1-0"
                 d="m 4431.8294,1344.9986 0,-0.2396 0,-0.2526 0,-0.2526 0,-0.2656 -0.065,-0.5441 0,-0.57 -0.065,-0.5958 -0.065,-0.6089 -0.1296,-0.6348 -0.065,-0.6477 -0.1296,-0.6606 -0.1295,-0.6737 -0.1943,-0.6801 -0.1944,-0.6865 -0.259,-0.6866 -0.2591,-0.6931 -0.1296,-0.3433 -0.1295,-0.3497 -0.1296,-0.3433 -0.1943,-0.3433 c -1.9431,-3.964 -4.7283,-6.0626 -5.0521,-6.0626 -0.1943,0 -0.3239,0.1295 -0.3239,0.3239 0,0.097 0,0.1619 0.6477,0.7448 3.1738,3.1868 4.9874,8.3231 4.9874,15.0658 0,5.5186 -1.1659,11.1925 -5.1817,15.2602 -0.4534,0.3886 -0.4534,0.4469 -0.4534,0.5505 0,0.1879 0.1296,0.3174 0.3239,0.3174 0.3238,0 3.2385,-2.1892 5.1817,-6.2893 1.6193,-3.5494 2.0079,-7.1313 2.0079,-9.8388 z"
                 style="font-style:normal;font-variant:normal;font-weight:normal;font-stretch:normal;letter-spacing:normal;word-spacing:normal;text-anchor:start;fill:#d40000;stroke:#000000;stroke-width:0;stroke-linecap:butt;stroke-linejoin:miter;stroke-miterlimit:10.43299961;stroke-opacity:1;stroke-dasharray:none;stroke-dashoffset:0" />
            </g>
          </g>
        </g>
      </g>
    </g>
  </g>
</svg>
