<?xml version="1.0" encoding="UTF-8" standalone="no"?>
<!-- Created with Inkscape (http://www.inkscape.org/) -->

<svg
   xmlns:dc="http://purl.org/dc/elements/1.1/"
   xmlns:cc="http://creativecommons.org/ns#"
   xmlns:rdf="http://www.w3.org/1999/02/22-rdf-syntax-ns#"
   xmlns:svg="http://www.w3.org/2000/svg"
   xmlns="http://www.w3.org/2000/svg"
   xmlns:sodipodi="http://sodipodi.sourceforge.net/DTD/sodipodi-0.dtd"
   xmlns:inkscape="http://www.inkscape.org/namespaces/inkscape"
   width="883.591"
   height="403.52298"
   id="svg25990"
   version="1.1"
   inkscape:version="0.47 r22583"
   sodipodi:docname="rolle.eps">
  <defs
     id="defs25992">
    <inkscape:perspective
       sodipodi:type="inkscape:persp3d"
       inkscape:vp_x="0 : 526.18109 : 1"
       inkscape:vp_y="0 : 1000 : 0"
       inkscape:vp_z="744.09448 : 526.18109 : 1"
       inkscape:persp3d-origin="372.04724 : 350.78739 : 1"
       id="perspective25998" />
    <inkscape:perspective
       id="perspective25943"
       inkscape:persp3d-origin="0.5 : 0.33333333 : 1"
       inkscape:vp_z="1 : 0.5 : 1"
       inkscape:vp_y="0 : 1000 : 0"
       inkscape:vp_x="0 : 0.5 : 1"
       sodipodi:type="inkscape:persp3d" />
    <inkscape:perspective
       id="perspective26101"
       inkscape:persp3d-origin="0.5 : 0.33333333 : 1"
       inkscape:vp_z="1 : 0.5 : 1"
       inkscape:vp_y="0 : 1000 : 0"
       inkscape:vp_x="0 : 0.5 : 1"
       sodipodi:type="inkscape:persp3d" />
    <inkscape:perspective
       id="perspective26240"
       inkscape:persp3d-origin="0.5 : 0.33333333 : 1"
       inkscape:vp_z="1 : 0.5 : 1"
       inkscape:vp_y="0 : 1000 : 0"
       inkscape:vp_x="0 : 0.5 : 1"
       sodipodi:type="inkscape:persp3d" />
    <inkscape:perspective
       id="perspective26343"
       inkscape:persp3d-origin="0.5 : 0.33333333 : 1"
       inkscape:vp_z="1 : 0.5 : 1"
       inkscape:vp_y="0 : 1000 : 0"
       inkscape:vp_x="0 : 0.5 : 1"
       sodipodi:type="inkscape:persp3d" />
    <inkscape:perspective
       id="perspective26497"
       inkscape:persp3d-origin="0.5 : 0.33333333 : 1"
       inkscape:vp_z="1 : 0.5 : 1"
       inkscape:vp_y="0 : 1000 : 0"
       inkscape:vp_x="0 : 0.5 : 1"
       sodipodi:type="inkscape:persp3d" />
    <inkscape:perspective
       id="perspective27001"
       inkscape:persp3d-origin="0.5 : 0.33333333 : 1"
       inkscape:vp_z="1 : 0.5 : 1"
       inkscape:vp_y="0 : 1000 : 0"
       inkscape:vp_x="0 : 0.5 : 1"
       sodipodi:type="inkscape:persp3d" />
  </defs>
  <sodipodi:namedview
     id="base"
     pagecolor="#ffffff"
     bordercolor="#666666"
     borderopacity="1.0"
     inkscape:pageopacity="0.0"
     inkscape:pageshadow="2"
     inkscape:zoom="0.35"
     inkscape:cx="748.72169"
     inkscape:cy="180.04185"
     inkscape:document-units="px"
     inkscape:current-layer="layer1"
     showgrid="false"
     inkscape:window-width="840"
     inkscape:window-height="695"
     inkscape:window-x="219"
     inkscape:window-y="69"
     inkscape:window-maximized="0" />
  <metadata
     id="metadata25995">
    <rdf:RDF>
      <cc:Work
         rdf:about="">
        <dc:format>image/svg+xml</dc:format>
        <dc:type
           rdf:resource="http://purl.org/dc/dcmitype/StillImage" />
        <dc:title></dc:title>
      </cc:Work>
    </rdf:RDF>
  </metadata>
  <g
     inkscape:label="Layer 1"
     inkscape:groupmode="layer"
     id="layer1"
     transform="translate(373.72169,-308.88104)">
    <g
       transform="translate(-4090.7206,-4127.7244)"
       id="g26928">
      <g
         transform="translate(-3428.1592,5345.6679)"
         id="g67625-0-4-5-7-6-4-8-1">
        <text
           xml:space="preserve"
           style="font-size:29.76207542px;font-style:normal;font-variant:normal;font-weight:normal;font-stretch:normal;text-align:center;line-height:120.00000477%;writing-mode:lr-tb;text-anchor:middle;fill:#000000;fill-opacity:1;stroke:none;font-family:Cambria Math;-inkscape-font-specification:Cambria Math"
           x="7937.3745"
           y="-682.60559"
           id="text3006-2-0-5-4-9-2-5-7-8-8-3"
           sodipodi:linespacing="120%"><tspan
             sodipodi:role="line"
             id="tspan3008-6-7-7-2-6-0-0-3-8-2-5"
             x="7937.3745"
             y="-682.60559">x</tspan></text>
        <text
           xml:space="preserve"
           style="font-size:29.76207542px;font-style:normal;font-variant:normal;font-weight:normal;font-stretch:normal;text-align:center;line-height:120.00000477%;writing-mode:lr-tb;text-anchor:middle;fill:#000000;fill-opacity:1;stroke:none;font-family:Cambria Math;-inkscape-font-specification:Cambria Math"
           x="7506.9678"
           y="-895.16962"
           id="text3010-0-4-9-1-5-0-0-8-2-4-9"
           sodipodi:linespacing="120%"><tspan
             sodipodi:role="line"
             id="tspan3012-6-7-0-9-1-3-4-4-4-5-8"
             x="7506.9678"
             y="-895.16962">y</tspan></text>
        <path
           sodipodi:nodetypes="cc"
           style="color:#000000;fill:none;stroke:#000000;stroke-width:1.5;stroke-linecap:butt;stroke-linejoin:miter;stroke-miterlimit:4;stroke-opacity:1;stroke-dasharray:none;stroke-dashoffset:0;marker:none;visibility:visible;display:inline;overflow:visible;enable-background:accumulate"
           d="m 7524.8305,-687.32781 392.5655,0"
           id="path3004-1-3-8-7-09-9-5-9-5-5-4" />
        <path
           style="color:#000000;fill:none;stroke:#000000;stroke-width:1.5;stroke-linecap:butt;stroke-linejoin:miter;stroke-miterlimit:4;stroke-opacity:1;stroke-dasharray:none;stroke-dashoffset:0;marker:none;visibility:visible;display:inline;overflow:visible;enable-background:accumulate"
           d="m 7582.4164,-694.85129 0,18"
           id="path3014-1-3-1-4-9-83-1-4-2-5-1-0" />
        <path
           style="color:#000000;fill:none;stroke:#000000;stroke-width:1.5;stroke-linecap:butt;stroke-linejoin:miter;stroke-miterlimit:4;stroke-opacity:1;stroke-dasharray:none;stroke-dashoffset:0;marker:none;visibility:visible;display:inline;overflow:visible;enable-background:accumulate"
           d="m 7644.4573,-694.85129 0,18"
           id="path3014-9-0-0-2-3-8-8-9-6-1-7-7" />
        <path
           style="color:#000000;fill:none;stroke:#000000;stroke-width:1.5;stroke-linecap:butt;stroke-linejoin:miter;stroke-miterlimit:4;stroke-opacity:1;stroke-dasharray:none;stroke-dashoffset:0;marker:none;visibility:visible;display:inline;overflow:visible;enable-background:accumulate"
           d="m 7706.4982,-694.85129 0,18"
           id="path3014-2-8-3-5-1-99-1-5-5-7-1-6" />
        <path
           style="color:#000000;fill:none;stroke:#000000;stroke-width:1.5;stroke-linecap:butt;stroke-linejoin:miter;stroke-miterlimit:4;stroke-opacity:1;stroke-dasharray:none;stroke-dashoffset:0;marker:none;visibility:visible;display:inline;overflow:visible;enable-background:accumulate"
           d="m 7768.5391,-694.85129 0,18"
           id="path3014-7-0-5-1-5-5-9-6-7-1-1-3" />
        <g
           transform="matrix(0,-1,1,0,7235.9835,-525.03804)"
           id="g3101-7-2-1-6-9-33-5-4-7-1-5-6">
          <path
             sodipodi:nodetypes="cc"
             id="path3004-6-9-4-4-5-7-3-8-4-5-2-1"
             d="m 162.53064,289.36218 200.46936,0"
             style="color:#000000;fill:none;stroke:#000000;stroke-width:1.5;stroke-linecap:butt;stroke-linejoin:miter;stroke-miterlimit:4;stroke-opacity:1;stroke-dasharray:none;stroke-dashoffset:0;marker:none;visibility:visible;display:inline;overflow:visible;enable-background:accumulate" />
          <path
             id="path3014-1-2-8-6-2-8-8-2-2-5-2-7-5"
             d="m 217.02044,280.36218 0,18"
             style="color:#000000;fill:none;stroke:#000000;stroke-width:1.5;stroke-linecap:butt;stroke-linejoin:miter;stroke-miterlimit:4;stroke-opacity:1;stroke-dasharray:none;stroke-dashoffset:0;marker:none;visibility:visible;display:inline;overflow:visible;enable-background:accumulate" />
          <path
             id="path3014-9-2-5-0-1-3-8-5-1-7-7-6-4"
             d="m 279.06134,280.36218 0,18"
             style="color:#000000;fill:none;stroke:#000000;stroke-width:1.5;stroke-linecap:butt;stroke-linejoin:miter;stroke-miterlimit:4;stroke-opacity:1;stroke-dasharray:none;stroke-dashoffset:0;marker:none;visibility:visible;display:inline;overflow:visible;enable-background:accumulate" />
          <path
             id="path3014-2-1-7-5-4-1-81-2-6-9-6-1-2"
             d="m 341.10223,280.36218 0,18"
             style="color:#000000;fill:none;stroke:#000000;stroke-width:1.5;stroke-linecap:butt;stroke-linejoin:miter;stroke-miterlimit:4;stroke-opacity:1;stroke-dasharray:none;stroke-dashoffset:0;marker:none;visibility:visible;display:inline;overflow:visible;enable-background:accumulate" />
        </g>
        <g
           id="g3101-1-8-4-8-8-7-8-3-3-4-2-0"
           transform="matrix(-1,0,0,-1,7685.2953,-397.96563)">
          <path
             sodipodi:nodetypes="cc"
             id="path3004-1-3-8-9-8-22-6-1-0-2-3-9"
             d="m 160.38719,289.36218 379,0"
             style="color:#000000;fill:none;stroke:#000000;stroke-width:1.5;stroke-linecap:butt;stroke-linejoin:miter;stroke-miterlimit:4;stroke-opacity:1;stroke-dasharray:none;stroke-dashoffset:0;marker:none;visibility:visible;display:inline;overflow:visible;enable-background:accumulate" />
          <path
             id="path3014-1-3-1-4-7-9-890-7-4-2-3-2-7"
             d="m 217.02044,280.36218 0,18"
             style="color:#000000;fill:none;stroke:#000000;stroke-width:1.5;stroke-linecap:butt;stroke-linejoin:miter;stroke-miterlimit:4;stroke-opacity:1;stroke-dasharray:none;stroke-dashoffset:0;marker:none;visibility:visible;display:inline;overflow:visible;enable-background:accumulate" />
          <path
             id="path3014-9-0-0-2-6-1-81-7-8-2-2-2-3"
             d="m 279.06134,280.36218 0,18"
             style="color:#000000;fill:none;stroke:#000000;stroke-width:1.5;stroke-linecap:butt;stroke-linejoin:miter;stroke-miterlimit:4;stroke-opacity:1;stroke-dasharray:none;stroke-dashoffset:0;marker:none;visibility:visible;display:inline;overflow:visible;enable-background:accumulate" />
          <path
             id="path3014-2-8-3-5-0-3-8-2-4-3-2-1-7"
             d="m 341.10223,280.36218 0,18"
             style="color:#000000;fill:none;stroke:#000000;stroke-width:1.5;stroke-linecap:butt;stroke-linejoin:miter;stroke-miterlimit:4;stroke-opacity:1;stroke-dasharray:none;stroke-dashoffset:0;marker:none;visibility:visible;display:inline;overflow:visible;enable-background:accumulate" />
          <path
             id="path3014-7-0-5-1-3-3-1-2-9-6-1-6-2"
             d="m 403.14313,280.36218 0,18"
             style="color:#000000;fill:none;stroke:#000000;stroke-width:1.5;stroke-linecap:butt;stroke-linejoin:miter;stroke-miterlimit:4;stroke-opacity:1;stroke-dasharray:none;stroke-dashoffset:0;marker:none;visibility:visible;display:inline;overflow:visible;enable-background:accumulate" />
        </g>
        <g
           transform="matrix(0,1,-1,0,7814.7078,-848.14106)"
           id="g3101-7-2-1-6-6-2-4-9-2-7-6-8-6">
          <path
             sodipodi:nodetypes="cc"
             id="path3004-6-9-4-4-0-7-25-4-0-1-8-5-0"
             d="m 161.10167,289.36218 134.89833,0"
             style="color:#000000;fill:none;stroke:#000000;stroke-width:1.5;stroke-linecap:butt;stroke-linejoin:miter;stroke-miterlimit:4;stroke-opacity:1;stroke-dasharray:none;stroke-dashoffset:0;marker:none;visibility:visible;display:inline;overflow:visible;enable-background:accumulate" />
          <path
             id="path3014-1-2-8-6-2-7-1-6-1-7-5-5-7-1"
             d="m 217.02044,280.36218 0,18"
             style="color:#000000;fill:none;stroke:#000000;stroke-width:1.5;stroke-linecap:butt;stroke-linejoin:miter;stroke-miterlimit:4;stroke-opacity:1;stroke-dasharray:none;stroke-dashoffset:0;marker:none;visibility:visible;display:inline;overflow:visible;enable-background:accumulate" />
          <path
             id="path3014-9-2-5-0-1-4-6-5-9-0-5-7-6-6"
             d="m 279.06134,280.36218 0,18"
             style="color:#000000;fill:none;stroke:#000000;stroke-width:1.5;stroke-linecap:butt;stroke-linejoin:miter;stroke-miterlimit:4;stroke-opacity:1;stroke-dasharray:none;stroke-dashoffset:0;marker:none;visibility:visible;display:inline;overflow:visible;enable-background:accumulate" />
        </g>
      </g>
      <path
         id="path3014-1-3-1-4-7-9-890-7-4-2-2-8-9-5"
         d="m 3792.9738,4668.0779 0,-18"
         style="color:#000000;fill:none;stroke:#000000;stroke-width:1.5;stroke-linecap:butt;stroke-linejoin:miter;stroke-miterlimit:4;stroke-opacity:1;stroke-dasharray:none;stroke-dashoffset:0;marker:none;visibility:visible;display:inline;overflow:visible;enable-background:accumulate" />
      <path
         id="path3014-9-0-0-2-6-1-81-7-8-2-6-9-2-7"
         d="m 3730.9329,4668.0779 0,-18"
         style="color:#000000;fill:none;stroke:#000000;stroke-width:1.5;stroke-linecap:butt;stroke-linejoin:miter;stroke-miterlimit:4;stroke-opacity:1;stroke-dasharray:none;stroke-dashoffset:0;marker:none;visibility:visible;display:inline;overflow:visible;enable-background:accumulate" />
      <path
         id="path3014-2-8-3-5-0-3-8-2-4-3-7-4-3-5"
         d="m 4466.4354,4668.0779 0,-18"
         style="color:#000000;fill:none;stroke:#000000;stroke-width:1.5;stroke-linecap:butt;stroke-linejoin:miter;stroke-miterlimit:4;stroke-opacity:1;stroke-dasharray:none;stroke-dashoffset:0;marker:none;visibility:visible;display:inline;overflow:visible;enable-background:accumulate" />
      <path
         id="path3014-7-0-5-1-3-3-1-2-9-6-3-3-1-4"
         d="m 4404.3945,4668.0779 0,-18"
         style="color:#000000;fill:none;stroke:#000000;stroke-width:1.5;stroke-linecap:butt;stroke-linejoin:miter;stroke-miterlimit:4;stroke-opacity:1;stroke-dasharray:none;stroke-dashoffset:0;marker:none;visibility:visible;display:inline;overflow:visible;enable-background:accumulate" />
      <path
         style="font-style:normal;font-variant:normal;font-weight:normal;font-stretch:normal;letter-spacing:normal;word-spacing:normal;text-anchor:start;fill:#d40000;stroke:#000000;stroke-width:0;stroke-linecap:butt;stroke-linejoin:miter;stroke-miterlimit:10.43299961;stroke-opacity:1;stroke-dasharray:none;stroke-dashoffset:0"
         d="m 3804.0973,4478.3007 3.3532,0 c 0.7739,0 1.1647,0 1.1647,-0.7739 0,-0.4298 -0.3908,-0.4298 -1.0474,-0.4298 l -3.2359,0 0.8207,-4.4397 c 0.1485,-0.8207 0.6956,-3.58 0.9301,-4.0489 0.3518,-0.7348 1.0162,-1.321 1.8291,-1.321 0.1562,0 1.1725,0 1.9071,0.6956 -1.7118,0.1564 -2.1025,1.5243 -2.1025,2.1027 0,0.8989 0.7034,1.3678 1.4459,1.3678 1.0084,0 2.1418,-0.8598 2.1418,-2.3371 0,-1.79 -1.79,-2.6888 -3.3923,-2.6888 -1.3211,0 -3.7754,0.7034 -4.94,4.557 -0.2345,0.8206 -0.3517,1.2036 -1.2897,6.1124 l -2.6811,0 c -0.7425,0 -1.1723,0 -1.1723,0.7425 0,0.4612 0.3518,0.4612 1.0943,0.4612 l 2.5716,0 -2.9234,15.3826 c -0.7034,3.7752 -1.36,7.3238 -3.3845,7.3238 -0.1563,0 -1.1334,0 -1.8759,-0.7034 1.79,-0.1171 2.1416,-1.5164 2.1416,-2.1027 0,-0.8988 -0.6955,-1.36 -1.4382,-1.36 -1.0082,0 -2.1416,0.852 -2.1416,2.3293 0,1.7587 1.7118,2.6888 3.3141,2.6888 2.1339,0 3.6893,-2.2979 4.3929,-3.7752 1.2505,-2.4544 2.1416,-7.1676 2.1807,-7.4334 z"
         id="path37082-2-5-3-3-2" />
      <path
         style="font-style:normal;font-variant:normal;font-weight:normal;font-stretch:normal;letter-spacing:normal;word-spacing:normal;text-anchor:start;fill:#d40000;stroke:#000000;stroke-width:0;stroke-linecap:butt;stroke-linejoin:miter;stroke-miterlimit:10.43299961;stroke-opacity:1;stroke-dasharray:none;stroke-dashoffset:0"
         d="m 3826.1472,4503.2269 0,-0.023 0,-0.023 -0.012,-0.012 0,-0.016 0,-0.012 -0.012,-0.016 0,-0.016 -0.012,-0.012 -0.012,-0.016 -0.012,-0.016 -0.012,-0.023 -0.012,-0.016 -0.016,-0.016 -0.016,-0.023 -0.016,-0.024 -0.016,-0.023 -0.023,-0.023 -0.023,-0.031 -0.012,-0.016 -0.016,-0.016 -0.016,-0.016 -0.016,-0.016 -0.016,-0.016 -0.016,-0.023 -0.016,-0.016 -0.016,-0.016 -0.016,-0.023 -0.023,-0.016 -0.016,-0.023 -0.023,-0.023 -0.016,-0.023 -0.023,-0.023 -0.024,-0.024 -0.023,-0.023 -0.023,-0.023 -0.023,-0.023 -0.031,-0.031 -0.023,-0.023 -0.031,-0.031 -0.023,-0.023 -0.031,-0.031 -0.031,-0.031 c -4.8694,-4.9087 -6.1122,-12.264 -6.1122,-18.22 0,-6.7767 1.4851,-13.5535 6.2687,-18.4232 0.508,-0.4611 0.508,-0.5393 0.508,-0.6564 0,-0.2736 -0.1563,-0.3909 -0.3907,-0.3909 -0.3909,0 -3.8926,2.6497 -6.1906,7.5975 -1.9854,4.2756 -2.4543,8.5979 -2.4543,11.873 0,3.0328 0.4298,7.746 2.5716,12.1466 2.337,4.7836 5.6824,7.3161 6.0733,7.3161 0.2344,0 0.3907,-0.117 0.3907,-0.383 z"
         id="path37084-0-7-19-4-0" />
      <path
         style="font-style:normal;font-variant:normal;font-weight:normal;font-stretch:normal;letter-spacing:normal;word-spacing:normal;text-anchor:start;fill:#d40000;stroke:#000000;stroke-width:0;stroke-linecap:butt;stroke-linejoin:miter;stroke-miterlimit:10.43299961;stroke-opacity:1;stroke-dasharray:none;stroke-dashoffset:0"
         d="m 3841.0844,4482.1229 0.078,-0.1014 0,-0.117 0,-0.1329 0.078,-0.1407 0,-0.1486 0.078,-0.1641 0.079,-0.1641 0,-0.1798 0.078,-0.1797 0.078,-0.1877 0.079,-0.1953 0.078,-0.1877 0.079,-0.1954 0.078,-0.1953 0.1563,-0.1955 0.078,-0.1954 0.1563,-0.1875 0.078,-0.1877 0.1563,-0.1798 0.1564,-0.172 0.078,-0.1719 0.1564,-0.1563 0.1563,-0.1485 0.2345,-0.1408 0.1564,-0.125 0.1563,-0.1098 0.1564,-0.054 0.078,-0.047 0.078,-0.039 0.1564,-0.039 0.079,-0.039 0.078,-0.031 0.1563,-0.023 0.078,-0.023 0.1563,-0.016 0.078,-0.016 0.1564,-0.012 0.1563,0 c 0.1563,0 1.0943,0 1.9541,0.5081 -1.0943,0.1953 -1.8759,1.1646 -1.8759,2.0948 0,0.6252 0.3908,1.3678 1.4851,1.3678 0.8598,0 2.1105,-0.7035 2.1105,-2.2589 0,-2.0245 -2.345,-2.5716 -3.6738,-2.5716 -2.2668,0 -3.5955,2.0636 -4.0645,2.9624 -1.0161,-2.5715 -3.0484,-2.9624 -4.2209,-2.9624 -4.0645,0 -6.2609,5.0259 -6.2609,5.9952 0,0.3907 0.3909,0.3907 0.4691,0.3907 0.3048,0 0.3986,-0.078 0.4768,-0.422 1.3287,-4.1348 3.9081,-5.1041 5.237,-5.1041 0.7816,0 2.1103,0.3518 2.1103,2.6029 0,1.2114 -0.6253,3.8222 -2.1103,9.2702 -0.6254,2.4152 -1.9541,4.0488 -3.6738,4.0488 -0.2345,0 -1.1725,0 -1.9619,-0.508 0.9458,-0.1954 1.8056,-1.0083 1.8056,-2.1026 0,-1.0475 -0.8598,-1.3601 -1.4069,-1.3601 -1.1804,0 -2.1495,1.0162 -2.1495,2.2589 0,1.79 1.9384,2.5716 3.6345,2.5716 2.5795,0 3.9864,-2.7279 4.1427,-2.9623 0.469,1.4459 1.8759,2.9623 4.1427,2.9623 4.0645,0 6.2531,-5.0259 6.2531,-6.0029 0,-0.383 -0.3127,-0.383 -0.469,-0.383 -0.3126,0 -0.3908,0.1563 -0.4689,0.4298 -1.3289,4.1661 -3.9864,5.0963 -5.237,5.0963 -1.4852,0 -2.1105,-1.2427 -2.1105,-2.5716 0,-0.852 0.2346,-1.7118 0.7035,-3.4235 z"
         id="path37086-0-7-8-1-0" />
      <path
         style="font-style:normal;font-variant:normal;font-weight:normal;font-stretch:normal;letter-spacing:normal;word-spacing:normal;text-anchor:start;fill:#d40000;stroke:#000000;stroke-width:0;stroke-linecap:butt;stroke-linejoin:miter;stroke-miterlimit:10.43299961;stroke-opacity:1;stroke-dasharray:none;stroke-dashoffset:0"
         d="m 3862.0322,4484.1472 0,-0.2891 0,-0.3049 0,-0.3048 0,-0.3205 -0.078,-0.6566 0,-0.6878 -0.078,-0.719 -0.078,-0.7348 -0.1564,-0.7661 -0.078,-0.7816 -0.1564,-0.7972 -0.1563,-0.813 -0.2345,-0.8207 -0.2346,-0.8284 -0.3125,-0.8286 -0.3127,-0.8364 -0.1564,-0.4143 -0.1563,-0.422 -0.1564,-0.4143 -0.2345,-0.4143 c -2.3448,-4.7836 -5.7059,-7.3161 -6.0966,-7.3161 -0.2345,0 -0.3909,0.1563 -0.3909,0.3909 0,0.1171 0,0.1954 0.7816,0.8988 3.83,3.8457 6.0186,10.044 6.0186,18.1808 0,6.6596 -1.4069,13.5067 -6.2531,18.4154 -0.5471,0.469 -0.5471,0.5393 -0.5471,0.6643 0,0.2268 0.1564,0.3831 0.3909,0.3831 0.3907,0 3.9081,-2.6419 6.253,-7.5897 1.9542,-4.2833 2.4231,-8.6058 2.4231,-11.8731 z"
         id="path37088-1-0-6-1-1" />
      <path
         style="color:#000000;fill:none;stroke:#d40000;stroke-width:3;stroke-linecap:butt;stroke-linejoin:miter;stroke-miterlimit:4;stroke-opacity:1;stroke-dasharray:none;stroke-dashoffset:0;marker:none;visibility:visible;display:inline;overflow:visible;enable-background:accumulate"
         d="m 3790.2393,4595.1071 c 132.7269,553.8971 412.5438,-315.5971 616,0"
         id="path10869-4"
         sodipodi:nodetypes="cc" />
      <path
         sodipodi:type="arc"
         style="color:#000000;fill:#d40000;fill-opacity:1;fill-rule:evenodd;stroke:#000000;stroke-width:1.5;stroke-linecap:butt;stroke-linejoin:miter;stroke-miterlimit:4;stroke-opacity:1;stroke-dasharray:none;stroke-dashoffset:0;marker:none;visibility:visible;display:inline;overflow:visible;enable-background:accumulate"
         id="path11643-6"
         sodipodi:cx="7442"
         sodipodi:cy="6886.6211"
         sodipodi:rx="5"
         sodipodi:ry="5"
         d="m 7447,6886.6211 c 0,2.7614 -2.2386,5 -5,5 -2.7614,0 -5,-2.2386 -5,-5 0,-2.7614 2.2386,-5 5,-5 2.7614,0 5,2.2386 5,5 z"
         transform="translate(-3651.5128,-2290.2211)" />
      <path
         sodipodi:type="arc"
         style="color:#000000;fill:#d40000;fill-opacity:1;fill-rule:evenodd;stroke:#000000;stroke-width:1.5;stroke-linecap:butt;stroke-linejoin:miter;stroke-miterlimit:4;stroke-opacity:1;stroke-dasharray:none;stroke-dashoffset:0;marker:none;visibility:visible;display:inline;overflow:visible;enable-background:accumulate"
         id="path11643-8-0"
         sodipodi:cx="7442"
         sodipodi:cy="6886.6211"
         sodipodi:rx="5"
         sodipodi:ry="5"
         d="m 7447,6886.6211 c 0,2.7614 -2.2386,5 -5,5 -2.7614,0 -5,-2.2386 -5,-5 0,-2.7614 2.2386,-5 5,-5 2.7614,0 5,2.2386 5,5 z"
         transform="translate(-3035.5007,-2290.6554)" />
      <path
         style="color:#000000;fill:none;stroke:#000000;stroke-width:3;stroke-linecap:butt;stroke-linejoin:miter;stroke-miterlimit:4;stroke-opacity:1;stroke-dasharray:3, 18;stroke-dashoffset:0;marker:none;visibility:visible;display:inline;overflow:visible;enable-background:accumulate"
         d="m 3738.2445,4596.1729 728,0"
         id="path11667-7" />
      <text
         xml:space="preserve"
         style="font-size:33.21678162px;font-style:normal;font-variant:normal;font-weight:normal;font-stretch:normal;text-align:center;line-height:120.00000477%;writing-mode:lr-tb;text-anchor:middle;fill:#000000;fill-opacity:1;stroke:none;font-family:Cambria Math;-inkscape-font-specification:Cambria Math"
         x="4536.2324"
         y="4603.7798"
         id="text11669-1"
         sodipodi:linespacing="120%"><tspan
           sodipodi:role="line"
           id="tspan11672-7"
           x="4536.2324"
           y="4603.7798">f(a)=f(b)</tspan></text>
      <text
         xml:space="preserve"
         style="font-size:33.21678162px;font-style:normal;font-variant:normal;font-weight:normal;font-stretch:normal;text-align:center;line-height:120.00000477%;writing-mode:lr-tb;text-anchor:middle;fill:#000000;fill-opacity:1;stroke:none;font-family:Cambria Math;-inkscape-font-specification:Cambria Math"
         x="3788.7161"
         y="4705.5435"
         id="text11674-7"
         sodipodi:linespacing="120%"><tspan
           sodipodi:role="line"
           id="tspan11676-7"
           x="3788.7161"
           y="4705.5435">a</tspan></text>
      <text
         xml:space="preserve"
         style="font-size:33.21678162px;font-style:normal;font-variant:normal;font-weight:normal;font-stretch:normal;text-align:center;line-height:120.00000477%;writing-mode:lr-tb;text-anchor:middle;fill:#000000;fill-opacity:1;stroke:none;font-family:Cambria Math;-inkscape-font-specification:Cambria Math"
         x="4405.6689"
         y="4703.0215"
         id="text11678-7"
         sodipodi:linespacing="120%"><tspan
           sodipodi:role="line"
           id="tspan11680-3"
           x="4405.6689"
           y="4703.0215">b</tspan></text>
      <path
         style="color:#000000;fill:none;stroke:#3771c8;stroke-width:5;stroke-linecap:butt;stroke-linejoin:miter;stroke-miterlimit:4;stroke-opacity:1;stroke-dasharray:none;stroke-dashoffset:0;marker:none;visibility:visible;display:inline;overflow:visible;enable-background:accumulate"
         d="m 4161.623,4520.6889 285.6711,0"
         id="path11887" />
      <path
         style="color:#000000;fill:none;stroke:#3771c8;stroke-width:5;stroke-linecap:butt;stroke-linejoin:miter;stroke-miterlimit:4;stroke-opacity:1;stroke-dasharray:none;stroke-dashoffset:0;marker:none;visibility:visible;display:inline;overflow:visible;enable-background:accumulate"
         d="m 3778.3711,4787.9752 285.6711,0"
         id="path11887-3" />
      <text
         xml:space="preserve"
         style="font-size:33.21678162px;font-style:normal;font-variant:normal;font-weight:normal;font-stretch:normal;text-align:center;line-height:120.00000477%;writing-mode:lr-tb;text-anchor:middle;fill:#000000;fill-opacity:1;stroke:none;font-family:Cambria Math;-inkscape-font-specification:Cambria Math"
         x="3914.5574"
         y="4832.7974"
         id="text11669-1-5-9"
         sodipodi:linespacing="120%"><tspan
           sodipodi:role="line"
           id="tspan11672-7-9-8"
           x="3914.5574"
           y="4832.7974">f '(c  )=0</tspan></text>
      <text
         sodipodi:linespacing="120%"
         id="text11961"
         y="4839.1294"
         x="3912.696"
         style="font-size:19.05579376px;font-style:normal;font-variant:normal;font-weight:normal;font-stretch:normal;text-align:center;line-height:120.00000477%;writing-mode:lr-tb;text-anchor:middle;fill:#000000;fill-opacity:1;stroke:none;font-family:Cambria Math;-inkscape-font-specification:Cambria Math"
         xml:space="preserve"><tspan
           y="4839.1294"
           x="3912.696"
           id="tspan11963"
           sodipodi:role="line">1</tspan></text>
      <text
         sodipodi:linespacing="120%"
         id="text11669-1-5"
         y="4491.9722"
         x="4312.7183"
         style="font-size:33.21678162px;font-style:normal;font-variant:normal;font-weight:normal;font-stretch:normal;text-align:center;line-height:120.00000477%;writing-mode:lr-tb;text-anchor:middle;fill:#000000;fill-opacity:1;stroke:none;font-family:Cambria Math;-inkscape-font-specification:Cambria Math"
         xml:space="preserve"><tspan
           y="4491.9722"
           x="4312.7183"
           id="tspan11672-7-9"
           sodipodi:role="line">f '(c  )=0</tspan></text>
      <text
         xml:space="preserve"
         style="font-size:19.05579376px;font-style:normal;font-variant:normal;font-weight:normal;font-stretch:normal;text-align:center;line-height:120.00000477%;writing-mode:lr-tb;text-anchor:middle;fill:#000000;fill-opacity:1;stroke:none;font-family:Cambria Math;-inkscape-font-specification:Cambria Math"
         x="4312.0601"
         y="4497.7686"
         id="text11965"
         sodipodi:linespacing="120%"><tspan
           sodipodi:role="line"
           id="tspan11967"
           x="4312.0601"
           y="4497.7686">2</tspan></text>
      <text
         sodipodi:linespacing="120%"
         id="text11669-1-5-9-8"
         y="4699.105"
         x="3913.3408"
         style="font-size:33.21678162px;font-style:normal;font-variant:normal;font-weight:normal;font-stretch:normal;text-align:center;line-height:120.00000477%;writing-mode:lr-tb;text-anchor:middle;fill:#000000;fill-opacity:1;stroke:none;font-family:Cambria Math;-inkscape-font-specification:Cambria Math"
         xml:space="preserve"><tspan
           y="4699.105"
           x="3917.0063"
           id="tspan11672-7-9-8-0"
           sodipodi:role="line">c  </tspan></text>
      <text
         xml:space="preserve"
         style="font-size:19.05579376px;font-style:normal;font-variant:normal;font-weight:normal;font-stretch:normal;text-align:center;line-height:120.00000477%;writing-mode:lr-tb;text-anchor:middle;fill:#000000;fill-opacity:1;stroke:none;font-family:Cambria Math;-inkscape-font-specification:Cambria Math"
         x="3924.1897"
         y="4704.23"
         id="text11961-1"
         sodipodi:linespacing="120%"><tspan
           sodipodi:role="line"
           id="tspan11963-2"
           x="3924.1897"
           y="4704.23">1</tspan></text>
      <text
         sodipodi:linespacing="120%"
         id="text11669-1-5-9-8-9"
         y="4700.105"
         x="4294.8408"
         style="font-size:33.21678162px;font-style:normal;font-variant:normal;font-weight:normal;font-stretch:normal;text-align:center;line-height:120.00000477%;writing-mode:lr-tb;text-anchor:middle;fill:#000000;fill-opacity:1;stroke:none;font-family:Cambria Math;-inkscape-font-specification:Cambria Math"
         xml:space="preserve"><tspan
           y="4700.105"
           x="4298.5063"
           id="tspan11672-7-9-8-0-4"
           sodipodi:role="line">c  </tspan></text>
      <text
         xml:space="preserve"
         style="font-size:19.05579376px;font-style:normal;font-variant:normal;font-weight:normal;font-stretch:normal;text-align:center;line-height:120.00000477%;writing-mode:lr-tb;text-anchor:middle;fill:#000000;fill-opacity:1;stroke:none;font-family:Cambria Math;-inkscape-font-specification:Cambria Math"
         x="4305.6895"
         y="4705.23"
         id="text11961-1-7"
         sodipodi:linespacing="120%"><tspan
           sodipodi:role="line"
           id="tspan11963-2-8"
           x="4305.6895"
           y="4705.23">2</tspan></text>
      <path
         sodipodi:type="arc"
         style="color:#000000;fill:#d40000;fill-opacity:1;fill-rule:evenodd;stroke:#000000;stroke-width:1.5;stroke-linecap:butt;stroke-linejoin:miter;stroke-miterlimit:4;stroke-opacity:1;stroke-dasharray:none;stroke-dashoffset:0;marker:none;visibility:visible;display:inline;overflow:visible;enable-background:accumulate"
         id="path11643-6-2-1"
         sodipodi:cx="7442"
         sodipodi:cy="6886.6211"
         sodipodi:rx="5"
         sodipodi:ry="5"
         d="m 7447,6886.6211 c 0,2.7614 -2.2386,5 -5,5 -2.7614,0 -5,-2.2386 -5,-5 0,-2.7614 2.2386,-5 5,-5 2.7614,0 5,2.2386 5,5 z"
         transform="translate(-3138.9928,-2363.3443)" />
      <path
         transform="translate(-3524.4928,-2101.3443)"
         d="m 7447,6886.6211 c 0,2.7614 -2.2386,5 -5,5 -2.7614,0 -5,-2.2386 -5,-5 0,-2.7614 2.2386,-5 5,-5 2.7614,0 5,2.2386 5,5 z"
         sodipodi:ry="5"
         sodipodi:rx="5"
         sodipodi:cy="6886.6211"
         sodipodi:cx="7442"
         id="path11643-6-2"
         style="color:#000000;fill:#d40000;fill-opacity:1;fill-rule:evenodd;stroke:#000000;stroke-width:1.5;stroke-linecap:butt;stroke-linejoin:miter;stroke-miterlimit:4;stroke-opacity:1;stroke-dasharray:none;stroke-dashoffset:0;marker:none;visibility:visible;display:inline;overflow:visible;enable-background:accumulate"
         sodipodi:type="arc" />
    </g>
  </g>
</svg>
