<?xml version="1.0" encoding="UTF-8" standalone="no"?>
<!-- Created with Inkscape (http://www.inkscape.org/) -->

<svg
   xmlns:dc="http://purl.org/dc/elements/1.1/"
   xmlns:cc="http://creativecommons.org/ns#"
   xmlns:rdf="http://www.w3.org/1999/02/22-rdf-syntax-ns#"
   xmlns:svg="http://www.w3.org/2000/svg"
   xmlns="http://www.w3.org/2000/svg"
   xmlns:sodipodi="http://sodipodi.sourceforge.net/DTD/sodipodi-0.dtd"
   xmlns:inkscape="http://www.inkscape.org/namespaces/inkscape"
   width="868.57642"
   height="387.14911"
   id="svg14802"
   version="1.1"
   inkscape:version="0.47 r22583"
   sodipodi:docname="trig6.eps">
  <defs
     id="defs14804">
    <inkscape:perspective
       sodipodi:type="inkscape:persp3d"
       inkscape:vp_x="0 : 526.18109 : 1"
       inkscape:vp_y="0 : 1000 : 0"
       inkscape:vp_z="744.09448 : 526.18109 : 1"
       inkscape:persp3d-origin="372.04724 : 350.78739 : 1"
       id="perspective14810" />
    <inkscape:perspective
       id="perspective14820"
       inkscape:persp3d-origin="0.5 : 0.33333333 : 1"
       inkscape:vp_z="1 : 0.5 : 1"
       inkscape:vp_y="0 : 1000 : 0"
       inkscape:vp_x="0 : 0.5 : 1"
       sodipodi:type="inkscape:persp3d" />
    <inkscape:perspective
       id="perspective14896"
       inkscape:persp3d-origin="0.5 : 0.33333333 : 1"
       inkscape:vp_z="1 : 0.5 : 1"
       inkscape:vp_y="0 : 1000 : 0"
       inkscape:vp_x="0 : 0.5 : 1"
       sodipodi:type="inkscape:persp3d" />
    <inkscape:perspective
       id="perspective14960"
       inkscape:persp3d-origin="0.5 : 0.33333333 : 1"
       inkscape:vp_z="1 : 0.5 : 1"
       inkscape:vp_y="0 : 1000 : 0"
       inkscape:vp_x="0 : 0.5 : 1"
       sodipodi:type="inkscape:persp3d" />
    <inkscape:perspective
       id="perspective15105"
       inkscape:persp3d-origin="0.5 : 0.33333333 : 1"
       inkscape:vp_z="1 : 0.5 : 1"
       inkscape:vp_y="0 : 1000 : 0"
       inkscape:vp_x="0 : 0.5 : 1"
       sodipodi:type="inkscape:persp3d" />
    <inkscape:perspective
       id="perspective15199"
       inkscape:persp3d-origin="0.5 : 0.33333333 : 1"
       inkscape:vp_z="1 : 0.5 : 1"
       inkscape:vp_y="0 : 1000 : 0"
       inkscape:vp_x="0 : 0.5 : 1"
       sodipodi:type="inkscape:persp3d" />
    <inkscape:perspective
       id="perspective15359"
       inkscape:persp3d-origin="0.5 : 0.33333333 : 1"
       inkscape:vp_z="1 : 0.5 : 1"
       inkscape:vp_y="0 : 1000 : 0"
       inkscape:vp_x="0 : 0.5 : 1"
       sodipodi:type="inkscape:persp3d" />
    <inkscape:perspective
       id="perspective15537"
       inkscape:persp3d-origin="0.5 : 0.33333333 : 1"
       inkscape:vp_z="1 : 0.5 : 1"
       inkscape:vp_y="0 : 1000 : 0"
       inkscape:vp_x="0 : 0.5 : 1"
       sodipodi:type="inkscape:persp3d" />
  </defs>
  <sodipodi:namedview
     id="base"
     pagecolor="#ffffff"
     bordercolor="#666666"
     borderopacity="1.0"
     inkscape:pageopacity="0.0"
     inkscape:pageshadow="2"
     inkscape:zoom="0.49497475"
     inkscape:cx="664.62885"
     inkscape:cy="155.67338"
     inkscape:document-units="px"
     inkscape:current-layer="layer1"
     showgrid="false"
     inkscape:window-width="840"
     inkscape:window-height="695"
     inkscape:window-x="1229"
     inkscape:window-y="120"
     inkscape:window-maximized="0" />
  <metadata
     id="metadata14807">
    <rdf:RDF>
      <cc:Work
         rdf:about="">
        <dc:format>image/svg+xml</dc:format>
        <dc:type
           rdf:resource="http://purl.org/dc/dcmitype/StillImage" />
        <dc:title></dc:title>
      </cc:Work>
    </rdf:RDF>
  </metadata>
  <g
     inkscape:label="Layer 1"
     inkscape:groupmode="layer"
     id="layer1"
     transform="translate(335.19361,-228.9299)">
    <g
       inkscape:export-ydpi="300"
       inkscape:export-xdpi="300"
       inkscape:export-filename="C:\Users\mscavers\Desktop\Math 251 (Fall 2011)\Lecture Notes\Lecture 4\Trig\ex2.png"
       transform="translate(-1575.4535,-2256.8636)"
       id="g22218">
      <g
         id="g17809-1-9"
         transform="translate(-73.72203,1316.2458)">
        <path
           id="path4306-0-2-8"
           d="m 1989.9814,1171.0477 0,380"
           style="color:#000000;fill:none;stroke:#000000;stroke-width:3;stroke-linecap:butt;stroke-linejoin:miter;stroke-miterlimit:4;stroke-opacity:1;stroke-dasharray:none;stroke-dashoffset:0;marker:none;visibility:visible;display:inline;overflow:visible;enable-background:accumulate" />
        <path
           id="path4306-1-9-0-8"
           d="m 2179.9814,1361.0477 -380,0"
           style="color:#000000;fill:none;stroke:#000000;stroke-width:3;stroke-linecap:butt;stroke-linejoin:miter;stroke-miterlimit:4;stroke-opacity:1;stroke-dasharray:none;stroke-dashoffset:0;marker:none;visibility:visible;display:inline;overflow:visible;enable-background:accumulate" />
      </g>
      <g
         transform="matrix(1.4559746,0,0,1.4559746,-513.67613,603.92224)"
         inkscape:export-ydpi="300"
         inkscape:export-xdpi="300"
         inkscape:export-filename="C:\Users\mscavers\Desktop\Math 251 (Fall 2011)\Lecture Notes\Lecture 4\Trig\trig3.png"
         id="g22497-7-7-0">
        <g
           id="g13823-9-7-8">
          <g
             id="g13809-9-7-7"
             transform="translate(102.08373,36.970039)" />
        </g>
        <g
           id="g17980-3-7"
           transform="translate(-132.22896,1.4142135)">
          <path
             style="color:#000000;fill:none;stroke:#d40000;stroke-width:3;stroke-linecap:butt;stroke-linejoin:miter;stroke-miterlimit:4;stroke-opacity:1;stroke-dasharray:none;stroke-dashoffset:0;marker:none;visibility:visible;display:inline;overflow:visible;enable-background:accumulate"
             d="m 1699.2781,1385.113 -99.4303,-56.8655"
             id="path13706-8-3-8"
             transform="translate(102.08374,36.97)"
             sodipodi:nodetypes="cc" />
          <g
             id="g13683-6-5-3"
             transform="translate(95.43394,82.1418)">
            <path
               transform="translate(1294.6821,986.34078)"
               d="m 415,354.11218 c 0,2.34721 -1.90279,4.25 -4.25,4.25 -2.34721,0 -4.25,-1.90279 -4.25,-4.25 0,-2.34721 1.90279,-4.25 4.25,-4.25 2.34721,0 4.25,1.90279 4.25,4.25 z"
               sodipodi:ry="4.25"
               sodipodi:rx="4.25"
               sodipodi:cy="354.11218"
               sodipodi:cx="410.75"
               id="path11292-2-7-7-0-9-8"
               style="color:#000000;fill:#000000;fill-opacity:1;fill-rule:evenodd;stroke:none;stroke-width:1.5;marker:none;visibility:visible;display:inline;overflow:visible;enable-background:accumulate"
               sodipodi:type="arc" />
          </g>
          <path
             sodipodi:type="arc"
             style="color:#000000;fill:none;stroke:#008000;stroke-width:1.5;stroke-linecap:butt;stroke-linejoin:miter;stroke-miterlimit:4;stroke-opacity:1;stroke-dasharray:none;stroke-dashoffset:0;marker:none;visibility:visible;display:inline;overflow:visible;enable-background:accumulate"
             id="path13759-4-9-3"
             sodipodi:cx="-788.42407"
             sodipodi:cy="-1662.0439"
             sodipodi:rx="17.500893"
             sodipodi:ry="17.500893"
             d="m -798.92461,-1676.0447 c 7.73238,-5.7992 18.70197,-4.2322 24.50125,3.5002 2.1811,2.9082 3.4025,6.4233 3.49457,10.0573"
             transform="translate(2589.2901,3084.6387)"
             sodipodi:start="4.0688879"
             sodipodi:end="6.2578556"
             sodipodi:open="true" />
          <path
             style="color:#000000;fill:#008000;stroke:#008000;stroke-width:1.5;stroke-linecap:butt;stroke-linejoin:miter;stroke-miterlimit:4;stroke-opacity:1;stroke-dasharray:none;stroke-dashoffset:0;marker:none;visibility:visible;display:inline;overflow:visible;enable-background:accumulate"
             d="m 1688.4063,1371.8105 2.1213,-7.4246"
             id="path13763-8-8-7"
             transform="translate(102.08374,36.97)" />
          <path
             style="color:#000000;fill:#008000;stroke:#008000;stroke-width:1.5;stroke-linecap:butt;stroke-linejoin:miter;stroke-miterlimit:4;stroke-opacity:1;stroke-dasharray:none;stroke-dashoffset:0;marker:none;visibility:visible;display:inline;overflow:visible;enable-background:accumulate"
             d="m 1695.2451,1373.3226 -7.4905,-1.8752"
             id="path13763-0-6-1-1"
             transform="translate(102.08374,36.97)" />
          <path
             id="path22495-8-8-0"
             d="m 1804.8069,1422.5074 127.1296,0"
             style="color:#000000;fill:none;stroke:#d40000;stroke-width:3;stroke-linecap:butt;stroke-linejoin:miter;stroke-miterlimit:4;stroke-opacity:1;stroke-dasharray:none;stroke-dashoffset:0;marker:none;visibility:visible;display:inline;overflow:visible;enable-background:accumulate"
             sodipodi:nodetypes="cc" />
        </g>
      </g>
      <g
         id="g19964-2-7"
         transform="matrix(0.40951819,0,0,0.40951819,1489.6107,2462.9237)"
         style="fill:#008000">
        <g
           word-spacing="normal"
           letter-spacing="normal"
           font-size-adjust="none"
           font-stretch="normal"
           font-weight="normal"
           font-variant="normal"
           font-style="normal"
           stroke-miterlimit="10.433"
           xml:space="preserve"
           transform="matrix(1.0629921,0,0,-1.0629921,-186.02362,789.27165)"
           id="g19966-6-3"
           style="font-style:normal;font-variant:normal;font-weight:normal;font-stretch:normal;letter-spacing:normal;word-spacing:normal;text-anchor:start;fill:#008000;stroke:#000000;stroke-linecap:butt;stroke-linejoin:miter;stroke-miterlimit:10.43299961;stroke-opacity:1;stroke-dasharray:none;stroke-dashoffset:0"><path
             id="path19968-6-4"
             d="m 1235.4,379.01 0,0.55 -0.1,0.55 0,0.54 -0.1,0.53 -0.1,0.53 -0.1,0.51 -0.2,0.5 -0.2,0.5 -0.1,0.48 -0.2,0.47 -0.3,0.46 -0.2,0.44 -0.3,0.43 -0.2,0.41 -0.3,0.4 -0.3,0.38 -0.4,0.36 -0.3,0.35 -0.4,0.33 -0.3,0.3 -0.4,0.29 -0.4,0.27 -0.4,0.24 -0.5,0.22 -0.4,0.2 -0.4,0.17 -0.5,0.15 -0.4,0.13 -0.5,0.09 -0.5,0.07 -0.5,0.05 -0.5,0.01 c -2.4,0 -4.5,-0.79 -6.3,-2.54 v 9.71 c 1,-0.29 2.6,-0.64 4.2,-0.64 6.1,0 9.6,4.53 9.6,5.18 0,0.3 -0.1,0.55 -0.5,0.55 0,0 -0.1,0 -0.4,-0.15 -1,-0.45 -3.4,-1.45 -6.7,-1.45 -2,0 -4.3,0.35 -6.7,1.4 -0.4,0.15 -0.5,0.15 -0.6,0.15 -0.5,0 -0.5,-0.4 -0.5,-1.2 v -14.75 c 0,-0.89 0,-1.29 0.7,-1.29 0.4,0 0.5,0.15 0.7,0.45 0.5,0.8 2.4,3.48 6.4,3.48 2.6,0 3.8,-2.28 4.2,-3.18 0.8,-1.85 0.9,-3.79 0.9,-6.28 0,-1.74 0,-4.73 -1.2,-6.82 -1.2,-1.95 -3,-3.24 -5.3,-3.24 -3.6,0 -6.5,2.64 -7.3,5.58 0.1,-0.05 0.3,-0.1 0.8,-0.1 1.7,0 2.5,1.24 2.5,2.44 0,1.19 -0.8,2.44 -2.5,2.44 -0.7,0 -2.4,-0.35 -2.4,-2.64 0,-4.29 3.4,-9.12 9,-9.12 5.8,0 10.9,4.79 10.9,11.11 z"
             style="fill:#008000;stroke-width:0" /><path
             id="path19970-0-9"
             d="m 1251.2,387.58 h 5.6 c -1.6,-7.37 -2.1,-9.51 -2.1,-12.85 0,-0.75 0,-2.09 0.4,-3.79 0.5,-2.19 1.1,-2.49 1.8,-2.49 1,0 2.1,0.9 2.1,1.89 0,0.3 0,0.4 -0.3,1.1 -1.5,3.59 -1.5,6.83 -1.5,8.22 0,2.64 0.4,5.33 0.9,7.92 h 5.7 c 0.6,0 2.4,0 2.4,1.69 0,1.2 -1,1.2 -1.9,1.2 h -16.7 c -1.1,0 -3,0 -5.2,-2.34 -1.8,-1.95 -3.1,-4.24 -3.1,-4.49 0,-0.05 0,-0.49 0.6,-0.49 0.4,0 0.5,0.2 0.8,0.6 2.5,3.83 5.4,3.83 6.4,3.83 h 2.8 c -1.6,-6.03 -4.3,-12.05 -6.4,-16.59 -0.4,-0.74 -0.4,-0.85 -0.4,-1.19 0,-0.95 0.8,-1.35 1.5,-1.35 1.5,0 1.9,1.4 2.5,3.24 0.7,2.29 0.7,2.39 1.3,4.88 z"
             style="fill:#008000;stroke-width:0" /><polyline
             id="polyline19972-3-6"
             points="1213,347 1268.2,347 1268.2,349.04 1213,349.04 "
             style="fill:#008000;fill-rule:nonzero;stroke-width:0" /><path
             id="path19974-8-5"
             d="m 1234.6,317.34 v 1.2 c 0,12.6 6.2,14.39 8.7,14.39 1.2,0 3.3,-0.3 4.4,-1.99 -0.8,0 -2.8,0 -2.8,-2.24 0,-1.55 1.2,-2.29 2.3,-2.29 0.8,0 2.3,0.44 2.3,2.39 0,2.99 -2.2,5.38 -6.3,5.38 -6.4,0 -13.1,-6.43 -13.1,-17.44 0,-13.3 5.8,-16.84 10.4,-16.84 5.5,0 10.3,4.69 10.3,11.26 0,6.33 -4.5,11.11 -10,11.11 l 0,-1.14 c 0.8,0 3,0 4.6,-3.09 0.9,-1.85 0.9,-4.39 0.9,-6.83 0,-2.39 0,-4.88 -0.9,-6.67 -1.5,-2.99 -3.7,-3.24 -4.9,-3.24 h 0 c -3.1,0 -4.6,2.99 -4.9,3.74 -0.9,2.34 -0.9,6.32 -0.9,7.22 0,3.88 1.6,8.87 6.1,8.87 l 0,1.14 c -3.4,0 -5.2,-2.54 -6.2,-4.93 z"
             style="fill:#008000;stroke-width:0" /></g>      </g>
      <g
         id="g10654-9-2-1-1-9"
         transform="matrix(-1,0,0,1,4140.8559,1634.7887)">
        <g
           transform="matrix(-0.56237275,0,0,0.56237275,3315.0039,228.8061)"
           id="g21656-2-2">
          <rect
             style="color:#000000;fill:#f9f9f9;fill-opacity:1;fill-rule:evenodd;stroke:#000080;stroke-width:4.44545031;stroke-linecap:butt;stroke-linejoin:miter;stroke-miterlimit:4;stroke-opacity:1;stroke-dasharray:none;stroke-dashoffset:0;marker:none;visibility:visible;display:inline;overflow:visible;enable-background:accumulate"
             id="rect10652-9-3-5-0-5"
             width="17.952524"
             height="17.952524"
             x="1677.2097"
             y="1428.9767" />
          <path
             style="color:#000000;fill:none;stroke:#000080;stroke-width:5.33453989;stroke-linecap:butt;stroke-linejoin:miter;stroke-miterlimit:4;stroke-opacity:1;stroke-dasharray:none;stroke-dashoffset:0;marker:none;visibility:visible;display:inline;overflow:visible;enable-background:accumulate"
             d="m 1677.2096,1295.0031 0,151.9261 263.2301,0 -263.2301,-151.9261 z"
             id="path10650-5-7-4-1-5" />
        </g>
      </g>
      <path
         sodipodi:type="arc"
         style="color:#000000;fill:#ff0000;fill-opacity:1;fill-rule:evenodd;stroke:#000000;stroke-width:1.17032969;stroke-linecap:butt;stroke-linejoin:miter;stroke-miterlimit:4;stroke-opacity:1;stroke-dasharray:none;stroke-dashoffset:0;marker:none;visibility:visible;display:inline;overflow:visible;enable-background:accumulate"
         id="path13844-0-4-0"
         sodipodi:cx="-751.25671"
         sodipodi:cy="-1688.0742"
         sodipodi:rx="3.1377861"
         sodipodi:ry="3.1377861"
         d="m -748.11893,-1688.0742 c 0,1.7329 -1.40483,3.1378 -3.13778,3.1378 -1.73296,0 -3.13779,-1.4049 -3.13779,-3.1378 0,-1.733 1.40483,-3.1378 3.13779,-3.1378 1.73295,0 3.13778,1.4048 3.13778,3.1378 z"
         transform="matrix(1.8661084,0,0,1.8661084,3170.7727,5742.2353)" />
    </g>
    <g
       inkscape:export-ydpi="300"
       inkscape:export-xdpi="300"
       inkscape:export-filename="C:\Users\mscavers\Desktop\Math 251 (Fall 2011)\Lecture Notes\Lecture 4\Trig\ex1.png"
       transform="translate(-1621.1805,-2264.4848)"
       id="g22367">
      <g
         id="g17809-1-9-8"
         transform="translate(-512.49451,1328.0161)">
        <path
           id="path4306-0-2-8-1"
           d="m 1989.9814,1171.0477 0,380"
           style="color:#000000;fill:none;stroke:#000000;stroke-width:3;stroke-linecap:butt;stroke-linejoin:miter;stroke-miterlimit:4;stroke-opacity:1;stroke-dasharray:none;stroke-dashoffset:0;marker:none;visibility:visible;display:inline;overflow:visible;enable-background:accumulate" />
        <path
           id="path4306-1-9-0-8-9"
           d="m 2179.9814,1361.0477 -380,0"
           style="color:#000000;fill:none;stroke:#000000;stroke-width:3;stroke-linecap:butt;stroke-linejoin:miter;stroke-miterlimit:4;stroke-opacity:1;stroke-dasharray:none;stroke-dashoffset:0;marker:none;visibility:visible;display:inline;overflow:visible;enable-background:accumulate" />
      </g>
      <g
         transform="matrix(1.4559746,0,0,1.4559746,-952.44861,615.69251)"
         inkscape:export-ydpi="300"
         inkscape:export-xdpi="300"
         inkscape:export-filename="C:\Users\mscavers\Desktop\Math 251 (Fall 2011)\Lecture Notes\Lecture 4\Trig\trig3.png"
         id="g22497-7-7-0-8">
        <g
           id="g13823-9-7-8-9">
          <g
             id="g13809-9-7-7-7"
             transform="translate(102.08373,36.970039)" />
        </g>
        <g
           id="g17980-3-7-2"
           transform="translate(-132.22896,1.4142135)">
          <path
             style="color:#000000;fill:none;stroke:#d40000;stroke-width:3;stroke-linecap:butt;stroke-linejoin:miter;stroke-miterlimit:4;stroke-opacity:1;stroke-dasharray:none;stroke-dashoffset:0;marker:none;visibility:visible;display:inline;overflow:visible;enable-background:accumulate"
             d="m 1699.2781,1385.113 -99.4303,-56.8655"
             id="path13706-8-3-8-2"
             transform="translate(102.08374,36.97)"
             sodipodi:nodetypes="cc" />
          <g
             id="g13683-6-5-3-8"
             transform="translate(95.43394,82.1418)">
            <path
               transform="translate(1294.6821,986.34078)"
               d="m 415,354.11218 c 0,2.34721 -1.90279,4.25 -4.25,4.25 -2.34721,0 -4.25,-1.90279 -4.25,-4.25 0,-2.34721 1.90279,-4.25 4.25,-4.25 2.34721,0 4.25,1.90279 4.25,4.25 z"
               sodipodi:ry="4.25"
               sodipodi:rx="4.25"
               sodipodi:cy="354.11218"
               sodipodi:cx="410.75"
               id="path11292-2-7-7-0-9-8-2"
               style="color:#000000;fill:#000000;fill-opacity:1;fill-rule:evenodd;stroke:none;stroke-width:1.5;marker:none;visibility:visible;display:inline;overflow:visible;enable-background:accumulate"
               sodipodi:type="arc" />
          </g>
          <path
             sodipodi:type="arc"
             style="color:#000000;fill:none;stroke:#008000;stroke-width:1.5;stroke-linecap:butt;stroke-linejoin:miter;stroke-miterlimit:4;stroke-opacity:1;stroke-dasharray:none;stroke-dashoffset:0;marker:none;visibility:visible;display:inline;overflow:visible;enable-background:accumulate"
             id="path13759-4-9-3-8"
             sodipodi:cx="-788.42407"
             sodipodi:cy="-1662.0439"
             sodipodi:rx="17.500893"
             sodipodi:ry="17.500893"
             d="m -798.92461,-1676.0447 c 7.73238,-5.7992 18.70197,-4.2322 24.50125,3.5002 2.1811,2.9082 3.4025,6.4233 3.49457,10.0573"
             transform="translate(2589.2901,3084.6387)"
             sodipodi:start="4.0688879"
             sodipodi:end="6.2578556"
             sodipodi:open="true" />
          <path
             style="color:#000000;fill:#008000;stroke:#008000;stroke-width:1.5;stroke-linecap:butt;stroke-linejoin:miter;stroke-miterlimit:4;stroke-opacity:1;stroke-dasharray:none;stroke-dashoffset:0;marker:none;visibility:visible;display:inline;overflow:visible;enable-background:accumulate"
             d="m 1688.4063,1371.8105 2.1213,-7.4246"
             id="path13763-8-8-7-9"
             transform="translate(102.08374,36.97)" />
          <path
             style="color:#000000;fill:#008000;stroke:#008000;stroke-width:1.5;stroke-linecap:butt;stroke-linejoin:miter;stroke-miterlimit:4;stroke-opacity:1;stroke-dasharray:none;stroke-dashoffset:0;marker:none;visibility:visible;display:inline;overflow:visible;enable-background:accumulate"
             d="m 1695.2451,1373.3226 -7.4905,-1.8752"
             id="path13763-0-6-1-1-0"
             transform="translate(102.08374,36.97)" />
          <path
             id="path22495-8-8-0-7"
             d="m 1804.8069,1422.5074 127.1296,0"
             style="color:#000000;fill:none;stroke:#d40000;stroke-width:3;stroke-linecap:butt;stroke-linejoin:miter;stroke-miterlimit:4;stroke-opacity:1;stroke-dasharray:none;stroke-dashoffset:0;marker:none;visibility:visible;display:inline;overflow:visible;enable-background:accumulate"
             sodipodi:nodetypes="cc" />
        </g>
      </g>
      <g
         id="g19964-2-7-8"
         transform="matrix(0.40951819,0,0,0.40951819,1050.8382,2474.694)"
         style="fill:#008000">
        <g
           word-spacing="normal"
           letter-spacing="normal"
           font-size-adjust="none"
           font-stretch="normal"
           font-weight="normal"
           font-variant="normal"
           font-style="normal"
           stroke-miterlimit="10.433"
           xml:space="preserve"
           transform="matrix(1.0629921,0,0,-1.0629921,-186.02362,789.27165)"
           id="g19966-6-3-1"
           style="font-style:normal;font-variant:normal;font-weight:normal;font-stretch:normal;letter-spacing:normal;word-spacing:normal;text-anchor:start;fill:#008000;stroke:#000000;stroke-linecap:butt;stroke-linejoin:miter;stroke-miterlimit:10.43299961;stroke-opacity:1;stroke-dasharray:none;stroke-dashoffset:0"><path
             id="path19968-6-4-5"
             d="m 1235.4,379.01 0,0.55 -0.1,0.55 0,0.54 -0.1,0.53 -0.1,0.53 -0.1,0.51 -0.2,0.5 -0.2,0.5 -0.1,0.48 -0.2,0.47 -0.3,0.46 -0.2,0.44 -0.3,0.43 -0.2,0.41 -0.3,0.4 -0.3,0.38 -0.4,0.36 -0.3,0.35 -0.4,0.33 -0.3,0.3 -0.4,0.29 -0.4,0.27 -0.4,0.24 -0.5,0.22 -0.4,0.2 -0.4,0.17 -0.5,0.15 -0.4,0.13 -0.5,0.09 -0.5,0.07 -0.5,0.05 -0.5,0.01 c -2.4,0 -4.5,-0.79 -6.3,-2.54 v 9.71 c 1,-0.29 2.6,-0.64 4.2,-0.64 6.1,0 9.6,4.53 9.6,5.18 0,0.3 -0.1,0.55 -0.5,0.55 0,0 -0.1,0 -0.4,-0.15 -1,-0.45 -3.4,-1.45 -6.7,-1.45 -2,0 -4.3,0.35 -6.7,1.4 -0.4,0.15 -0.5,0.15 -0.6,0.15 -0.5,0 -0.5,-0.4 -0.5,-1.2 v -14.75 c 0,-0.89 0,-1.29 0.7,-1.29 0.4,0 0.5,0.15 0.7,0.45 0.5,0.8 2.4,3.48 6.4,3.48 2.6,0 3.8,-2.28 4.2,-3.18 0.8,-1.85 0.9,-3.79 0.9,-6.28 0,-1.74 0,-4.73 -1.2,-6.82 -1.2,-1.95 -3,-3.24 -5.3,-3.24 -3.6,0 -6.5,2.64 -7.3,5.58 0.1,-0.05 0.3,-0.1 0.8,-0.1 1.7,0 2.5,1.24 2.5,2.44 0,1.19 -0.8,2.44 -2.5,2.44 -0.7,0 -2.4,-0.35 -2.4,-2.64 0,-4.29 3.4,-9.12 9,-9.12 5.8,0 10.9,4.79 10.9,11.11 z"
             style="fill:#008000;stroke-width:0" /><path
             id="path19970-0-9-8"
             d="m 1251.2,387.58 h 5.6 c -1.6,-7.37 -2.1,-9.51 -2.1,-12.85 0,-0.75 0,-2.09 0.4,-3.79 0.5,-2.19 1.1,-2.49 1.8,-2.49 1,0 2.1,0.9 2.1,1.89 0,0.3 0,0.4 -0.3,1.1 -1.5,3.59 -1.5,6.83 -1.5,8.22 0,2.64 0.4,5.33 0.9,7.92 h 5.7 c 0.6,0 2.4,0 2.4,1.69 0,1.2 -1,1.2 -1.9,1.2 h -16.7 c -1.1,0 -3,0 -5.2,-2.34 -1.8,-1.95 -3.1,-4.24 -3.1,-4.49 0,-0.05 0,-0.49 0.6,-0.49 0.4,0 0.5,0.2 0.8,0.6 2.5,3.83 5.4,3.83 6.4,3.83 h 2.8 c -1.6,-6.03 -4.3,-12.05 -6.4,-16.59 -0.4,-0.74 -0.4,-0.85 -0.4,-1.19 0,-0.95 0.8,-1.35 1.5,-1.35 1.5,0 1.9,1.4 2.5,3.24 0.7,2.29 0.7,2.39 1.3,4.88 z"
             style="fill:#008000;stroke-width:0" /><polyline
             id="polyline19972-3-6-6"
             points="1213,347 1268.2,347 1268.2,349.04 1213,349.04 "
             style="fill:#008000;fill-rule:nonzero;stroke-width:0" /><path
             id="path19974-8-5-1"
             d="m 1234.6,317.34 v 1.2 c 0,12.6 6.2,14.39 8.7,14.39 1.2,0 3.3,-0.3 4.4,-1.99 -0.8,0 -2.8,0 -2.8,-2.24 0,-1.55 1.2,-2.29 2.3,-2.29 0.8,0 2.3,0.44 2.3,2.39 0,2.99 -2.2,5.38 -6.3,5.38 -6.4,0 -13.1,-6.43 -13.1,-17.44 0,-13.3 5.8,-16.84 10.4,-16.84 5.5,0 10.3,4.69 10.3,11.26 0,6.33 -4.5,11.11 -10,11.11 l 0,-1.14 c 0.8,0 3,0 4.6,-3.09 0.9,-1.85 0.9,-4.39 0.9,-6.83 0,-2.39 0,-4.88 -0.9,-6.67 -1.5,-2.99 -3.7,-3.24 -4.9,-3.24 h 0 c -3.1,0 -4.6,2.99 -4.9,3.74 -0.9,2.34 -0.9,6.32 -0.9,7.22 0,3.88 1.6,8.87 6.1,8.87 l 0,1.14 c -3.4,0 -5.2,-2.54 -6.2,-4.93 z"
             style="fill:#008000;stroke-width:0" /></g>      </g>
      <path
         sodipodi:type="arc"
         style="color:#000000;fill:#ff0000;fill-opacity:1;fill-rule:evenodd;stroke:#000000;stroke-width:1.17032969;stroke-linecap:butt;stroke-linejoin:miter;stroke-miterlimit:4;stroke-opacity:1;stroke-dasharray:none;stroke-dashoffset:0;marker:none;visibility:visible;display:inline;overflow:visible;enable-background:accumulate"
         id="path13844-0-4-0-8"
         sodipodi:cx="-751.25671"
         sodipodi:cy="-1688.0742"
         sodipodi:rx="3.1377861"
         sodipodi:ry="3.1377861"
         d="m -748.11893,-1688.0742 c 0,1.7329 -1.40483,3.1378 -3.13778,3.1378 -1.73296,0 -3.13779,-1.4049 -3.13779,-3.1378 0,-1.733 1.40483,-3.1378 3.13779,-3.1378 1.73295,0 3.13778,1.4048 3.13778,3.1378 z"
         transform="matrix(1.8661084,0,0,1.8661084,2732.0002,5754.0056)" />
    </g>
  </g>
</svg>
