<?xml version="1.0" encoding="UTF-8" standalone="no"?>
<!-- Created with Inkscape (http://www.inkscape.org/) -->

<svg
   xmlns:dc="http://purl.org/dc/elements/1.1/"
   xmlns:cc="http://creativecommons.org/ns#"
   xmlns:rdf="http://www.w3.org/1999/02/22-rdf-syntax-ns#"
   xmlns:svg="http://www.w3.org/2000/svg"
   xmlns="http://www.w3.org/2000/svg"
   xmlns:sodipodi="http://sodipodi.sourceforge.net/DTD/sodipodi-0.dtd"
   xmlns:inkscape="http://www.inkscape.org/namespaces/inkscape"
   width="383.00006"
   height="383.00003"
   id="svg14802"
   version="1.1"
   inkscape:version="0.47 r22583"
   sodipodi:docname="trig5.eps">
  <defs
     id="defs14804">
    <inkscape:perspective
       sodipodi:type="inkscape:persp3d"
       inkscape:vp_x="0 : 526.18109 : 1"
       inkscape:vp_y="0 : 1000 : 0"
       inkscape:vp_z="744.09448 : 526.18109 : 1"
       inkscape:persp3d-origin="372.04724 : 350.78739 : 1"
       id="perspective14810" />
    <inkscape:perspective
       id="perspective14820"
       inkscape:persp3d-origin="0.5 : 0.33333333 : 1"
       inkscape:vp_z="1 : 0.5 : 1"
       inkscape:vp_y="0 : 1000 : 0"
       inkscape:vp_x="0 : 0.5 : 1"
       sodipodi:type="inkscape:persp3d" />
    <inkscape:perspective
       id="perspective14896"
       inkscape:persp3d-origin="0.5 : 0.33333333 : 1"
       inkscape:vp_z="1 : 0.5 : 1"
       inkscape:vp_y="0 : 1000 : 0"
       inkscape:vp_x="0 : 0.5 : 1"
       sodipodi:type="inkscape:persp3d" />
    <inkscape:perspective
       id="perspective14960"
       inkscape:persp3d-origin="0.5 : 0.33333333 : 1"
       inkscape:vp_z="1 : 0.5 : 1"
       inkscape:vp_y="0 : 1000 : 0"
       inkscape:vp_x="0 : 0.5 : 1"
       sodipodi:type="inkscape:persp3d" />
    <inkscape:perspective
       id="perspective15105"
       inkscape:persp3d-origin="0.5 : 0.33333333 : 1"
       inkscape:vp_z="1 : 0.5 : 1"
       inkscape:vp_y="0 : 1000 : 0"
       inkscape:vp_x="0 : 0.5 : 1"
       sodipodi:type="inkscape:persp3d" />
    <inkscape:perspective
       id="perspective15199"
       inkscape:persp3d-origin="0.5 : 0.33333333 : 1"
       inkscape:vp_z="1 : 0.5 : 1"
       inkscape:vp_y="0 : 1000 : 0"
       inkscape:vp_x="0 : 0.5 : 1"
       sodipodi:type="inkscape:persp3d" />
    <inkscape:perspective
       id="perspective15359"
       inkscape:persp3d-origin="0.5 : 0.33333333 : 1"
       inkscape:vp_z="1 : 0.5 : 1"
       inkscape:vp_y="0 : 1000 : 0"
       inkscape:vp_x="0 : 0.5 : 1"
       sodipodi:type="inkscape:persp3d" />
  </defs>
  <sodipodi:namedview
     id="base"
     pagecolor="#ffffff"
     bordercolor="#666666"
     borderopacity="1.0"
     inkscape:pageopacity="0.0"
     inkscape:pageshadow="2"
     inkscape:zoom="0.7"
     inkscape:cx="289.03785"
     inkscape:cy="277.94599"
     inkscape:document-units="px"
     inkscape:current-layer="layer1"
     showgrid="false"
     inkscape:window-width="840"
     inkscape:window-height="695"
     inkscape:window-x="1229"
     inkscape:window-y="120"
     inkscape:window-maximized="0" />
  <metadata
     id="metadata14807">
    <rdf:RDF>
      <cc:Work
         rdf:about="">
        <dc:format>image/svg+xml</dc:format>
        <dc:type
           rdf:resource="http://purl.org/dc/dcmitype/StillImage" />
        <dc:title></dc:title>
      </cc:Work>
    </rdf:RDF>
  </metadata>
  <g
     inkscape:label="Layer 1"
     inkscape:groupmode="layer"
     id="layer1"
     transform="translate(33.762513,-333.7901)">
    <g
       inkscape:export-ydpi="300"
       inkscape:export-xdpi="300"
       inkscape:export-filename="C:\Users\mscavers\Desktop\Math 251 (Fall 2011)\Lecture Notes\Lecture 4\Trig\cast.png"
       id="g17569"
       transform="translate(-1774.2611,-953.13729)">
      <g
         id="g17548"
         transform="translate(-57.982755,117.37972)">
        <path
           style="color:#000000;fill:none;stroke:#000000;stroke-width:3;stroke-linecap:butt;stroke-linejoin:miter;stroke-miterlimit:4;stroke-opacity:1;stroke-dasharray:none;stroke-dashoffset:0;marker:none;visibility:visible;display:inline;overflow:visible;enable-background:accumulate"
           d="m 1989.9814,1171.0477 0,380"
           id="path4306" />
        <path
           style="color:#000000;fill:none;stroke:#000000;stroke-width:3;stroke-linecap:butt;stroke-linejoin:miter;stroke-miterlimit:4;stroke-opacity:1;stroke-dasharray:none;stroke-dashoffset:0;marker:none;visibility:visible;display:inline;overflow:visible;enable-background:accumulate"
           d="m 2179.9814,1361.0477 -380,0"
           id="path4306-1" />
        <g
           style="fill:#ff0000;stroke:#ff0000"
           id="g5134"
           transform="translate(4.3960348,-7.7065582)">
          <text
             sodipodi:linespacing="120%"
             id="text5102"
             y="1493.0444"
             x="2087.0498"
             style="font-size:53.01176453px;font-style:normal;font-variant:normal;font-weight:normal;font-stretch:normal;text-align:center;line-height:120.00000477%;writing-mode:lr-tb;text-anchor:middle;fill:#ff0000;fill-opacity:1;stroke:#ff0000;font-family:Cambria Math;-inkscape-font-specification:Cambria Math"
             xml:space="preserve"><tspan
               y="1493.0444"
               x="2087.0498"
               id="tspan5104"
               sodipodi:role="line">C</tspan></text>
          <text
             sodipodi:linespacing="120%"
             id="text5106"
             y="1280.0037"
             x="2087.3345"
             style="font-size:53.01176453px;font-style:normal;font-variant:normal;font-weight:normal;font-stretch:normal;text-align:center;line-height:120.00000477%;writing-mode:lr-tb;text-anchor:middle;fill:#ff0000;fill-opacity:1;stroke:#ff0000;font-family:Cambria Math;-inkscape-font-specification:Cambria Math"
             xml:space="preserve"><tspan
               y="1280.0037"
               x="2087.3345"
               id="tspan5108"
               sodipodi:role="line">A</tspan></text>
          <text
             sodipodi:linespacing="120%"
             id="text5110"
             y="1279.7966"
             x="1881.649"
             style="font-size:53.01176453px;font-style:normal;font-variant:normal;font-weight:normal;font-stretch:normal;text-align:center;line-height:120.00000477%;writing-mode:lr-tb;text-anchor:middle;fill:#ff0000;fill-opacity:1;stroke:#ff0000;font-family:Cambria Math;-inkscape-font-specification:Cambria Math"
             xml:space="preserve"><tspan
               y="1279.7966"
               x="1881.649"
               id="tspan5112"
               sodipodi:role="line">S</tspan></text>
          <text
             sodipodi:linespacing="120%"
             id="text5114"
             y="1493.0444"
             x="1881.8431"
             style="font-size:53.01176453px;font-style:normal;font-variant:normal;font-weight:normal;font-stretch:normal;text-align:center;line-height:120.00000477%;writing-mode:lr-tb;text-anchor:middle;fill:#ff0000;fill-opacity:1;stroke:#ff0000;font-family:Cambria Math;-inkscape-font-specification:Cambria Math"
             xml:space="preserve"><tspan
               y="1493.0444"
               x="1881.8431"
               id="tspan5116"
               sodipodi:role="line">T</tspan></text>
        </g>
        <text
           xml:space="preserve"
           style="font-size:25.6068306px;font-style:normal;font-variant:normal;font-weight:normal;font-stretch:normal;text-align:center;line-height:120.00000477%;writing-mode:lr-tb;text-anchor:middle;fill:#000000;fill-opacity:1;stroke:none;font-family:Cambria Math;-inkscape-font-specification:Cambria Math"
           x="2168.9749"
           y="1353.0054"
           id="text5118"
           sodipodi:linespacing="120%"><tspan
             sodipodi:role="line"
             id="tspan5120"
             x="2168.9749"
             y="1353.0054">I</tspan></text>
        <text
           xml:space="preserve"
           style="font-size:25.6068306px;font-style:normal;font-variant:normal;font-weight:normal;font-stretch:normal;text-align:center;line-height:120.00000477%;writing-mode:lr-tb;text-anchor:middle;fill:#000000;fill-opacity:1;stroke:none;font-family:Cambria Math;-inkscape-font-specification:Cambria Math"
           x="1814.7542"
           y="1349.5778"
           id="text5122"
           sodipodi:linespacing="120%"><tspan
             sodipodi:role="line"
             id="tspan5124"
             x="1814.7542"
             y="1349.5778">II</tspan></text>
        <text
           xml:space="preserve"
           style="font-size:25.6068306px;font-style:normal;font-variant:normal;font-weight:normal;font-stretch:normal;text-align:center;line-height:120.00000477%;writing-mode:lr-tb;text-anchor:middle;fill:#000000;fill-opacity:1;stroke:none;font-family:Cambria Math;-inkscape-font-specification:Cambria Math"
           x="1814.7571"
           y="1389.1946"
           id="text5126"
           sodipodi:linespacing="120%"><tspan
             sodipodi:role="line"
             id="tspan5128"
             x="1814.7571"
             y="1389.1946">III</tspan></text>
        <text
           xml:space="preserve"
           style="font-size:25.6068306px;font-style:normal;font-variant:normal;font-weight:normal;font-stretch:normal;text-align:center;line-height:120.00000477%;writing-mode:lr-tb;text-anchor:middle;fill:#000000;fill-opacity:1;stroke:none;font-family:Cambria Math;-inkscape-font-specification:Cambria Math"
           x="2167.969"
           y="1385.4352"
           id="text5130"
           sodipodi:linespacing="120%"><tspan
             sodipodi:role="line"
             id="tspan5132"
             x="2167.969"
             y="1385.4352">IV</tspan></text>
      </g>
      <g
         id="g6711"
         transform="matrix(0.62863127,0,0,0.62863127,1089.9098,1045.4424)"
         style="fill:#000080">
        <g
           id="g6713"
           transform="matrix(1.0629921,0,0,-1.0629921,-186.02362,789.27165)"
           xml:space="preserve"
           stroke-miterlimit="10.433"
           font-style="normal"
           font-variant="normal"
           font-weight="normal"
           font-stretch="normal"
           font-size-adjust="none"
           letter-spacing="normal"
           word-spacing="normal"
           style="font-style:normal;font-variant:normal;font-weight:normal;font-stretch:normal;letter-spacing:normal;word-spacing:normal;text-anchor:start;fill:#000080;stroke:#000000;stroke-linecap:butt;stroke-linejoin:miter;stroke-miterlimit:10.43299961;stroke-opacity:1;stroke-dasharray:none;stroke-dashoffset:0"><path
             d="m 1157.4,355.66 0.1,-0.02 0.1,-0.02 0.1,-0.03 0.2,-0.03 0.2,-0.04 0.1,-0.05 0.2,-0.05 0.2,-0.05 0.2,-0.06 0.2,-0.07 0.3,-0.08 0.2,-0.09 0.2,-0.09 0.2,-0.1 0.2,-0.12 0.3,-0.12 0.2,-0.13 0.2,-0.14 0.2,-0.15 0.2,-0.16 0.2,-0.18 0.2,-0.19 0.1,-0.2 0.2,-0.21 0.1,-0.22 0.1,-0.12 0.1,-0.12 0,-0.13 0.1,-0.12 0,-0.13 0.1,-0.14 0,-0.14 0,-0.14 0.1,-0.15 0,-0.15 0,-0.15 0,-0.16 0,-0.16 0,-0.17 c 0,-2.54 -1.7,-4.53 -5.6,-4.53 -4.2,0 -6,2.84 -6.9,7.07 -0.2,0.65 -0.2,0.85 -0.7,0.85 -0.7,0 -0.7,-0.35 -0.7,-1.25 v -6.57 c 0,-0.85 0,-1.2 0.6,-1.2 0.2,0 0.3,0.05 1.2,1 0.1,0.1 0.1,0.2 1,1.14 2.2,-2.09 4.5,-2.14 5.5,-2.14 5.7,0 8,3.34 8,6.93 0,2.64 -1.5,4.13 -2.1,4.73 -1.6,1.59 -3.5,1.99 -5.6,2.39 -2.8,0.55 -6.2,1.2 -6.2,4.09 0,1.74 1.3,3.78 5.6,3.78 5.5,0 5.7,-4.48 5.8,-6.03 0.1,-0.45 0.5,-0.45 0.6,-0.45 0.7,0 0.7,0.25 0.7,1.2 v 5.03 c 0,0.85 0,1.2 -0.6,1.2 -0.2,0 -0.3,0 -1,-0.6 -0.1,-0.2 -0.6,-0.65 -0.8,-0.8 -1.9,1.4 -3.9,1.4 -4.7,1.4 -6.1,0 -8,-3.34 -8,-6.13 0,-1.74 0.8,-3.14 2.2,-4.23 1.6,-1.3 3,-1.6 6.6,-2.3 z"
             id="path6715"
             style="fill:#000080;stroke-width:0" /><path
             d="m 1175.8,368.02 -7,-0.55 v -1.54 c 3.3,0 3.7,-0.3 3.7,-2.75 v -13.39 c 0,-2.25 -0.5,-2.25 -3.9,-2.25 V 346 h 10.7 v 1.54 c -3.3,0 -3.5,0.25 -3.5,2.19 z"
             id="path6717"
             style="fill:#000080;stroke-width:0" /><path
             d="m 1176,376.68 0,0.15 0,0.15 0,0.14 0,0.13 -0.1,0.14 0,0.13 0,0.13 -0.1,0.12 -0.1,0.12 0,0.11 -0.1,0.11 0,0.11 -0.1,0.1 -0.1,0.1 -0.1,0.09 -0.1,0.09 -0.1,0.09 -0.1,0.07 -0.1,0.08 -0.1,0.07 -0.1,0.06 -0.1,0.06 -0.1,0.06 -0.1,0.05 -0.1,0.04 -0.2,0.04 -0.1,0.03 -0.1,0.03 -0.1,0.02 -0.2,0.01 -0.1,0.01 -0.1,0 c -1.6,0 -2.7,-1.34 -2.7,-2.64 0,-1.34 1.1,-2.64 2.7,-2.64 1.4,0 2.6,1.05 2.6,2.64 z"
             id="path6719"
             style="fill:#000080;stroke-width:0" /><path
             d="m 1186.5,363.14 v -13.35 c 0,-2.25 -0.6,-2.25 -3.9,-2.25 V 346 h 11.2 v 1.54 c -3.3,0 -3.9,0 -3.9,2.25 v 9.16 c 0,5.18 3.5,7.97 6.7,7.97 3.2,0 3.7,-2.69 3.7,-5.53 v -11.6 c 0,-2.25 -0.5,-2.25 -3.9,-2.25 V 346 h 11.3 v 1.54 c -2.6,0 -3.9,0 -3.9,1.5 v 9.51 c 0,4.29 0,5.83 -1.6,7.63 -0.7,0.84 -2.3,1.84 -5.2,1.84 -3.6,0 -6,-2.14 -7.4,-5.23 v 5.23 l -7,-0.55 v -1.54 c 3.5,0 3.9,-0.35 3.9,-2.79 z"
             id="path6721"
             style="fill:#000080;stroke-width:0" /><path
             d="m 1239.7,370.91 0,0.31 -0.1,0.34 0,0.36 0,0.37 0,0.38 -0.1,0.4 0,0.41 -0.1,0.41 0,0.42 -0.1,0.42 -0.1,0.43 -0.1,0.42 -0.1,0.43 -0.1,0.42 -0.2,0.41 -0.1,0.4 -0.2,0.4 -0.2,0.39 -0.2,0.37 -0.2,0.35 -0.2,0.34 -0.3,0.32 -0.2,0.3 -0.3,0.27 -0.3,0.25 -0.2,0.12 -0.2,0.11 -0.1,0.1 -0.2,0.09 -0.2,0.09 -0.2,0.07 -0.2,0.07 -0.2,0.06 -0.2,0.06 -0.2,0.04 -0.2,0.03 -0.2,0.03 -0.3,0.01 -0.2,0.01 -0.1,-1.1 c 2.5,0 2.8,-3.18 2.8,-6.02 0,-2.45 -0.4,-4.99 -1.6,-9.92 h -10.4 c 0.8,3.19 1.8,7.17 3.8,10.71 1.4,2.44 3.2,5.23 5.4,5.23 l 0.1,1.1 c -6.9,0 -14.6,-14.05 -14.6,-25.46 0,-4.68 1.4,-10.21 6,-10.21 v 1.1 c -1.7,0 -2.7,1.44 -2.7,6.08 0,2.09 0.3,4.98 1.6,9.86 h 10.3 c -0.5,-2.29 -1.6,-6.53 -3.5,-10.11 -1.7,-3.39 -3.6,-5.83 -5.7,-5.83 v -1.1 c 7,0 14.6,14.3 14.6,25.46 z"
             id="path6723"
             style="fill:#000080;stroke-width:0" /><path
             d="m 1288.6,357.36 0.1,0.04 0.1,0.05 0.1,0.02 0,0.03 0.1,0.02 0,0.03 0,0.02 0.1,0.03 0,0.03 0.1,0.02 0,0.03 0,0.03 0.1,0.03 0,0.03 0,0.04 0.1,0.03 0,0.03 0,0.04 0,0.04 0.1,0.03 0,0.04 0,0.04 0,0.05 0,0.04 0,0.05 0.1,0.04 0,0.05 0,0.05 0,0.06 0,0.05 c 0,0.6 -0.4,0.85 -1,1.1 l -27.6,13 c -0.6,0.35 -0.7,0.35 -0.9,0.35 -0.5,0 -1,-0.45 -1,-1 0,-0.45 0.3,-0.74 1,-1.09 l 26.1,-12.36 -26.1,-12.35 c -0.7,-0.35 -1,-0.65 -1,-1.1 0,-0.54 0.5,-0.99 1,-0.99 0.2,0 0.3,0 0.9,0.35 z"
             id="path6725"
             style="fill:#000080;stroke-width:0" /><path
             d="m 1330.9,361.94 0,0.75 0,0.74 0,0.75 -0.1,0.74 0,0.75 -0.1,0.74 0,0.74 -0.1,0.73 -0.1,0.73 -0.2,0.73 -0.1,0.72 -0.2,0.72 -0.3,0.71 -0.2,0.71 -0.3,0.7 -0.1,0.35 -0.2,0.35 c -2.3,4.78 -6.3,5.58 -8.5,5.58 -2.9,0 -6.6,-1.3 -8.6,-5.93 -1.6,-3.44 -1.9,-7.32 -1.9,-11.31 0,-3.74 0.2,-8.22 2.3,-12.01 2.1,-4.03 5.8,-5.03 8.2,-5.03 v 1.1 c -1.9,0 -4.9,1.25 -5.8,6.03 -0.5,2.99 -0.5,7.57 -0.5,10.51 0,3.19 0,6.47 0.4,9.16 0.9,5.93 4.7,6.38 5.9,6.38 1.7,0 4.9,-0.9 5.9,-5.83 0.5,-2.79 0.5,-6.57 0.5,-9.71 0,-3.74 0,-7.13 -0.6,-10.31 -0.7,-4.73 -3.6,-6.23 -5.8,-6.23 h 0 v -1.1 c 2.7,0 6.5,1.05 8.7,5.78 1.6,3.44 1.8,7.32 1.8,11.26 z"
             id="path6727"
             style="fill:#000080;stroke-width:0" /></g>      </g>
      <g
         id="g9787"
         transform="matrix(0.62863127,0,0,0.62863127,1349.0868,1403.6444)"
         style="fill:#000080">
        <g
           word-spacing="normal"
           letter-spacing="normal"
           font-size-adjust="none"
           font-stretch="normal"
           font-weight="normal"
           font-variant="normal"
           font-style="normal"
           stroke-miterlimit="10.433"
           xml:space="preserve"
           transform="matrix(1.0629921,0,0,-1.0629921,-186.02362,789.27165)"
           id="g9789"
           style="font-style:normal;font-variant:normal;font-weight:normal;font-stretch:normal;letter-spacing:normal;word-spacing:normal;text-anchor:start;fill:#000080;stroke:#000000;stroke-linecap:butt;stroke-linejoin:miter;stroke-miterlimit:10.43299961;stroke-opacity:1;stroke-dasharray:none;stroke-dashoffset:0"><path
             id="path9791"
             d="m 1150.8,356.86 0,0.38 0,0.36 0.1,0.36 0,0.35 0,0.34 0,0.34 0.1,0.32 0,0.32 0.1,0.31 0,0.3 0.1,0.29 0,0.29 0.2,0.54 0.1,0.52 0.2,0.49 0.2,0.46 0.2,0.43 0.2,0.4 0.2,0.37 0.2,0.35 0.3,0.33 0.2,0.3 0.3,0.28 0.2,0.25 0.3,0.23 0.3,0.21 0.2,0.19 0.3,0.17 0.3,0.15 0.3,0.13 0.3,0.11 0.2,0.09 0.3,0.08 0.3,0.06 0.3,0.05 0.2,0.03 0.3,0.02 0.3,0.01 c 0.4,0 3.5,-0.05 5.3,-1.84 -2.1,-0.15 -2.4,-1.64 -2.4,-2.29 0,-1.3 0.9,-2.3 2.3,-2.3 1.3,0 2.3,0.85 2.3,2.34 0,3.4 -3.8,5.34 -7.6,5.34 -6.2,0 -10.8,-5.38 -10.8,-11.56 0,-6.38 4.9,-11.31 10.7,-11.31 6.7,0 8.3,5.98 8.3,6.48 0,0.5 -0.5,0.5 -0.7,0.5 -0.4,0 -0.5,-0.2 -0.6,-0.5 -1.5,-4.63 -4.7,-5.23 -6.6,-5.23 -2.6,0 -7,2.14 -7,10.16 z"
             style="fill:#000080;stroke-width:0" /><path
             id="path9793"
             d="m 1190.5,356.66 -0.1,0.59 0,0.59 -0.1,0.58 -0.1,0.57 -0.1,0.56 -0.1,0.55 -0.2,0.54 -0.2,0.53 -0.2,0.52 -0.3,0.5 -0.2,0.49 -0.3,0.47 -0.3,0.46 -0.4,0.44 -0.3,0.42 -0.4,0.41 -0.4,0.39 -0.4,0.36 -0.4,0.35 -0.4,0.33 -0.5,0.3 -0.4,0.29 -0.5,0.26 -0.5,0.23 -0.5,0.21 -0.5,0.19 -0.5,0.16 -0.5,0.13 -0.6,0.1 -0.5,0.08 -0.6,0.04 -0.6,0.02 0,-1.1 c 2.2,0 4.3,-1.09 5.6,-3.24 1.3,-2.14 1.3,-5.03 1.3,-6.92 0,-1.79 0,-4.49 -1.1,-6.68 -1.1,-2.24 -3.3,-3.68 -5.8,-3.68 h 0 c -2.1,0 -4.3,1.04 -5.6,3.34 -1.3,2.19 -1.3,5.23 -1.3,7.02 0,1.94 0,4.63 1.2,6.82 1.4,2.3 3.7,3.34 5.7,3.34 l 0,1.1 c -6.2,0 -11,-5.43 -11,-11.66 0,-6.43 5.2,-11.21 11,-11.21 6,0 11.1,4.88 11.1,11.21 z"
             style="fill:#000080;stroke-width:0" /><path
             id="path9795"
             d="m 1202.4,355.66 0.1,-0.02 0.1,-0.02 0.1,-0.03 0.2,-0.03 0.2,-0.04 0.1,-0.05 0.2,-0.05 0.2,-0.05 0.2,-0.06 0.2,-0.07 0.3,-0.08 0.2,-0.09 0.2,-0.09 0.2,-0.1 0.2,-0.12 0.3,-0.12 0.2,-0.13 0.2,-0.14 0.2,-0.15 0.2,-0.16 0.2,-0.18 0.2,-0.19 0.1,-0.2 0.2,-0.21 0.1,-0.22 0.1,-0.12 0.1,-0.12 0,-0.13 0.1,-0.12 0,-0.13 0.1,-0.14 0,-0.14 0,-0.14 0.1,-0.15 0,-0.15 0,-0.15 0,-0.16 0,-0.16 0,-0.17 c 0,-2.54 -1.7,-4.53 -5.6,-4.53 -4.2,0 -6,2.84 -6.9,7.07 -0.2,0.65 -0.2,0.85 -0.7,0.85 -0.7,0 -0.7,-0.35 -0.7,-1.25 v -6.57 c 0,-0.85 0,-1.2 0.6,-1.2 0.2,0 0.3,0.05 1.2,1 0.1,0.1 0.1,0.2 1,1.14 2.2,-2.09 4.5,-2.14 5.5,-2.14 5.7,0 8,3.34 8,6.93 0,2.64 -1.5,4.13 -2.1,4.73 -1.6,1.59 -3.5,1.99 -5.6,2.39 -2.8,0.55 -6.2,1.2 -6.2,4.09 0,1.74 1.3,3.78 5.6,3.78 5.5,0 5.7,-4.48 5.8,-6.03 0.1,-0.45 0.5,-0.45 0.6,-0.45 0.7,0 0.7,0.25 0.7,1.2 v 5.03 c 0,0.85 0,1.2 -0.6,1.2 -0.2,0 -0.3,0 -1,-0.6 -0.1,-0.2 -0.6,-0.65 -0.8,-0.8 -1.9,1.4 -3.9,1.4 -4.7,1.4 -6.1,0 -8,-3.34 -8,-6.13 0,-1.74 0.8,-3.14 2.2,-4.23 1.6,-1.3 3,-1.6 6.6,-2.3 z"
             style="fill:#000080;stroke-width:0" /><path
             id="path9797"
             d="m 1242.7,370.91 0,0.31 -0.1,0.34 0,0.36 0,0.37 0,0.38 -0.1,0.4 0,0.41 -0.1,0.41 0,0.42 -0.1,0.42 -0.1,0.43 -0.1,0.42 -0.1,0.43 -0.1,0.42 -0.2,0.41 -0.1,0.4 -0.2,0.4 -0.2,0.39 -0.2,0.37 -0.2,0.35 -0.2,0.34 -0.3,0.32 -0.2,0.3 -0.3,0.27 -0.3,0.25 -0.2,0.12 -0.2,0.11 -0.1,0.1 -0.2,0.09 -0.2,0.09 -0.2,0.07 -0.2,0.07 -0.2,0.06 -0.2,0.06 -0.2,0.04 -0.2,0.03 -0.2,0.03 -0.3,0.01 -0.2,0.01 -0.1,-1.1 c 2.5,0 2.8,-3.18 2.8,-6.02 0,-2.45 -0.4,-4.99 -1.6,-9.92 h -10.4 c 0.8,3.19 1.8,7.17 3.8,10.71 1.4,2.44 3.2,5.23 5.4,5.23 l 0.1,1.1 c -6.9,0 -14.6,-14.05 -14.6,-25.46 0,-4.68 1.4,-10.21 6,-10.21 v 1.1 c -1.7,0 -2.7,1.44 -2.7,6.08 0,2.09 0.3,4.98 1.6,9.86 h 10.3 c -0.5,-2.29 -1.6,-6.53 -3.5,-10.11 -1.7,-3.39 -3.6,-5.83 -5.7,-5.83 v -1.1 c 7,0 14.6,14.3 14.6,25.46 z"
             style="fill:#000080;stroke-width:0" /><path
             id="path9799"
             d="m 1291.6,357.36 0.1,0.04 0.1,0.05 0.1,0.02 0,0.03 0.1,0.02 0,0.03 0,0.02 0.1,0.03 0,0.03 0.1,0.02 0,0.03 0,0.03 0.1,0.03 0,0.03 0,0.04 0.1,0.03 0,0.03 0,0.04 0,0.04 0.1,0.03 0,0.04 0,0.04 0,0.05 0,0.04 0,0.05 0.1,0.04 0,0.05 0,0.05 0,0.06 0,0.05 c 0,0.6 -0.4,0.85 -1,1.1 l -27.6,13 c -0.6,0.35 -0.7,0.35 -0.9,0.35 -0.5,0 -1,-0.45 -1,-1 0,-0.45 0.3,-0.74 1,-1.09 l 26.1,-12.36 -26.1,-12.35 c -0.7,-0.35 -1,-0.65 -1,-1.1 0,-0.54 0.5,-0.99 1,-0.99 0.2,0 0.3,0 0.9,0.35 z"
             style="fill:#000080;stroke-width:0" /><path
             id="path9801"
             d="m 1333.9,361.94 0,0.75 0,0.74 0,0.75 -0.1,0.74 0,0.75 -0.1,0.74 0,0.74 -0.1,0.73 -0.1,0.73 -0.2,0.73 -0.1,0.72 -0.2,0.72 -0.3,0.71 -0.2,0.71 -0.3,0.7 -0.1,0.35 -0.2,0.35 c -2.3,4.78 -6.3,5.58 -8.5,5.58 -2.9,0 -6.6,-1.3 -8.6,-5.93 -1.6,-3.44 -1.9,-7.32 -1.9,-11.31 0,-3.74 0.2,-8.22 2.3,-12.01 2.1,-4.03 5.8,-5.03 8.2,-5.03 v 1.1 c -1.9,0 -4.9,1.25 -5.8,6.03 -0.5,2.99 -0.5,7.57 -0.5,10.51 0,3.19 0,6.47 0.4,9.16 0.9,5.93 4.7,6.38 5.9,6.38 1.7,0 4.9,-0.9 5.9,-5.83 0.5,-2.79 0.5,-6.57 0.5,-9.71 0,-3.74 0,-7.13 -0.6,-10.31 -0.7,-4.73 -3.6,-6.23 -5.8,-6.23 h 0 v -1.1 c 2.7,0 6.5,1.05 8.7,5.78 1.6,3.44 1.8,7.32 1.8,11.26 z"
             style="fill:#000080;stroke-width:0" /></g>      </g>
      <g
         id="g12877"
         transform="matrix(0.62863127,0,0,0.62863127,1093.7187,1403.6444)"
         style="fill:#000080">
        <g
           id="g12879"
           transform="matrix(1.0629921,0,0,-1.0629921,-186.02362,789.27165)"
           xml:space="preserve"
           stroke-miterlimit="10.433"
           font-style="normal"
           font-variant="normal"
           font-weight="normal"
           font-stretch="normal"
           font-size-adjust="none"
           letter-spacing="normal"
           word-spacing="normal"
           style="font-style:normal;font-variant:normal;font-weight:normal;font-stretch:normal;letter-spacing:normal;word-spacing:normal;text-anchor:start;fill:#000080;stroke:#000000;stroke-linecap:butt;stroke-linejoin:miter;stroke-miterlimit:10.43299961;stroke-opacity:1;stroke-dasharray:none;stroke-dashoffset:0"><path
             d="m 1150.6,365.93 h 7.1 v 1.54 h -7.1 v 9.17 h -1.2 c -0.1,-4.09 -1.6,-9.42 -6.5,-9.62 v -1.09 h 4.3 v -13.75 c 0,-6.13 4.6,-6.73 6.4,-6.73 3.5,0 4.9,3.54 4.9,6.73 v 2.84 h -1.2 v -2.74 c 0,-3.69 -1.5,-5.58 -3.3,-5.58 -3.4,0 -3.4,4.53 -3.4,5.38 z"
             id="path12881"
             style="fill:#000080;stroke-width:0" /><path
             d="m 1177.6,349.79 0,-0.19 0,-0.19 0.1,-0.19 0,-0.18 0.1,-0.19 0,-0.18 0.1,-0.18 0.1,-0.18 0,-0.18 0.1,-0.18 0.1,-0.17 0.1,-0.16 0.1,-0.17 0.1,-0.15 0.1,-0.16 0.1,-0.14 0.2,-0.15 0.1,-0.13 0.1,-0.13 0.2,-0.12 0.1,-0.12 0.2,-0.1 0.1,-0.1 0.2,-0.09 0.2,-0.08 0.2,-0.07 0.1,-0.07 0.2,-0.05 0.2,-0.04 0.2,-0.03 0.3,-0.01 0.2,-0.01 c 1,0 4.1,0.7 4.1,4.73 v 2.79 h -1.3 v -2.79 c 0,-2.89 -1.2,-3.18 -1.8,-3.18 -1.6,0 -1.8,2.24 -1.8,2.48 v 9.97 c 0,2.09 0,4.03 -1.8,5.88 -2,1.94 -4.5,2.74 -6.8,2.74 -4.1,0 -7.6,-2.34 -7.6,-5.63 0,-1.5 1,-2.34 2.3,-2.34 1.4,0 2.3,0.99 2.3,2.29 0,0.59 -0.2,2.24 -2.5,2.29 1.3,1.74 3.8,2.29 5.4,2.29 2.4,0 5.2,-1.94 5.2,-6.38 v -1.84 -1.04 -4.99 c 0,-4.73 -3.5,-6.42 -5.8,-6.42 -2.4,0 -4.5,1.74 -4.5,4.23 0,2.74 2.1,6.88 10.3,7.18 h 0 V 359 c -2.5,-0.15 -6,-0.3 -9.1,-1.79 -3.8,-1.69 -5,-4.28 -5,-6.48 0,-4.03 4.8,-5.28 8,-5.28 3.2,0 5.5,2 6.5,4.34 z"
             id="path12883"
             style="fill:#000080;stroke-width:0" /><path
             d="m 1191.5,363.14 v -13.35 c 0,-2.25 -0.6,-2.25 -3.9,-2.25 V 346 h 11.2 v 1.54 c -3.3,0 -3.9,0 -3.9,2.25 v 9.16 c 0,5.18 3.5,7.97 6.7,7.97 3.2,0 3.7,-2.69 3.7,-5.53 v -11.6 c 0,-2.25 -0.5,-2.25 -3.9,-2.25 V 346 h 11.3 v 1.54 c -2.6,0 -3.9,0 -3.9,1.5 v 9.51 c 0,4.29 0,5.83 -1.6,7.63 -0.7,0.84 -2.3,1.84 -5.2,1.84 -3.6,0 -6,-2.14 -7.4,-5.23 v 5.23 l -7,-0.55 v -1.54 c 3.5,0 3.9,-0.35 3.9,-2.79 z"
             id="path12885"
             style="fill:#000080;stroke-width:0" /><path
             d="m 1244.7,370.91 0,0.31 -0.1,0.34 0,0.36 0,0.37 0,0.38 -0.1,0.4 0,0.41 -0.1,0.41 0,0.42 -0.1,0.42 -0.1,0.43 -0.1,0.42 -0.1,0.43 -0.1,0.42 -0.2,0.41 -0.1,0.4 -0.2,0.4 -0.2,0.39 -0.2,0.37 -0.2,0.35 -0.2,0.34 -0.3,0.32 -0.2,0.3 -0.3,0.27 -0.3,0.25 -0.2,0.12 -0.2,0.11 -0.1,0.1 -0.2,0.09 -0.2,0.09 -0.2,0.07 -0.2,0.07 -0.2,0.06 -0.2,0.06 -0.2,0.04 -0.2,0.03 -0.2,0.03 -0.3,0.01 -0.2,0.01 -0.1,-1.1 c 2.5,0 2.8,-3.18 2.8,-6.02 0,-2.45 -0.4,-4.99 -1.6,-9.92 h -10.4 c 0.8,3.19 1.8,7.17 3.8,10.71 1.4,2.44 3.2,5.23 5.4,5.23 l 0.1,1.1 c -6.9,0 -14.6,-14.05 -14.6,-25.46 0,-4.68 1.4,-10.21 6,-10.21 v 1.1 c -1.7,0 -2.7,1.44 -2.7,6.08 0,2.09 0.3,4.98 1.6,9.86 h 10.3 c -0.5,-2.29 -1.6,-6.53 -3.5,-10.11 -1.7,-3.39 -3.6,-5.83 -5.7,-5.83 v -1.1 c 7,0 14.6,14.3 14.6,25.46 z"
             id="path12887"
             style="fill:#000080;stroke-width:0" /><path
             d="m 1294.6,357.36 0.1,0.04 0.1,0.05 0.1,0.02 0,0.03 0.1,0.02 0,0.03 0,0.02 0.1,0.03 0,0.03 0.1,0.02 0,0.03 0,0.03 0.1,0.03 0,0.03 0,0.04 0.1,0.03 0,0.03 0,0.04 0,0.04 0.1,0.03 0,0.04 0,0.04 0,0.05 0,0.04 0,0.05 0.1,0.04 0,0.05 0,0.05 0,0.06 0,0.05 c 0,0.6 -0.4,0.85 -1,1.1 l -27.6,13 c -0.6,0.35 -0.7,0.35 -0.9,0.35 -0.5,0 -1,-0.45 -1,-1 0,-0.45 0.3,-0.74 1,-1.09 l 26.1,-12.36 -26.1,-12.35 c -0.7,-0.35 -1,-0.65 -1,-1.1 0,-0.54 0.5,-0.99 1,-0.99 0.2,0 0.3,0 0.9,0.35 z"
             id="path12889"
             style="fill:#000080;stroke-width:0" /><path
             d="m 1335.9,361.94 0,0.75 0,0.74 0,0.75 -0.1,0.74 0,0.75 -0.1,0.74 0,0.74 -0.1,0.73 -0.1,0.73 -0.2,0.73 -0.1,0.72 -0.2,0.72 -0.3,0.71 -0.2,0.71 -0.3,0.7 -0.1,0.35 -0.2,0.35 c -2.3,4.78 -6.3,5.58 -8.5,5.58 -2.9,0 -6.6,-1.3 -8.6,-5.93 -1.6,-3.44 -1.9,-7.32 -1.9,-11.31 0,-3.74 0.2,-8.22 2.3,-12.01 2.1,-4.03 5.8,-5.03 8.2,-5.03 v 1.1 c -1.9,0 -4.9,1.25 -5.8,6.03 -0.5,2.99 -0.5,7.57 -0.5,10.51 0,3.19 0,6.47 0.4,9.16 0.9,5.93 4.7,6.38 5.9,6.38 1.7,0 4.9,-0.9 5.9,-5.83 0.5,-2.79 0.5,-6.57 0.5,-9.71 0,-3.74 0,-7.13 -0.6,-10.31 -0.7,-4.73 -3.6,-6.23 -5.8,-6.23 h 0 v -1.1 c 2.7,0 6.5,1.05 8.7,5.78 1.6,3.44 1.8,7.32 1.8,11.26 z"
             id="path12891"
             style="fill:#000080;stroke-width:0" /></g>      </g>
      <g
         id="g15983"
         transform="matrix(0.62863127,0,0,0.62863127,1361.1149,1045.81)"
         style="fill:#000080">
        <g
           word-spacing="normal"
           letter-spacing="normal"
           font-size-adjust="none"
           font-stretch="normal"
           font-weight="normal"
           font-variant="normal"
           font-style="normal"
           stroke-miterlimit="10.433"
           xml:space="preserve"
           transform="matrix(1.0629921,0,0,-1.0629921,-186.02362,789.27165)"
           id="g15985"
           style="font-style:normal;font-variant:normal;font-weight:normal;font-stretch:normal;letter-spacing:normal;word-spacing:normal;text-anchor:start;fill:#000080;stroke:#000000;stroke-linecap:butt;stroke-linejoin:miter;stroke-miterlimit:10.43299961;stroke-opacity:1;stroke-dasharray:none;stroke-dashoffset:0"><path
             id="path15987"
             d="m 1181.8,380.67 0,0.06 0,0.06 0,0.05 -0.1,0.06 0,0.05 0,0.05 0,0.05 0,0.05 -0.1,0.04 0,0.05 0,0.04 0,0.04 -0.1,0.04 0,0.03 0,0.04 0,0.03 -0.1,0.03 0,0.03 0,0.03 -0.1,0.02 0,0.03 0,0.02 -0.1,0.02 0,0.01 -0.1,0.02 0,0.01 -0.1,0.01 -0.1,0.01 0,0.01 -0.1,0 0,0.01 -0.1,0 0,0 c -0.8,0 -1,-0.3 -1.2,-1 l -10.3,-29.79 c -0.9,-2.54 -2.9,-3.29 -5.6,-3.34 V 346 h 10.8 v 1.54 c -2.5,0 -3.7,1.25 -3.7,2.55 0,0.14 0,0.64 0.1,0.74 l 2.3,6.53 0.5,1.54 5.6,16.19 5.6,-16.19 h -11.2 l -0.5,-1.54 h 12.3 l 2.6,-7.63 c 0.1,-0.19 0.2,-0.49 0.2,-0.69 0,-1.5 -2.8,-1.5 -4.2,-1.5 V 346 h 13.7 v 1.54 h -0.9 c -3,0 -3.7,0.35 -4.2,2 z"
             style="fill:#000080;stroke-width:0" /><path
             id="path15989"
             d="m 1207.8,380.57 -7.2,-0.55 v -1.54 c 3.5,0 3.9,-0.35 3.9,-2.79 v -25.9 c 0,-2.25 -0.5,-2.25 -3.9,-2.25 V 346 h 11.1 v 1.54 c -3.3,0 -3.9,0 -3.9,2.25 z"
             style="fill:#000080;stroke-width:0" /><path
             id="path15991"
             d="m 1221.8,380.57 -7.2,-0.55 v -1.54 c 3.5,0 3.9,-0.35 3.9,-2.79 v -25.9 c 0,-2.25 -0.5,-2.25 -3.9,-2.25 V 346 h 11.1 v 1.54 c -3.3,0 -3.9,0 -3.9,2.25 z"
             style="fill:#000080;stroke-width:0" /><path
             id="path15993"
             d="m 1274.6,357.36 0.1,0.04 0.1,0.05 0.1,0.02 0,0.03 0.1,0.02 0,0.03 0,0.02 0.1,0.03 0,0.03 0.1,0.02 0,0.03 0,0.03 0.1,0.03 0,0.03 0,0.04 0.1,0.03 0,0.03 0,0.04 0,0.04 0.1,0.03 0,0.04 0,0.04 0,0.05 0,0.04 0,0.05 0.1,0.04 0,0.05 0,0.05 0,0.06 0,0.05 c 0,0.6 -0.4,0.85 -1,1.1 l -27.6,13 c -0.6,0.35 -0.7,0.35 -0.9,0.35 -0.5,0 -1,-0.45 -1,-1 0,-0.45 0.3,-0.74 1,-1.09 l 26.1,-12.36 -26.1,-12.35 c -0.7,-0.35 -1,-0.65 -1,-1.1 0,-0.54 0.5,-0.99 1,-0.99 0.2,0 0.3,0 0.9,0.35 z"
             style="fill:#000080;stroke-width:0" /><path
             id="path15995"
             d="m 1315.9,361.94 0,0.75 0,0.74 0,0.75 -0.1,0.74 0,0.75 -0.1,0.74 0,0.74 -0.1,0.73 -0.1,0.73 -0.2,0.73 -0.1,0.72 -0.2,0.72 -0.3,0.71 -0.2,0.71 -0.3,0.7 -0.1,0.35 -0.2,0.35 c -2.3,4.78 -6.3,5.58 -8.5,5.58 -2.9,0 -6.6,-1.3 -8.6,-5.93 -1.6,-3.44 -1.9,-7.32 -1.9,-11.31 0,-3.74 0.2,-8.22 2.3,-12.01 2.1,-4.03 5.8,-5.03 8.2,-5.03 v 1.1 c -1.9,0 -4.9,1.25 -5.8,6.03 -0.5,2.99 -0.5,7.57 -0.5,10.51 0,3.19 0,6.47 0.4,9.16 0.9,5.93 4.7,6.38 5.9,6.38 1.7,0 4.9,-0.9 5.9,-5.83 0.5,-2.79 0.5,-6.57 0.5,-9.71 0,-3.74 0,-7.13 -0.6,-10.31 -0.7,-4.73 -3.6,-6.23 -5.8,-6.23 h 0 v -1.1 c 2.7,0 6.5,1.05 8.7,5.78 1.6,3.44 1.8,7.32 1.8,11.26 z"
             style="fill:#000080;stroke-width:0" /></g>      </g>
    </g>
  </g>
</svg>
